Merriweather34-Light Display.ufo
<glyph name="numbersign" format="1">
  <advance width="1395"/>
  <unicode hex="0023"/>
  <outline>
    <contour>
      <point x="54" y="381" type="line"/>
      <point x="301" y="381" type="line"/>
      <point x="238" y="0" type="line"/>
      <point x="311" y="0" type="line"/>
      <point x="373" y="381" type="line"/>
      <point x="699" y="381" type="line"/>
      <point x="636" y="0" type="line"/>
      <point x="709" y="0" type="line"/>
      <point x="771" y="381" type="line"/>
      <point x="1051" y="381" type="line"/>
      <point x="1059" y="447" type="line"/>
      <point x="782" y="447" type="line"/>
      <point x="856" y="898" type="line"/>
      <point x="1124" y="898" type="line"/>
      <point x="1132" y="964" type="line"/>
      <point x="867" y="964" type="line"/>
      <point x="926" y="1326" type="line"/>
      <point x="855" y="1326" type="line"/>
      <point x="795" y="964" type="line"/>
      <point x="469" y="964" type="line"/>
      <point x="528" y="1326" type="line"/>
      <point x="457" y="1326" type="line"/>
      <point x="397" y="964" type="line"/>
      <point x="135" y="964" type="line"/>
      <point x="127" y="898" type="line"/>
      <point x="386" y="898" type="line"/>
      <point x="312" y="447" type="line"/>
      <point x="62" y="447" type="line"/>
    </contour>
    <contour>
      <point x="784" y="898" type="line"/>
      <point x="710" y="447" type="line"/>
      <point x="384" y="447" type="line"/>
      <point x="458" y="898" type="line"/>
    </contour>
  </outline>
</glyph>
<glyph name="ampersand" format="1">
  <advance width="1529"/>
  <unicode hex="0026"/>
  <outline>
    <contour>
      <point x="553" y="-16" type="curve"/>
      <point x="692" y="-16"/>
      <point x="808" y="12"/>
      <point x="915" y="68" type="curve"/>
      <point x="985" y="8"/>
      <point x="1045" y="-20"/>
      <point x="1155" y="-20" type="curve"/>
      <point x="1197" y="-20"/>
      <point x="1235" y="-12"/>
      <point x="1269" y="8" type="curve"/>
      <point x="1258" y="46" type="line"/>
      <point x="1235" y="40"/>
      <point x="1203" y="40"/>
      <point x="1179" y="40" type="curve"/>
      <point x="1134" y="40"/>
      <point x="1063" y="82"/>
      <point x="1017" y="137" type="curve"/>
      <point x="1125" y="237"/>
      <point x="1235" y="358"/>
      <point x="1235" y="571" type="curve"/>
      <point x="1235" y="602"/>
      <point x="1232" y="630"/>
      <point x="1228" y="651" type="curve"/>
      <point x="1253" y="647"/>
      <point x="1269" y="646"/>
      <point x="1294" y="646" type="curve"/>
      <point x="1327" y="646"/>
      <point x="1379" y="655"/>
      <point x="1421" y="675" type="curve"/>
      <point x="1421" y="764" type="line"/>
      <point x="1382" y="744"/>
      <point x="1338" y="738"/>
      <point x="1262" y="738" type="curve"/>
      <point x="1168" y="738"/>
      <point x="1103" y="763"/>
      <point x="1016" y="763" type="curve"/>
      <point x="971" y="763"/>
      <point x="940" y="759"/>
      <point x="924" y="743" type="curve"/>
      <point x="924" y="653" type="line"/>
      <point x="947" y="668"/>
      <point x="982" y="671"/>
      <point x="1010" y="671" type="curve"/>
      <point x="1067" y="671"/>
      <point x="1096" y="667"/>
      <point x="1121" y="660" type="curve"/>
      <point x="1132" y="627"/>
      <point x="1138" y="593"/>
      <point x="1138" y="536" type="curve"/>
      <point x="1138" y="359"/>
      <point x="1038" y="269"/>
      <point x="968" y="191" type="curve"/>
      <point x="863" y="323"/>
      <point x="702" y="568"/>
      <point x="587" y="753" type="curve"/>
      <point x="760" y="850"/>
      <point x="1037" y="1032"/>
      <point x="1037" y="1240" type="curve"/>
      <point x="1037" y="1373"/>
      <point x="933" y="1504"/>
      <point x="754" y="1504" type="curve"/>
      <point x="506" y="1504"/>
      <point x="319" y="1337"/>
      <point x="319" y="1098" type="curve"/>
      <point x="319" y="991"/>
      <point x="371" y="847"/>
      <point x="448" y="738" type="curve"/>
      <point x="287" y="656"/>
      <point x="72" y="527"/>
      <point x="72" y="331" type="curve"/>
      <point x="72" y="68"/>
      <point x="302" y="-16"/>
    </contour>
    <contour>
      <point x="571" y="44" type="curve"/>
      <point x="363" y="44"/>
      <point x="193" y="161"/>
      <point x="193" y="349" type="curve"/>
      <point x="193" y="490"/>
      <point x="295" y="614"/>
      <point x="474" y="695" type="curve"/>
      <point x="585" y="513"/>
      <point x="728" y="288"/>
      <point x="862" y="124" type="curve"/>
      <point x="788" y="89"/>
      <point x="695" y="44"/>
    </contour>
    <contour>
      <point x="560" y="795" type="curve"/>
      <point x="488" y="906"/>
      <point x="435" y="1014"/>
      <point x="435" y="1130" type="curve"/>
      <point x="435" y="1344"/>
      <point x="556" y="1456"/>
      <point x="723" y="1456" type="curve"/>
      <point x="822" y="1456"/>
      <point x="926" y="1403"/>
      <point x="926" y="1234" type="curve"/>
      <point x="926" y="997"/>
      <point x="708" y="882"/>
    </contour>
  </outline>
</glyph>
<glyph name="parenleft" format="1">
  <advance width="835"/>
  <unicode hex="0028"/>
  <outline>
    <contour>
      <point x="164" y="457" type="curve"/>
      <point x="164" y="-61"/>
      <point x="448" y="-316"/>
      <point x="515" y="-364" type="curve"/>
      <point x="564" y="-332" type="line"/>
      <point x="489" y="-277"/>
      <point x="304" y="-14"/>
      <point x="304" y="430" type="curve"/>
      <point x="304" y="781"/>
      <point x="491" y="1432"/>
      <point x="825" y="1626" type="curve"/>
      <point x="791" y="1652" type="line"/>
      <point x="409" y="1443"/>
      <point x="164" y="866"/>
    </contour>
  </outline>
</glyph>
<glyph name="period" format="1">
  <advance width="445"/>
  <unicode hex="002E"/>
  <outline>
    <contour>
      <point x="53" y="72" type="curve"/>
      <point x="45" y="10"/>
      <point x="81" y="-24"/>
      <point x="130" y="-24" type="curve"/>
      <point x="194" y="-24"/>
      <point x="237" y="18"/>
      <point x="247" y="88" type="curve"/>
      <point x="255" y="143"/>
      <point x="228" y="184"/>
      <point x="165" y="184" type="curve"/>
      <point x="101" y="184"/>
      <point x="62" y="138"/>
    </contour>
  </outline>
</glyph>
<glyph name="two" format="1">
  <advance width="1106"/>
  <unicode hex="0032"/>
  <outline>
    <contour>
      <point x="-22" y="36" type="curve"/>
      <point x="-16" y="0" type="line"/>
      <point x="904" y="0" type="line"/>
      <point x="981" y="275" type="line"/>
      <point x="899" y="305" type="line"/>
      <point x="795" y="110" type="line"/>
      <point x="142" y="52" type="line"/>
      <point x="357" y="185"/>
      <point x="996" y="634"/>
      <point x="996" y="1125" type="curve"/>
      <point x="996" y="1314"/>
      <point x="889" y="1494"/>
      <point x="600" y="1494" type="curve"/>
      <point x="383" y="1494"/>
      <point x="212" y="1380"/>
      <point x="138" y="1285" type="curve"/>
      <point x="171" y="1227" type="line"/>
      <point x="240" y="1302"/>
      <point x="392" y="1384"/>
      <point x="531" y="1384" type="curve"/>
      <point x="733" y="1384"/>
      <point x="831" y="1275"/>
      <point x="829" y="1092" type="curve"/>
      <point x="824" y="647"/>
      <point x="304" y="241"/>
    </contour>
  </outline>
</glyph>
<glyph name="three" format="1">
  <advance width="1089"/>
  <unicode hex="0033"/>
  <outline>
    <contour>
      <point x="267" y="-6" type="curve"/>
      <point x="670" y="-6"/>
      <point x="982" y="217"/>
      <point x="969" y="497" type="curve"/>
      <point x="960" y="685"/>
      <point x="810" y="809"/>
      <point x="525" y="779" type="curve"/>
      <point x="836" y="855"/>
      <point x="970" y="1051"/>
      <point x="969" y="1222" type="curve"/>
      <point x="967" y="1417"/>
      <point x="790" y="1497"/>
      <point x="620" y="1499" type="curve"/>
      <point x="400" y="1502"/>
      <point x="249" y="1379"/>
      <point x="181" y="1315" type="curve"/>
      <point x="219" y="1259" type="line"/>
      <point x="295" y="1322"/>
      <point x="413" y="1405"/>
      <point x="568" y="1405" type="curve"/>
      <point x="692" y="1405"/>
      <point x="798" y="1352"/>
      <point x="798" y="1201" type="curve"/>
      <point x="798" y="1008"/>
      <point x="625" y="843"/>
      <point x="315" y="773" type="curve"/>
      <point x="308" y="709" type="line"/>
      <point x="332" y="717"/>
      <point x="417" y="738"/>
      <point x="443" y="748" type="curve"/>
      <point x="686" y="750"/>
      <point x="786" y="644"/>
      <point x="786" y="478" type="curve"/>
      <point x="786" y="220"/>
      <point x="546" y="56"/>
      <point x="174" y="56" type="curve"/>
      <point x="145" y="56"/>
      <point x="157" y="57"/>
      <point x="84" y="67" type="curve"/>
      <point x="76" y="12" type="line"/>
      <point x="124" y="1"/>
      <point x="196" y="-6"/>
    </contour>
  </outline>
</glyph>
<glyph name="five" format="1">
  <advance width="1096"/>
  <unicode hex="0035"/>
  <outline>
    <contour>
      <point x="107" y="48" type="curve"/>
      <point x="101" y="-5" type="line"/>
      <point x="138" y="-17"/>
      <point x="185" y="-20"/>
      <point x="225" y="-20" type="curve"/>
      <point x="642" y="-20"/>
      <point x="939" y="167"/>
      <point x="985" y="506" type="curve"/>
      <point x="1024" y="795"/>
      <point x="830" y="927"/>
      <point x="620" y="927" type="curve"/>
      <point x="434" y="927"/>
      <point x="325" y="857"/>
      <point x="263" y="819" type="curve"/>
      <point x="439" y="1351" type="line"/>
      <point x="998" y="1351" type="line"/>
      <point x="1051" y="1524" type="line"/>
      <point x="954" y="1524" type="line"/>
      <point x="931" y="1486" type="line"/>
      <point x="344" y="1486" type="line"/>
      <point x="180" y="801" type="line"/>
      <point x="236" y="751" type="line"/>
      <point x="309" y="789"/>
      <point x="399" y="840"/>
      <point x="558" y="840" type="curve"/>
      <point x="756" y="840"/>
      <point x="830" y="693"/>
      <point x="805" y="498" type="curve"/>
      <point x="762" y="165"/>
      <point x="522" y="42"/>
      <point x="212" y="42" type="curve"/>
      <point x="182" y="42"/>
      <point x="139" y="44"/>
    </contour>
  </outline>
</glyph>
<glyph name="six" format="1">
  <advance width="1200"/>
  <unicode hex="0036"/>
  <outline>
    <contour>
      <point x="589" y="-26" type="curve"/>
      <point x="884" y="-26"/>
      <point x="1106" y="238"/>
      <point x="1106" y="560" type="curve"/>
      <point x="1106" y="782"/>
      <point x="979" y="953"/>
      <point x="727" y="953" type="curve"/>
      <point x="538" y="953"/>
      <point x="418" y="842"/>
      <point x="351" y="764" type="curve"/>
      <point x="437" y="1084"/>
      <point x="667" y="1359"/>
      <point x="1027" y="1483" type="curve"/>
      <point x="1003" y="1533" type="line"/>
      <point x="503" y="1443"/>
      <point x="141" y="983"/>
      <point x="141" y="522" type="curve"/>
      <point x="141" y="257"/>
      <point x="244" y="-26"/>
    </contour>
    <contour>
      <point x="594" y="19" type="curve"/>
      <point x="296" y="12"/>
      <point x="286" y="317"/>
      <point x="293" y="485" type="curve"/>
      <point x="295" y="533"/>
      <point x="308" y="613"/>
      <point x="320" y="653" type="curve"/>
      <point x="362" y="725"/>
      <point x="479" y="867"/>
      <point x="678" y="867" type="curve"/>
      <point x="826" y="867"/>
      <point x="943" y="746"/>
      <point x="943" y="535" type="curve"/>
      <point x="943" y="284"/>
      <point x="817" y="24"/>
    </contour>
  </outline>
</glyph>
<glyph name="seven" format="1">
  <advance width="1038"/>
  <unicode hex="0037"/>
  <outline>
    <contour>
      <point x="281" y="1351" type="line"/>
      <point x="967" y="1351" type="line"/>
      <point x="275" y="4" type="line"/>
      <point x="464" y="0" type="line"/>
      <point x="1058" y="1442" type="line"/>
      <point x="1035" y="1486" type="line"/>
      <point x="205" y="1486" type="line"/>
      <point x="137" y="1138" type="line"/>
      <point x="187" y="1130" type="line"/>
    </contour>
  </outline>
</glyph>
<glyph name="eight" format="1">
  <advance width="1155"/>
  <unicode hex="0038"/>
  <outline>
    <contour>
      <point x="97" y="328" type="curve"/>
      <point x="97" y="84"/>
      <point x="325" y="-18"/>
      <point x="519" y="-18" type="curve"/>
      <point x="813" y="-18"/>
      <point x="1025" y="149"/>
      <point x="1025" y="384" type="curve"/>
      <point x="1025" y="586"/>
      <point x="911" y="662"/>
      <point x="719" y="789" type="curve"/>
      <point x="938" y="869"/>
      <point x="1093" y="984"/>
      <point x="1093" y="1201" type="curve"/>
      <point x="1093" y="1388"/>
      <point x="915" y="1505"/>
      <point x="723" y="1505" type="curve"/>
      <point x="453" y="1505"/>
      <point x="254" y="1351"/>
      <point x="254" y="1124" type="curve"/>
      <point x="254" y="959"/>
      <point x="353" y="841"/>
      <point x="494" y="751" type="curve"/>
      <point x="260" y="689"/>
      <point x="97" y="542"/>
    </contour>
    <contour>
      <point x="663" y="821" type="curve"/>
      <point x="503" y="915"/>
      <point x="408" y="1014"/>
      <point x="408" y="1156" type="curve"/>
      <point x="408" y="1347"/>
      <point x="533" y="1458"/>
      <point x="706" y="1458" type="curve"/>
      <point x="849" y="1458"/>
      <point x="960" y="1367"/>
      <point x="960" y="1188" type="curve"/>
      <point x="960" y="1003"/>
      <point x="856" y="886"/>
    </contour>
    <contour>
      <point x="234" y="352" type="curve"/>
      <point x="238" y="538"/>
      <point x="356" y="658"/>
      <point x="527" y="717" type="curve"/>
      <point x="693" y="615"/>
      <point x="862" y="538"/>
      <point x="863" y="347" type="curve"/>
      <point x="864" y="164"/>
      <point x="739" y="31"/>
      <point x="533" y="31" type="curve"/>
      <point x="318" y="31"/>
      <point x="230" y="188"/>
    </contour>
  </outline>
</glyph>
<glyph name="nine" format="1">
  <advance width="1233"/>
  <unicode hex="0039"/>
  <outline>
    <contour>
      <point x="717" y="1503" type="curve"/>
      <point x="412" y="1503"/>
      <point x="188" y="1239"/>
      <point x="188" y="931" type="curve"/>
      <point x="188" y="685"/>
      <point x="332" y="524"/>
      <point x="564" y="524" type="curve"/>
      <point x="753" y="524"/>
      <point x="875" y="635"/>
      <point x="942" y="713" type="curve"/>
      <point x="856" y="393"/>
      <point x="649" y="110"/>
      <point x="269" y="-6" type="curve"/>
      <point x="293" y="-56" type="line"/>
      <point x="823" y="34"/>
      <point x="1155" y="525"/>
      <point x="1155" y="986" type="curve"/>
      <point x="1155" y="1251"/>
      <point x="1042" y="1503"/>
    </contour>
    <contour>
      <point x="712" y="1459" type="curve"/>
      <point x="990" y="1464"/>
      <point x="1003" y="1170"/>
      <point x="996" y="992" type="curve"/>
      <point x="994" y="944"/>
      <point x="981" y="864"/>
      <point x="969" y="824" type="curve"/>
      <point x="927" y="752"/>
      <point x="807" y="610"/>
      <point x="608" y="610" type="curve"/>
      <point x="460" y="610"/>
      <point x="349" y="751"/>
      <point x="349" y="956" type="curve"/>
      <point x="349" y="1213"/>
      <point x="479" y="1454"/>
    </contour>
  </outline>
</glyph>
<glyph name="B" format="1">
  <advance width="1206"/>
  <unicode hex="0042"/>
  <outline>
    <contour>
      <point x="-29" y="36" type="line"/>
      <point x="-34" y="0" type="line"/>
      <point x="196" y="0" type="line" smooth="yes"/>
      <point x="264" y="0"/>
      <point x="382" y="-14"/>
      <point x="458" y="-14" type="curve"/>
      <point x="850" y="-14"/>
      <point x="1122" y="134"/>
      <point x="1122" y="458" type="curve"/>
      <point x="1122" y="651"/>
      <point x="986" y="755"/>
      <point x="790" y="768" type="curve"/>
      <point x="986" y="822"/>
      <point x="1122" y="976"/>
      <point x="1122" y="1186" type="curve"/>
      <point x="1122" y="1355"/>
      <point x="1010" y="1502"/>
      <point x="688" y="1502" type="curve"/>
      <point x="588" y="1502"/>
      <point x="500" y="1486"/>
      <point x="410" y="1486" type="curve"/>
      <point x="172" y="1486" type="line"/>
      <point x="167" y="1450" type="line"/>
      <point x="303" y="1420" type="line"/>
      <point x="117" y="67" type="line"/>
    </contour>
    <contour>
      <point x="485" y="37" type="curve"/>
      <point x="399" y="37"/>
      <point x="262" y="61"/>
      <point x="257" y="72" type="curve"/>
      <point x="268" y="36" type="line"/>
      <point x="368" y="755" type="line"/>
      <point x="321" y="737" type="line"/>
      <point x="414" y="739"/>
      <point x="485" y="738"/>
      <point x="618" y="738" type="curve"/>
      <point x="824" y="738"/>
      <point x="958" y="652"/>
      <point x="958" y="458" type="curve"/>
      <point x="958" y="180"/>
      <point x="784" y="37"/>
    </contour>
    <contour>
      <point x="643" y="794" type="curve"/>
      <point x="525" y="795"/>
      <point x="407" y="792"/>
      <point x="338" y="793" type="curve"/>
      <point x="370" y="772" type="line"/>
      <point x="465" y="1460" type="line"/>
      <point x="431" y="1433" type="line"/>
      <point x="456" y="1438"/>
      <point x="621" y="1451"/>
      <point x="657" y="1451" type="curve"/>
      <point x="895" y="1451"/>
      <point x="962" y="1327"/>
      <point x="962" y="1170" type="curve"/>
      <point x="962" y="932"/>
      <point x="802" y="793"/>
    </contour>
    <contour>
      <point x="495" y="0" type="move" name="bottom"/>
    </contour>
    <contour>
      <point x="685" y="1486" type="move" name="top"/>
    </contour>
  </outline>
</glyph>
<glyph name="C" format="1">
  <advance width="1233"/>
  <unicode hex="0043"/>
  <outline>
    <contour>
      <point x="647" y="-16" type="curve"/>
      <point x="833" y="-16"/>
      <point x="973" y="46"/>
      <point x="1049" y="72" type="curve"/>
      <point x="1089" y="393" type="line"/>
      <point x="1021" y="393" type="line"/>
      <point x="1001" y="321"/>
      <point x="978" y="228"/>
      <point x="954" y="158" type="curve"/>
      <point x="913" y="90"/>
      <point x="765" y="38"/>
      <point x="677" y="38" type="curve"/>
      <point x="358" y="38"/>
      <point x="263" y="321"/>
      <point x="263" y="629" type="curve"/>
      <point x="263" y="1005"/>
      <point x="426" y="1449"/>
      <point x="802" y="1449" type="curve"/>
      <point x="948" y="1449"/>
      <point x="1017" y="1404"/>
      <point x="1061" y="1376" type="curve"/>
      <point x="1069" y="1086" type="line"/>
      <point x="1136" y="1086" type="line"/>
      <point x="1196" y="1442" type="line"/>
      <point x="1132" y="1452"/>
      <point x="1005" y="1502"/>
      <point x="821" y="1502" type="curve"/>
      <point x="424" y="1502"/>
      <point x="98" y="1150"/>
      <point x="98" y="613" type="curve"/>
      <point x="98" y="308"/>
      <point x="225" y="-16"/>
    </contour>
    <contour>
      <point x="622" y="0" type="move" name="bottom"/>
    </contour>
    <contour>
      <point x="828" y="1486" type="move" name="top"/>
    </contour>
  </outline>
</glyph>
<glyph name="E" format="1">
  <advance width="1162"/>
  <unicode hex="0045"/>
  <outline>
    <contour>
      <point x="-29" y="36" type="line"/>
      <point x="-34" y="0" type="line"/>
      <point x="998" y="0" type="line"/>
      <point x="1082" y="316" type="line"/>
      <point x="1018" y="333" type="line"/>
      <point x="905" y="94" type="line"/>
      <point x="273" y="67" type="line"/>
      <point x="365" y="733" type="line"/>
      <point x="834" y="719" type="line"/>
      <point x="847" y="811" type="line"/>
      <point x="373" y="795" type="line"/>
      <point x="459" y="1421" type="line"/>
      <point x="975" y="1400" type="line"/>
      <point x="1018" y="1180" type="line"/>
      <point x="1070" y="1180" type="line"/>
      <point x="1078" y="1486" type="line"/>
      <point x="172" y="1486" type="line"/>
      <point x="167" y="1450" type="line"/>
      <point x="303" y="1420" type="line"/>
      <point x="117" y="67" type="line"/>
    </contour>
    <contour>
      <point x="512" y="0" type="move" name="bottom"/>
    </contour>
    <contour>
      <point x="939" y="10" type="move" name="ogonek"/>
    </contour>
    <contour>
      <point x="716" y="1486" type="move" name="top"/>
    </contour>
    <contour>
      <point x="155" y="1486" type="move" name="topleft"/>
    </contour>
  </outline>
</glyph>
<glyph name="F" format="1">
  <advance width="1076"/>
  <unicode hex="0046"/>
  <outline>
    <contour>
      <point x="-1" y="36" type="line"/>
      <point x="-6" y="0" type="line"/>
      <point x="526" y="0" type="line"/>
      <point x="531" y="36" type="line"/>
      <point x="301" y="67" type="line"/>
      <point x="393" y="733" type="line"/>
      <point x="842" y="719" type="line"/>
      <point x="855" y="809" type="line"/>
      <point x="401" y="798" type="line"/>
      <point x="487" y="1420" type="line"/>
      <point x="981" y="1399" type="line"/>
      <point x="1026" y="1180" type="line"/>
      <point x="1078" y="1180" type="line"/>
      <point x="1086" y="1486" type="line"/>
      <point x="200" y="1486" type="line"/>
      <point x="195" y="1450" type="line"/>
      <point x="331" y="1420" type="line"/>
      <point x="145" y="67" type="line"/>
    </contour>
    <contour>
      <point x="596" y="-164" type="move" name="btm"/>
    </contour>
    <contour>
      <point x="742" y="1486" type="move" name="top"/>
    </contour>
  </outline>
</glyph>
<glyph name="G" format="1">
  <advance width="1331"/>
  <unicode hex="0047"/>
  <outline>
    <contour>
      <point x="660" y="-16" type="curve"/>
      <point x="780" y="-16"/>
      <point x="892" y="27"/>
      <point x="970" y="53" type="curve"/>
      <point x="1043" y="77"/>
      <point x="1080" y="87"/>
      <point x="1118" y="91" type="curve"/>
      <point x="1206" y="708" type="line"/>
      <point x="807" y="708" type="line"/>
      <point x="800" y="645" type="line"/>
      <point x="1046" y="630" type="line"/>
      <point x="982" y="157" type="line"/>
      <point x="909" y="94"/>
      <point x="780" y="37"/>
      <point x="668" y="37" type="curve"/>
      <point x="383" y="37"/>
      <point x="266" y="321"/>
      <point x="266" y="629" type="curve"/>
      <point x="266" y="1008"/>
      <point x="429" y="1449"/>
      <point x="825" y="1449" type="curve"/>
      <point x="1003" y="1449"/>
      <point x="1072" y="1404"/>
      <point x="1125" y="1369" type="curve"/>
      <point x="1130" y="1146" type="line"/>
      <point x="1197" y="1146" type="line"/>
      <point x="1251" y="1442" type="line"/>
      <point x="1241" y="1444"/>
      <point x="1230" y="1446"/>
      <point x="1216" y="1449" type="curve"/>
      <point x="1145" y="1464"/>
      <point x="1026" y="1502"/>
      <point x="844" y="1502" type="curve"/>
      <point x="427" y="1502"/>
      <point x="101" y="1150"/>
      <point x="101" y="613" type="curve"/>
      <point x="101" y="308"/>
      <point x="228" y="-16"/>
    </contour>
    <contour>
      <point x="692" y="0" type="move" name="bottom"/>
    </contour>
    <contour>
      <point x="849" y="1486" type="move" name="top"/>
    </contour>
  </outline>
</glyph>
<glyph name="H" format="1">
  <advance width="1365"/>
  <unicode hex="0048"/>
  <outline>
    <contour>
      <point x="-29" y="36" type="line"/>
      <point x="-34" y="0" type="line"/>
      <point x="416" y="0" type="line"/>
      <point x="421" y="36" type="line"/>
      <point x="273" y="67" type="line"/>
      <point x="459" y="1420" type="line"/>
      <point x="595" y="1450" type="line"/>
      <point x="600" y="1486" type="line"/>
      <point x="172" y="1486" type="line"/>
      <point x="167" y="1450" type="line"/>
      <point x="303" y="1420" type="line"/>
      <point x="117" y="67" type="line"/>
    </contour>
    <contour>
      <point x="336" y="798" type="line"/>
      <point x="336" y="732" type="line"/>
      <point x="1126" y="732" type="line"/>
      <point x="1126" y="798" type="line"/>
    </contour>
    <contour>
      <point x="825" y="36" type="line"/>
      <point x="820" y="0" type="line"/>
      <point x="1270" y="0" type="line"/>
      <point x="1275" y="36" type="line"/>
      <point x="1127" y="67" type="line"/>
      <point x="1313" y="1420" type="line"/>
      <point x="1449" y="1450" type="line"/>
      <point x="1454" y="1486" type="line"/>
      <point x="1026" y="1486" type="line"/>
      <point x="1021" y="1450" type="line"/>
      <point x="1157" y="1420" type="line"/>
      <point x="971" y="67" type="line"/>
    </contour>
    <contour>
      <point x="633" y="0" type="move" name="bottom"/>
    </contour>
    <contour>
      <point x="849" y="1486" type="move" name="top"/>
    </contour>
  </outline>
</glyph>
<glyph name="I" format="1">
  <advance width="512"/>
  <unicode hex="0049"/>
  <outline>
    <contour>
      <point x="-29" y="36" type="line"/>
      <point x="-34" y="0" type="line"/>
      <point x="418" y="0" type="line"/>
      <point x="423" y="36" type="line"/>
      <point x="274" y="67" type="line"/>
      <point x="460" y="1420" type="line"/>
      <point x="597" y="1450" type="line"/>
      <point x="602" y="1486" type="line"/>
      <point x="172" y="1486" type="line"/>
      <point x="167" y="1450" type="line"/>
      <point x="304" y="1420" type="line"/>
      <point x="118" y="67" type="line"/>
    </contour>
    <contour>
      <point x="201" y="0" type="move" name="bottom"/>
    </contour>
    <contour>
      <point x="383" y="-164" type="move" name="btm"/>
    </contour>
    <contour>
      <point x="348" y="0" type="move" name="ogonek"/>
    </contour>
    <contour>
      <point x="400" y="1486" type="move" name="top"/>
    </contour>
    <contour>
      <point x="160" y="1486" type="move" name="topleft"/>
    </contour>
  </outline>
</glyph>
<glyph name="J" format="1">
  <advance width="617"/>
  <unicode hex="004A"/>
  <outline>
    <contour>
      <point x="-180" y="-266" type="curve"/>
      <point x="-159" y="-309" type="line"/>
      <point x="43" y="-275"/>
      <point x="273" y="-164"/>
      <point x="327" y="74" type="curve"/>
      <point x="365" y="241"/>
      <point x="435" y="766"/>
      <point x="507" y="1420" type="curve"/>
      <point x="643" y="1450" type="line"/>
      <point x="648" y="1486" type="line"/>
      <point x="216" y="1486" type="line"/>
      <point x="211" y="1450" type="line"/>
      <point x="352" y="1420" type="line"/>
      <point x="304" y="994"/>
      <point x="240" y="406"/>
      <point x="174" y="88" type="curve"/>
      <point x="141" y="-70"/>
      <point x="38" y="-209"/>
    </contour>
    <contour>
      <point x="315" y="-164" type="move" name="btm"/>
    </contour>
    <contour>
      <point x="511" y="1486" type="move" name="top"/>
    </contour>
  </outline>
</glyph>
<glyph name="K" format="1">
  <advance width="1290"/>
  <unicode hex="004B"/>
  <outline>
    <contour>
      <point x="-1" y="36" type="line"/>
      <point x="-6" y="0" type="line"/>
      <point x="446" y="0" type="line"/>
      <point x="451" y="36" type="line"/>
      <point x="301" y="67" type="line"/>
      <point x="487" y="1420" type="line"/>
      <point x="623" y="1450" type="line"/>
      <point x="628" y="1486" type="line"/>
      <point x="200" y="1486" type="line"/>
      <point x="195" y="1450" type="line"/>
      <point x="331" y="1420" type="line"/>
      <point x="145" y="67" type="line"/>
    </contour>
    <contour>
      <point x="358" y="583" type="line"/>
      <point x="345" y="479" type="line"/>
      <point x="1209" y="1425" type="line"/>
      <point x="1344" y="1450" type="line"/>
      <point x="1351" y="1486" type="line"/>
      <point x="953" y="1486" type="line"/>
      <point x="949" y="1450" type="line"/>
      <point x="1105" y="1423" type="line"/>
    </contour>
    <contour>
      <point x="987" y="0" type="curve"/>
      <point x="1219" y="0" type="line"/>
      <point x="1224" y="36" type="line"/>
      <point x="1111" y="68" type="line"/>
      <point x="1075" y="95"/>
      <point x="1009" y="217"/>
      <point x="906" y="404" type="curve"/>
      <point x="846" y="513"/>
      <point x="716" y="732"/>
      <point x="662" y="834" type="curve"/>
      <point x="565" y="732" type="line"/>
      <point x="614" y="640"/>
      <point x="711" y="454"/>
      <point x="771" y="342" type="curve"/>
      <point x="846" y="203"/>
      <point x="941" y="4"/>
    </contour>
    <contour>
      <point x="686" y="0" type="move" name="bottom"/>
    </contour>
    <contour>
      <point x="830" y="1486" type="move" name="top"/>
    </contour>
  </outline>
</glyph>
<glyph name="L" format="1">
  <advance width="1111"/>
  <unicode hex="004C"/>
  <outline>
    <contour>
      <point x="-1" y="36" type="line"/>
      <point x="-6" y="0" type="line"/>
      <point x="934" y="0" type="line"/>
      <point x="1031" y="428" type="line"/>
      <point x="967" y="441" type="line"/>
      <point x="841" y="94" type="line"/>
      <point x="301" y="67" type="line"/>
      <point x="487" y="1420" type="line"/>
      <point x="645" y="1450" type="line"/>
      <point x="650" y="1486" type="line"/>
      <point x="200" y="1486" type="line"/>
      <point x="195" y="1450" type="line"/>
      <point x="331" y="1420" type="line"/>
      <point x="145" y="67" type="line"/>
    </contour>
    <contour>
      <point x="529" y="0" type="move" name="bottom"/>
    </contour>
    <contour>
      <point x="857" y="1110" type="move" name="car"/>
    </contour>
    <contour>
      <point x="423" y="1486" type="move" name="top"/>
    </contour>
  </outline>
</glyph>
<glyph name="M" format="1">
  <advance width="1762"/>
  <unicode hex="004D"/>
  <outline>
    <contour>
      <point x="-62" y="36" type="line"/>
      <point x="-67" y="0" type="line"/>
      <point x="358" y="0" type="line"/>
      <point x="362" y="36" type="line"/>
      <point x="188" y="67" type="line"/>
      <point x="403" y="1037" type="line"/>
      <point x="484" y="1416" type="line"/>
      <point x="549" y="1016" type="line"/>
      <point x="715" y="0" type="line"/>
      <point x="805" y="0" type="line"/>
      <point x="1280" y="1040" type="line"/>
      <point x="1428" y="1386" type="line"/>
      <point x="1408" y="992" type="line"/>
      <point x="1378" y="67" type="line"/>
      <point x="1193" y="36" type="line"/>
      <point x="1188" y="0" type="line"/>
      <point x="1696" y="0" type="line"/>
      <point x="1699" y="36" type="line"/>
      <point x="1536" y="69" type="line"/>
      <point x="1564" y="1426" type="line"/>
      <point x="1722" y="1450" type="line"/>
      <point x="1727" y="1486" type="line"/>
      <point x="1396" y="1486" type="line"/>
      <point x="929" y="461" type="line"/>
      <point x="832" y="238" type="line"/>
      <point x="800" y="465" type="line"/>
      <point x="623" y="1486" type="line"/>
      <point x="256" y="1486" type="line"/>
      <point x="251" y="1451" type="line"/>
      <point x="408" y="1419" type="line"/>
      <point x="84" y="67" type="line"/>
    </contour>
    <contour>
      <point x="769" y="0" type="move" name="bottom"/>
    </contour>
    <contour>
      <point x="965" y="1486" type="move" name="top"/>
    </contour>
  </outline>
</glyph>
<glyph name="N" format="1">
  <advance width="1374"/>
  <unicode hex="004E"/>
  <outline>
    <contour>
      <point x="-1" y="36" type="line"/>
      <point x="-6" y="0" type="line"/>
      <point x="383" y="0" type="line"/>
      <point x="388" y="36" type="line"/>
      <point x="240" y="67" type="line"/>
      <point x="395" y="1417" type="line"/>
      <point x="368" y="1414" type="line"/>
      <point x="476" y="1102" type="line"/>
      <point x="964" y="0" type="line"/>
      <point x="1091" y="0" type="line"/>
      <point x="1288" y="1419" type="line"/>
      <point x="1432" y="1450" type="line"/>
      <point x="1437" y="1486" type="line"/>
      <point x="1048" y="1486" type="line"/>
      <point x="1043" y="1450" type="line"/>
      <point x="1191" y="1419" type="line"/>
      <point x="1043" y="69" type="line"/>
      <point x="1076" y="72" type="line"/>
      <point x="968" y="376" type="line"/>
      <point x="478" y="1486" type="line"/>
      <point x="200" y="1486" type="line"/>
      <point x="195" y="1450" type="line"/>
      <point x="331" y="1420" type="line"/>
      <point x="143" y="67" type="line"/>
    </contour>
    <contour>
      <point x="718" y="0" type="move" name="bottom"/>
    </contour>
    <contour>
      <point x="870" y="1486" type="move" name="top"/>
    </contour>
  </outline>
</glyph>
<glyph name="O" format="1">
  <advance width="1290"/>
  <unicode hex="004F"/>
  <outline>
    <contour>
      <point x="586" y="-22" type="curve"/>
      <point x="986" y="-22"/>
      <point x="1265" y="374"/>
      <point x="1265" y="885" type="curve"/>
      <point x="1265" y="1263"/>
      <point x="1102" y="1503"/>
      <point x="773" y="1503" type="curve"/>
      <point x="379" y="1503"/>
      <point x="92" y="1121"/>
      <point x="92" y="605" type="curve"/>
      <point x="92" y="216"/>
      <point x="263" y="-22"/>
    </contour>
    <contour>
      <point x="610" y="29" type="curve"/>
      <point x="387" y="29"/>
      <point x="256" y="246"/>
      <point x="256" y="613" type="curve"/>
      <point x="256" y="1091"/>
      <point x="466" y="1452"/>
      <point x="751" y="1452" type="curve"/>
      <point x="979" y="1452"/>
      <point x="1101" y="1249"/>
      <point x="1101" y="874" type="curve"/>
      <point x="1101" y="420"/>
      <point x="894" y="29"/>
    </contour>
    <contour>
      <point x="576" y="0" type="move" name="bottom"/>
    </contour>
    <contour>
      <point x="678" y="743" type="move" name="center"/>
    </contour>
    <contour>
      <point x="818" y="42" type="move" name="ogonek"/>
    </contour>
    <contour>
      <point x="780" y="1486" type="move" name="top"/>
    </contour>
    <contour>
      <point x="153" y="1486" type="move" name="topleft"/>
    </contour>
    <contour>
      <point x="1097" y="1426" type="move" name="topright"/>
    </contour>
  </outline>
</glyph>
<glyph name="P" format="1">
  <advance width="1164"/>
  <unicode hex="0050"/>
  <outline>
    <contour>
      <point x="-1" y="36" type="line"/>
      <point x="-6" y="0" type="line"/>
      <point x="526" y="0" type="line"/>
      <point x="531" y="36" type="line"/>
      <point x="300" y="67" type="line"/>
      <point x="490" y="1446" type="line"/>
      <point x="449" y="1422" type="line"/>
      <point x="513" y="1432"/>
      <point x="634" y="1450"/>
      <point x="694" y="1450" type="curve"/>
      <point x="906" y="1450"/>
      <point x="1004" y="1346"/>
      <point x="1004" y="1110" type="curve"/>
      <point x="1004" y="796"/>
      <point x="862" y="625"/>
      <point x="572" y="625" type="curve"/>
      <point x="516" y="625"/>
      <point x="420" y="641"/>
      <point x="362" y="655" type="curve"/>
      <point x="350" y="591" type="line"/>
      <point x="408" y="582"/>
      <point x="480" y="573"/>
      <point x="566" y="573" type="curve"/>
      <point x="900" y="573"/>
      <point x="1170" y="737"/>
      <point x="1170" y="1126" type="curve"/>
      <point x="1170" y="1380"/>
      <point x="1010" y="1502"/>
      <point x="720" y="1502" type="curve"/>
      <point x="616" y="1502"/>
      <point x="530" y="1486"/>
      <point x="422" y="1486" type="curve"/>
      <point x="200" y="1486" type="line"/>
      <point x="195" y="1450" type="line"/>
      <point x="331" y="1420" type="line"/>
      <point x="145" y="67" type="line"/>
    </contour>
    <contour>
      <point x="748" y="1486" type="move" name="top"/>
    </contour>
  </outline>
</glyph>
<glyph name="Q" format="1">
  <advance width="1313"/>
  <unicode hex="0051"/>
  <outline>
    <contour>
      <point x="888" y="-349" type="curve"/>
      <point x="1002" y="-349"/>
      <point x="1117" y="-303"/>
      <point x="1165" y="-265" type="curve"/>
      <point x="1163" y="-161" type="line"/>
      <point x="1105" y="-189"/>
      <point x="1008" y="-210"/>
      <point x="941" y="-210" type="curve"/>
      <point x="792" y="-210"/>
      <point x="650" y="-181"/>
      <point x="648" y="-13" type="curve"/>
      <point x="610" y="-18" type="line"/>
      <point x="543" y="-231"/>
      <point x="665" y="-349"/>
    </contour>
    <component base="O" xOffset="9"/>
  </outline>
</glyph>
<glyph name="R" format="1">
  <advance width="1268"/>
  <unicode hex="0052"/>
  <outline>
    <contour>
      <point x="-1" y="36" type="line"/>
      <point x="-6" y="0" type="line"/>
      <point x="496" y="0" type="line"/>
      <point x="501" y="36" type="line"/>
      <point x="300" y="67" type="line"/>
      <point x="490" y="1446" type="line"/>
      <point x="449" y="1422" type="line"/>
      <point x="513" y="1432"/>
      <point x="634" y="1448"/>
      <point x="694" y="1448" type="curve"/>
      <point x="906" y="1448"/>
      <point x="1002" y="1341"/>
      <point x="1002" y="1159" type="curve"/>
      <point x="1002" y="966"/>
      <point x="867" y="776"/>
      <point x="637" y="764" type="curve"/>
      <point x="599" y="762"/>
      <point x="431" y="764"/>
      <point x="381" y="766" type="curve"/>
      <point x="369" y="712" type="line"/>
      <point x="425" y="710"/>
      <point x="591" y="712"/>
      <point x="607" y="712" type="curve"/>
      <point x="695" y="712"/>
      <point x="775" y="450"/>
      <point x="890" y="145" type="curve"/>
      <point x="928" y="46"/>
      <point x="965" y="0"/>
      <point x="997" y="0" type="curve"/>
      <point x="1191" y="0" type="line"/>
      <point x="1197" y="36" type="line"/>
      <point x="1099" y="36"/>
      <point x="1075" y="102"/>
      <point x="991" y="332" type="curve"/>
      <point x="949" y="448"/>
      <point x="839" y="745"/>
      <point x="696" y="732" type="curve"/>
      <point x="682" y="715" type="line"/>
      <point x="990" y="774"/>
      <point x="1165" y="941"/>
      <point x="1165" y="1168" type="curve"/>
      <point x="1165" y="1393"/>
      <point x="1021" y="1502"/>
      <point x="695" y="1502" type="curve"/>
      <point x="607" y="1502"/>
      <point x="521" y="1486"/>
      <point x="437" y="1486" type="curve"/>
      <point x="200" y="1486" type="line"/>
      <point x="195" y="1450" type="line"/>
      <point x="331" y="1420" type="line"/>
      <point x="145" y="67" type="line"/>
    </contour>
    <contour>
      <point x="706" y="0" type="move" name="bottom"/>
    </contour>
    <contour>
      <point x="703" y="1486" type="move" name="top"/>
    </contour>
  </outline>
</glyph>
<glyph name="T" format="1">
  <advance width="1247"/>
  <unicode hex="0054"/>
  <outline>
    <contour>
      <point x="1273" y="1486" type="line"/>
      <point x="211" y="1486" type="line"/>
      <point x="120" y="1062" type="line"/>
      <point x="182" y="1064" type="line"/>
      <point x="318" y="1405" type="line"/>
      <point x="650" y="1421" type="line"/>
      <point x="464" y="67" type="line"/>
      <point x="257" y="36" type="line"/>
      <point x="252" y="0" type="line"/>
      <point x="824" y="0" type="line"/>
      <point x="829" y="36" type="line"/>
      <point x="620" y="67" type="line"/>
      <point x="806" y="1421" type="line"/>
      <point x="1150" y="1405" type="line"/>
      <point x="1178" y="1060" type="line"/>
      <point x="1238" y="1062" type="line"/>
    </contour>
    <contour>
      <point x="550" y="0" type="move" name="bottom"/>
    </contour>
    <contour>
      <point x="742" y="1486" type="move" name="top"/>
    </contour>
  </outline>
</glyph>
<glyph name="U" format="1">
  <advance width="1347"/>
  <unicode hex="0055"/>
  <outline>
    <contour>
      <point x="1171" y="612" type="curve"/>
      <point x="1280" y="1420" type="line"/>
      <point x="1412" y="1450" type="line"/>
      <point x="1417" y="1486" type="line"/>
      <point x="1048" y="1486" type="line"/>
      <point x="1043" y="1450" type="line"/>
      <point x="1187" y="1420" type="line"/>
      <point x="1095" y="612" type="line" smooth="yes"/>
      <point x="1050" y="218"/>
      <point x="878" y="55"/>
      <point x="639" y="55" type="curve"/>
      <point x="401" y="55"/>
      <point x="313" y="213"/>
      <point x="313" y="438" type="curve"/>
      <point x="313" y="487"/>
      <point x="317" y="539"/>
      <point x="324" y="593" type="curve"/>
      <point x="436" y="1420" type="line"/>
      <point x="572" y="1450" type="line"/>
      <point x="577" y="1486" type="line"/>
      <point x="149" y="1486" type="line"/>
      <point x="144" y="1450" type="line"/>
      <point x="280" y="1420" type="line"/>
      <point x="166" y="580" type="line" smooth="yes"/>
      <point x="160" y="536"/>
      <point x="158" y="493"/>
      <point x="158" y="452" type="curve"/>
      <point x="158" y="163"/>
      <point x="298" y="-20"/>
      <point x="614" y="-20" type="curve"/>
      <point x="930" y="-20"/>
      <point x="1112" y="173"/>
    </contour>
    <contour>
      <point x="616" y="0" type="move" name="bottom"/>
    </contour>
    <contour>
      <point x="790" y="20" type="move" name="ogonek"/>
    </contour>
    <contour>
      <point x="800" y="1486" type="move" name="top"/>
    </contour>
    <contour>
      <point x="1242" y="1486" type="move" name="topright"/>
    </contour>
  </outline>
</glyph>
<glyph name="V" format="1">
  <advance width="1204"/>
  <unicode hex="0056"/>
  <outline>
    <contour>
      <point x="184" y="1424" type="line"/>
      <point x="438" y="-19" type="line"/>
      <point x="563" y="-11" type="line"/>
      <point x="1227" y="1428" type="line"/>
      <point x="1343" y="1450" type="line"/>
      <point x="1348" y="1486" type="line"/>
      <point x="952" y="1486" type="line"/>
      <point x="948" y="1450" type="line"/>
      <point x="1126" y="1426" type="line"/>
      <point x="622" y="285" type="line"/>
      <point x="520" y="54" type="line"/>
      <point x="557" y="48" type="line"/>
      <point x="533" y="240" type="line"/>
      <point x="342" y="1420" type="line"/>
      <point x="521" y="1450" type="line"/>
      <point x="529" y="1486" type="line"/>
      <point x="76" y="1486" type="line"/>
      <point x="72" y="1450" type="line"/>
    </contour>
    <contour>
      <point x="779" y="1660" type="move" name="top"/>
    </contour>
  </outline>
</glyph>
<glyph name="W" format="1">
  <advance width="1791"/>
  <unicode hex="0057"/>
  <outline>
    <contour>
      <point x="190" y="1424" type="line"/>
      <point x="401" y="-19" type="line"/>
      <point x="533" y="-11" type="line"/>
      <point x="1068" y="1269" type="line"/>
      <point x="973" y="1267" type="line"/>
      <point x="582" y="285" type="line"/>
      <point x="490" y="54" type="line"/>
      <point x="529" y="48" type="line"/>
      <point x="502" y="282" type="line"/>
      <point x="348" y="1420" type="line"/>
      <point x="527" y="1450" type="line"/>
      <point x="535" y="1486" type="line"/>
      <point x="82" y="1486" type="line"/>
      <point x="78" y="1450" type="line"/>
    </contour>
    <contour>
      <point x="910" y="1424" type="line"/>
      <point x="1104" y="-19" type="line"/>
      <point x="1229" y="-11" type="line"/>
      <point x="1843" y="1428" type="line"/>
      <point x="1959" y="1450" type="line"/>
      <point x="1964" y="1486" type="line"/>
      <point x="1568" y="1486" type="line"/>
      <point x="1564" y="1450" type="line"/>
      <point x="1742" y="1426" type="line"/>
      <point x="1278" y="285" type="line"/>
      <point x="1186" y="54" type="line"/>
      <point x="1223" y="48" type="line"/>
      <point x="1203" y="247" type="line"/>
      <point x="1068" y="1420" type="line"/>
      <point x="1232" y="1450" type="line"/>
      <point x="1240" y="1486" type="line"/>
      <point x="787" y="1486" type="line"/>
      <point x="783" y="1450" type="line"/>
    </contour>
    <contour>
      <point x="809" y="0" type="move" name="bottom"/>
    </contour>
    <contour>
      <point x="1014" y="1486" type="move" name="top"/>
    </contour>
  </outline>
</glyph>
<glyph name="X" format="1">
  <advance width="1248"/>
  <unicode hex="0058"/>
  <outline>
    <contour>
      <point x="-63" y="36" type="line"/>
      <point x="-66" y="0" type="line"/>
      <point x="346" y="0" type="line"/>
      <point x="351" y="36" type="line"/>
      <point x="188" y="65" type="line"/>
      <point x="637" y="714" type="line"/>
      <point x="673" y="732" type="line"/>
      <point x="1203" y="1424" type="line"/>
      <point x="1342" y="1450" type="line"/>
      <point x="1345" y="1486" type="line"/>
      <point x="933" y="1486" type="line"/>
      <point x="928" y="1450" type="line"/>
      <point x="1088" y="1421" type="line"/>
      <point x="662" y="820" type="line"/>
      <point x="622" y="803" type="line"/>
      <point x="73" y="62" type="line"/>
    </contour>
    <contour>
      <point x="688" y="36" type="line"/>
      <point x="683" y="0" type="line"/>
      <point x="1161" y="0" type="line"/>
      <point x="1166" y="36" type="line"/>
      <point x="1024" y="65" type="line"/>
      <point x="696" y="784" type="line"/>
      <point x="679" y="813" type="line"/>
      <point x="427" y="1424" type="line"/>
      <point x="595" y="1450" type="line"/>
      <point x="600" y="1486" type="line"/>
      <point x="128" y="1486" type="line"/>
      <point x="123" y="1450" type="line"/>
      <point x="259" y="1421" type="line"/>
      <point x="582" y="707" type="line"/>
      <point x="593" y="688" type="line"/>
      <point x="852" y="62" type="line"/>
    </contour>
    <contour>
      <point x="542" y="0" type="move" name="bottom"/>
    </contour>
    <contour>
      <point x="767" y="1660" type="move" name="top"/>
    </contour>
  </outline>
</glyph>
<glyph name="Y" format="1">
  <advance width="1101"/>
  <unicode hex="0059"/>
  <outline>
    <contour>
      <point x="212" y="36" type="line"/>
      <point x="207" y="0" type="line"/>
      <point x="779" y="0" type="line"/>
      <point x="784" y="36" type="line"/>
      <point x="573" y="69" type="line"/>
      <point x="653" y="652" type="line"/>
      <point x="587" y="510" type="line"/>
      <point x="1142" y="1432" type="line"/>
      <point x="1256" y="1450" type="line"/>
      <point x="1260" y="1486" type="line"/>
      <point x="892" y="1486" type="line"/>
      <point x="887" y="1450" type="line"/>
      <point x="1037" y="1430" type="line"/>
      <point x="676" y="805" type="line"/>
      <point x="568" y="612" type="line"/>
      <point x="619" y="605" type="line"/>
      <point x="559" y="807" type="line"/>
      <point x="338" y="1430" type="line"/>
      <point x="506" y="1450" type="line"/>
      <point x="511" y="1486" type="line"/>
      <point x="77" y="1486" type="line"/>
      <point x="72" y="1450" type="line"/>
      <point x="169" y="1430" type="line"/>
      <point x="518" y="504" type="line"/>
      <point x="496" y="646" type="line"/>
      <point x="417" y="67" type="line"/>
    </contour>
    <contour>
      <point x="494" y="0" type="move" name="bottom"/>
    </contour>
    <contour>
      <point x="469" y="-166" type="move" name="btm"/>
    </contour>
    <contour>
      <point x="672" y="1486" type="move" name="top"/>
    </contour>
    <contour>
      <point x="123" y="1486" type="move" name="topleft"/>
    </contour>
  </outline>
</glyph>
<glyph name="Z" format="1">
  <advance width="1182"/>
  <unicode hex="005A"/>
  <outline>
    <contour>
      <point x="1198" y="1486" type="line"/>
      <point x="271" y="1486" type="line"/>
      <point x="214" y="1147" type="line"/>
      <point x="272" y="1138" type="line"/>
      <point x="383" y="1406" type="line"/>
      <point x="1032" y="1430" type="line"/>
      <point x="841" y="1193" type="line"/>
      <point x="-15" y="33" type="line"/>
      <point x="1" y="0" type="line"/>
      <point x="1003" y="0" type="line"/>
      <point x="1094" y="357" type="line"/>
      <point x="1027" y="376" type="line"/>
      <point x="904" y="107" type="line"/>
      <point x="162" y="61" type="line"/>
      <point x="334" y="266" type="line"/>
      <point x="1211" y="1455" type="line"/>
    </contour>
    <contour>
      <point x="544" y="0" type="move" name="bottom"/>
    </contour>
    <contour>
      <point x="717" y="1486" type="move" name="top"/>
    </contour>
  </outline>
</glyph>
<glyph name="asciicircum" format="1">
  <advance width="1332"/>
  <unicode hex="005E"/>
  <outline>
    <contour>
      <point x="741" y="1496" type="line"/>
      <point x="585" y="1496" type="line"/>
      <point x="180" y="404" type="line"/>
      <point x="304" y="404" type="line"/>
      <point x="664" y="1321" type="line"/>
      <point x="1024" y="404" type="line"/>
      <point x="1150" y="404" type="line"/>
    </contour>
  </outline>
</glyph>
<glyph name="underscore" format="1">
  <advance width="1304"/>
  <unicode hex="005F"/>
  <outline>
    <contour>
      <point x="1203" y="-357" type="line"/>
      <point x="1220" y="-244" type="line"/>
      <point x="-125" y="-244" type="line"/>
      <point x="-143" y="-357" type="line"/>
    </contour>
  </outline>
</glyph>
<glyph name="a" format="1">
  <advance width="983"/>
  <unicode hex="0061"/>
  <outline>
    <contour>
      <point x="776" y="141" type="curve"/>
      <point x="916" y="1025" type="line"/>
      <point x="819" y="983" type="line"/>
      <point x="776" y="1003"/>
      <point x="715" y="1025"/>
      <point x="627" y="1025" type="curve"/>
      <point x="292" y="1025"/>
      <point x="59" y="688"/>
      <point x="59" y="318" type="curve"/>
      <point x="59" y="133"/>
      <point x="149" y="-21"/>
      <point x="340" y="-21" type="curve"/>
      <point x="438" y="-21"/>
      <point x="595" y="96"/>
      <point x="649" y="248" type="curve"/>
      <point x="628" y="130" type="line"/>
      <point x="614" y="33"/>
      <point x="657" y="-21"/>
      <point x="736" y="-21" type="curve"/>
      <point x="836" y="-21"/>
      <point x="904" y="55"/>
      <point x="927" y="94" type="curve"/>
      <point x="909" y="124" type="line"/>
      <point x="875" y="80"/>
      <point x="834" y="58"/>
      <point x="810" y="58" type="curve"/>
      <point x="779" y="58"/>
      <point x="766" y="80"/>
    </contour>
    <contour>
      <point x="756" y="904" type="curve"/>
      <point x="664" y="374" type="line"/>
      <point x="619" y="171"/>
      <point x="457" y="43"/>
      <point x="363" y="43" type="curve"/>
      <point x="260" y="43"/>
      <point x="209" y="161"/>
      <point x="209" y="311" type="curve"/>
      <point x="209" y="638"/>
      <point x="378" y="983"/>
      <point x="625" y="983" type="curve"/>
      <point x="691" y="983"/>
      <point x="736" y="953"/>
    </contour>
    <contour>
      <point x="424" y="0" type="move" name="bottom"/>
    </contour>
    <contour>
      <point x="1020" y="1622" type="move" name="caron"/>
    </contour>
    <contour>
      <point x="892" y="20" type="move" name="ogonek"/>
    </contour>
    <contour>
      <point x="659" y="1108" type="move" name="top"/>
    </contour>
  </outline>
</glyph>
<glyph name="c" format="1">
  <advance width="818"/>
  <unicode hex="0063"/>
  <outline>
    <contour>
      <point x="736" y="773" type="curve"/>
      <point x="759" y="773" type="line"/>
      <point x="820" y="985" type="line"/>
      <point x="762" y="1016"/>
      <point x="680" y="1031"/>
      <point x="614" y="1031" type="curve"/>
      <point x="290" y="1031"/>
      <point x="67" y="678"/>
      <point x="67" y="375" type="curve"/>
      <point x="67" y="122"/>
      <point x="174" y="-21"/>
      <point x="404" y="-21" type="curve"/>
      <point x="526" y="-21"/>
      <point x="648" y="49"/>
      <point x="726" y="147" type="curve"/>
      <point x="710" y="185" type="line"/>
      <point x="617" y="94"/>
      <point x="528" y="45"/>
      <point x="423" y="45" type="curve"/>
      <point x="268" y="45"/>
      <point x="228" y="203"/>
      <point x="228" y="368" type="curve"/>
      <point x="228" y="693"/>
      <point x="412" y="988"/>
      <point x="596" y="988" type="curve"/>
      <point x="678" y="988"/>
      <point x="691" y="957"/>
    </contour>
    <contour>
      <point x="437" y="0" type="move" name="bottom"/>
    </contour>
    <contour>
      <point x="617" y="1110" type="move" name="top"/>
    </contour>
  </outline>
</glyph>
<glyph name="d" format="1">
  <advance width="1025"/>
  <unicode hex="0064"/>
  <outline>
    <contour>
      <point x="824" y="141" type="curve"/>
      <point x="1045" y="1618" type="line"/>
      <point x="1026" y="1634" type="line"/>
      <point x="750" y="1597" type="line"/>
      <point x="745" y="1571" type="line"/>
      <point x="893" y="1548" type="line"/>
      <point x="813" y="1010" type="line"/>
      <point x="772" y="1025"/>
      <point x="719" y="1035"/>
      <point x="657" y="1035" type="curve"/>
      <point x="290" y="1035"/>
      <point x="62" y="678"/>
      <point x="62" y="355" type="curve"/>
      <point x="62" y="131"/>
      <point x="155" y="-21"/>
      <point x="356" y="-21" type="curve"/>
      <point x="479" y="-21"/>
      <point x="647" y="97"/>
      <point x="701" y="249" type="curve"/>
      <point x="681" y="132" type="line" smooth="yes"/>
      <point x="666" y="42"/>
      <point x="696" y="-21"/>
      <point x="782" y="-21" type="curve"/>
      <point x="869" y="-21"/>
      <point x="936" y="38"/>
      <point x="969" y="94" type="curve"/>
      <point x="952" y="124" type="line"/>
      <point x="915" y="78"/>
      <point x="878" y="58"/>
      <point x="852" y="58" type="curve"/>
      <point x="817" y="58"/>
      <point x="819" y="94"/>
    </contour>
    <contour>
      <point x="798" y="908" type="curve"/>
      <point x="718" y="379" type="line"/>
      <point x="673" y="175"/>
      <point x="507" y="43"/>
      <point x="377" y="43" type="curve"/>
      <point x="275" y="43"/>
      <point x="213" y="145"/>
      <point x="213" y="340" type="curve"/>
      <point x="213" y="622"/>
      <point x="378" y="993"/>
      <point x="655" y="993" type="curve"/>
      <point x="736" y="993"/>
      <point x="777" y="958"/>
    </contour>
    <contour>
      <point x="433" y="0" type="move" name="bottom"/>
    </contour>
    <contour>
      <point x="1084" y="1622" type="move" name="caron"/>
    </contour>
    <contour>
      <point x="372" y="1110" type="move" name="top"/>
    </contour>
  </outline>
</glyph>
<glyph name="e" format="1">
  <advance width="880"/>
  <unicode hex="0065"/>
  <outline>
    <contour>
      <point x="774" y="157" type="curve"/>
      <point x="755" y="195" type="line"/>
      <point x="667" y="102"/>
      <point x="570" y="51"/>
      <point x="455" y="51" type="curve"/>
      <point x="272" y="51"/>
      <point x="216" y="246"/>
      <point x="227" y="441" type="curve"/>
      <point x="593" y="449"/>
      <point x="841" y="591"/>
      <point x="841" y="834" type="curve"/>
      <point x="841" y="955"/>
      <point x="755" y="1031"/>
      <point x="609" y="1031" type="curve"/>
      <point x="292" y="1031"/>
      <point x="67" y="711"/>
      <point x="67" y="372" type="curve"/>
      <point x="67" y="138"/>
      <point x="188" y="-19"/>
      <point x="425" y="-19" type="curve"/>
      <point x="571" y="-19"/>
      <point x="706" y="66"/>
    </contour>
    <contour>
      <point x="598" y="990" type="curve"/>
      <point x="670" y="990"/>
      <point x="698" y="943"/>
      <point x="698" y="876" type="curve"/>
      <point x="698" y="698"/>
      <point x="557" y="501"/>
      <point x="228" y="470" type="curve"/>
      <point x="259" y="771"/>
      <point x="420" y="990"/>
    </contour>
    <contour>
      <point x="440" y="0" type="move" name="bottom"/>
    </contour>
    <contour>
      <point x="726" y="80" type="move" name="ogonek"/>
    </contour>
    <contour>
      <point x="622" y="1108" type="move" name="top"/>
    </contour>
  </outline>
</glyph>
<glyph name="g" format="1">
  <advance width="1024"/>
  <unicode hex="0067"/>
  <outline>
    <contour>
      <point x="787" y="-111" type="curve"/>
      <point x="958" y="1025" type="line"/>
      <point x="861" y="983" type="line"/>
      <point x="805" y="1009"/>
      <point x="748" y="1025"/>
      <point x="667" y="1025" type="curve"/>
      <point x="274" y="1025"/>
      <point x="62" y="658"/>
      <point x="62" y="356" type="curve"/>
      <point x="62" y="117"/>
      <point x="164" y="-21"/>
      <point x="359" y="-21" type="curve"/>
      <point x="481" y="-21"/>
      <point x="648" y="96"/>
      <point x="701" y="250" type="curve"/>
      <point x="650" y="-78" type="line" smooth="yes"/>
      <point x="609" y="-343"/>
      <point x="512" y="-460"/>
      <point x="346" y="-460" type="curve"/>
      <point x="248" y="-460"/>
      <point x="154" y="-387"/>
      <point x="108" y="-331" type="curve"/>
      <point x="56" y="-445" type="line"/>
      <point x="132" y="-488"/>
      <point x="234" y="-503"/>
      <point x="338" y="-503" type="curve"/>
      <point x="615" y="-503"/>
      <point x="753" y="-340"/>
    </contour>
    <contour>
      <point x="798" y="906" type="curve"/>
      <point x="718" y="373" type="line"/>
      <point x="670" y="183"/>
      <point x="516" y="43"/>
      <point x="377" y="43" type="curve"/>
      <point x="281" y="43"/>
      <point x="213" y="136"/>
      <point x="213" y="340" type="curve"/>
      <point x="213" y="632"/>
      <point x="380" y="983"/>
      <point x="667" y="983" type="curve"/>
      <point x="733" y="983"/>
      <point x="778" y="952"/>
    </contour>
    <contour>
      <point x="441" y="0" type="move" name="bottom"/>
    </contour>
    <contour>
      <point x="653" y="1108" type="move" name="top"/>
    </contour>
  </outline>
</glyph>
<glyph name="l" format="1">
  <advance width="430"/>
  <unicode hex="006C"/>
  <outline>
    <contour>
      <point x="225" y="116" type="curve"/>
      <point x="448" y="1618" type="line"/>
      <point x="429" y="1634" type="line"/>
      <point x="163" y="1597" type="line"/>
      <point x="158" y="1571" type="line"/>
      <point x="298" y="1547" type="line"/>
      <point x="99" y="214" type="line" smooth="yes"/>
      <point x="91" y="162"/>
      <point x="85" y="115"/>
      <point x="85" y="96" type="curve"/>
      <point x="85" y="9"/>
      <point x="128" y="-21"/>
      <point x="192" y="-21" type="curve"/>
      <point x="274" y="-21"/>
      <point x="340" y="29"/>
      <point x="383" y="96" type="curve"/>
      <point x="366" y="126" type="line"/>
      <point x="326" y="78"/>
      <point x="293" y="60"/>
      <point x="267" y="60" type="curve"/>
      <point x="240" y="60"/>
      <point x="225" y="77"/>
    </contour>
    <contour>
      <point x="196" y="0" type="move" name="bottom"/>
    </contour>
    <contour>
      <point x="527" y="1532" type="move" name="caron"/>
    </contour>
    <contour>
      <point x="352" y="1561" type="move" name="top"/>
    </contour>
  </outline>
</glyph>
<glyph name="m" format="1">
  <advance width="1621"/>
  <unicode hex="006D"/>
  <outline>
    <contour>
      <point x="303" y="616" type="curve"/>
      <point x="358" y="1005" type="line"/>
      <point x="327" y="1025" type="line"/>
      <point x="83" y="979" type="line"/>
      <point x="79" y="954" type="line"/>
      <point x="206" y="923" type="line"/>
      <point x="69" y="0" type="line"/>
      <point x="210" y="0" type="line"/>
      <point x="283" y="486" type="line"/>
      <point x="356" y="734"/>
      <point x="557" y="943"/>
      <point x="679" y="943" type="curve"/>
      <point x="750" y="943"/>
      <point x="777" y="904"/>
      <point x="777" y="823" type="curve"/>
      <point x="777" y="763"/>
      <point x="754" y="613"/>
      <point x="731" y="470" type="curve"/>
      <point x="656" y="0" type="line"/>
      <point x="803" y="0" type="line"/>
      <point x="860" y="366" type="line"/>
      <point x="868" y="418"/>
      <point x="881" y="494"/>
      <point x="889" y="546" type="curve"/>
      <point x="853" y="424" type="line"/>
      <point x="953" y="758"/>
      <point x="1161" y="943"/>
      <point x="1275" y="943" type="curve"/>
      <point x="1347" y="943"/>
      <point x="1373" y="904"/>
      <point x="1373" y="823" type="curve"/>
      <point x="1373" y="754"/>
      <point x="1352" y="613"/>
      <point x="1327" y="470" type="curve"/>
      <point x="1299" y="308"/>
      <point x="1272" y="143"/>
      <point x="1272" y="91" type="curve"/>
      <point x="1272" y="9"/>
      <point x="1315" y="-21"/>
      <point x="1374" y="-21" type="curve"/>
      <point x="1463" y="-21"/>
      <point x="1529" y="29"/>
      <point x="1572" y="96" type="curve"/>
      <point x="1555" y="126" type="line"/>
      <point x="1515" y="78"/>
      <point x="1482" y="60"/>
      <point x="1456" y="60" type="curve"/>
      <point x="1428" y="60"/>
      <point x="1421" y="77"/>
      <point x="1421" y="116" type="curve"/>
      <point x="1421" y="169"/>
      <point x="1446" y="309"/>
      <point x="1470" y="452" type="curve"/>
      <point x="1496" y="607"/>
      <point x="1520" y="766"/>
      <point x="1520" y="828" type="curve"/>
      <point x="1520" y="960"/>
      <point x="1457" y="1031"/>
      <point x="1339" y="1031" type="curve"/>
      <point x="1167" y="1031"/>
      <point x="989" y="856"/>
      <point x="876" y="554" type="curve"/>
      <point x="893" y="568" type="line"/>
      <point x="910" y="690"/>
      <point x="924" y="789"/>
      <point x="924" y="828" type="curve"/>
      <point x="924" y="960"/>
      <point x="862" y="1031"/>
      <point x="744" y="1031" type="curve"/>
      <point x="570" y="1031"/>
      <point x="412" y="864"/>
    </contour>
    <contour>
      <point x="730" y="0" type="move" name="bottom"/>
    </contour>
    <contour>
      <point x="977" y="1110" type="move" name="top"/>
    </contour>
  </outline>
</glyph>
<glyph name="n" format="1">
  <advance width="1025"/>
  <unicode hex="006E"/>
  <outline>
    <contour>
      <point x="303" y="616" type="curve"/>
      <point x="359" y="1005" type="line"/>
      <point x="328" y="1025" type="line"/>
      <point x="83" y="979" type="line"/>
      <point x="79" y="954" type="line"/>
      <point x="206" y="923" type="line"/>
      <point x="69" y="0" type="line"/>
      <point x="211" y="0" type="line"/>
      <point x="283" y="487" type="line"/>
      <point x="355" y="734"/>
      <point x="556" y="943"/>
      <point x="679" y="943" type="curve"/>
      <point x="751" y="943"/>
      <point x="777" y="904"/>
      <point x="777" y="823" type="curve"/>
      <point x="777" y="754"/>
      <point x="756" y="613"/>
      <point x="731" y="470" type="curve"/>
      <point x="703" y="308"/>
      <point x="676" y="143"/>
      <point x="676" y="91" type="curve"/>
      <point x="676" y="9"/>
      <point x="719" y="-21"/>
      <point x="778" y="-21" type="curve"/>
      <point x="867" y="-21"/>
      <point x="933" y="29"/>
      <point x="976" y="96" type="curve"/>
      <point x="959" y="126" type="line"/>
      <point x="919" y="78"/>
      <point x="886" y="60"/>
      <point x="860" y="60" type="curve"/>
      <point x="832" y="60"/>
      <point x="825" y="77"/>
      <point x="825" y="116" type="curve"/>
      <point x="825" y="169"/>
      <point x="850" y="309"/>
      <point x="874" y="452" type="curve"/>
      <point x="900" y="607"/>
      <point x="924" y="766"/>
      <point x="924" y="828" type="curve"/>
      <point x="924" y="960"/>
      <point x="859" y="1031"/>
      <point x="741" y="1031" type="curve"/>
      <point x="570" y="1031"/>
      <point x="412" y="861"/>
    </contour>
    <contour>
      <point x="495" y="0" type="move" name="bottom"/>
    </contour>
    <contour>
      <point x="595" y="1110" type="move" name="top"/>
    </contour>
  </outline>
</glyph>
<glyph name="o" format="1">
  <advance width="968"/>
  <unicode hex="006F"/>
  <outline>
    <contour>
      <point x="568" y="1031" type="curve"/>
      <point x="262" y="1031"/>
      <point x="42" y="714"/>
      <point x="42" y="393" type="curve"/>
      <point x="42" y="142"/>
      <point x="171" y="-20"/>
      <point x="410" y="-20" type="curve"/>
      <point x="729" y="-20"/>
      <point x="937" y="304"/>
      <point x="937" y="622" type="curve"/>
      <point x="937" y="876"/>
      <point x="802" y="1031"/>
    </contour>
    <contour>
      <point x="571" y="987" type="curve"/>
      <point x="726" y="987"/>
      <point x="777" y="818"/>
      <point x="777" y="643" type="curve"/>
      <point x="777" y="361"/>
      <point x="635" y="24"/>
      <point x="410" y="24" type="curve"/>
      <point x="296" y="24"/>
      <point x="202" y="122"/>
      <point x="202" y="358" type="curve"/>
      <point x="202" y="648"/>
      <point x="343" y="987"/>
    </contour>
    <contour>
      <point x="444" y="-2" type="move" name="bottom"/>
    </contour>
    <contour>
      <point x="526" y="555" type="move" name="center"/>
    </contour>
    <contour>
      <point x="548" y="20" type="move" name="ogonek"/>
    </contour>
    <contour>
      <point x="600" y="1111" type="move" name="top"/>
    </contour>
    <contour>
      <point x="800" y="1113" type="move" name="topright"/>
    </contour>
  </outline>
</glyph>
<glyph name="p" format="1">
  <advance width="1005"/>
  <unicode hex="0070"/>
  <outline>
    <contour>
      <point x="324" y="771" type="curve"/>
      <point x="359" y="1005" type="line"/>
      <point x="327" y="1025" type="line"/>
      <point x="83" y="979" type="line"/>
      <point x="79" y="954" type="line"/>
      <point x="206" y="923" type="line"/>
      <point x="-6" y="-506" type="line"/>
      <point x="135" y="-506" type="line"/>
      <point x="210" y="5" type="line"/>
      <point x="257" y="-10"/>
      <point x="311" y="-19"/>
      <point x="367" y="-19" type="curve"/>
      <point x="734" y="-19"/>
      <point x="961" y="338"/>
      <point x="961" y="668" type="curve"/>
      <point x="961" y="888"/>
      <point x="875" y="1037"/>
      <point x="665" y="1037" type="curve"/>
      <point x="534" y="1037"/>
      <point x="396" y="939"/>
    </contour>
    <contour>
      <point x="226" y="108" type="curve"/>
      <point x="305" y="644" type="line"/>
      <point x="355" y="843"/>
      <point x="519" y="973"/>
      <point x="637" y="973" type="curve"/>
      <point x="749" y="973"/>
      <point x="811" y="868"/>
      <point x="811" y="687" type="curve"/>
      <point x="811" y="394"/>
      <point x="647" y="23"/>
      <point x="369" y="23" type="curve"/>
      <point x="291" y="23"/>
      <point x="246" y="60"/>
    </contour>
    <contour>
      <point x="659" y="1110" type="move" name="top"/>
    </contour>
  </outline>
</glyph>
<glyph name="r" format="1">
  <advance width="692"/>
  <unicode hex="0072"/>
  <outline>
    <contour>
      <point x="309" y="691" type="curve"/>
      <point x="330" y="846" type="line"/>
      <point x="354" y="1005" type="line"/>
      <point x="320" y="1025" type="line"/>
      <point x="83" y="979" type="line"/>
      <point x="79" y="954" type="line"/>
      <point x="206" y="923" type="line"/>
      <point x="70" y="0" type="line"/>
      <point x="211" y="0" type="line"/>
      <point x="304" y="623" type="line"/>
      <point x="355" y="759"/>
      <point x="456" y="871"/>
      <point x="603" y="871" type="curve"/>
      <point x="630" y="871"/>
      <point x="650" y="868"/>
      <point x="674" y="862" type="curve"/>
      <point x="706" y="1004" type="line"/>
      <point x="691" y="1011"/>
      <point x="667" y="1020"/>
      <point x="620" y="1020" type="curve"/>
      <point x="487" y="1020"/>
      <point x="381" y="883"/>
    </contour>
    <contour>
      <point x="148" y="0" type="move" name="bottom"/>
    </contour>
    <contour>
      <point x="447" y="1110" type="move" name="top"/>
    </contour>
  </outline>
</glyph>
<glyph name="t" format="1">
  <advance width="571"/>
  <unicode hex="0074"/>
  <outline>
    <contour>
      <point x="288" y="339" type="curve"/>
      <point x="364" y="917" type="line"/>
      <point x="584" y="917" type="line"/>
      <point x="596" y="1005" type="line"/>
      <point x="377" y="1005" type="line"/>
      <point x="419" y="1298" type="line"/>
      <point x="360" y="1298" type="line"/>
      <point x="336" y="1222"/>
      <point x="282" y="1045"/>
      <point x="250" y="1003" type="curve"/>
      <point x="90" y="941" type="line"/>
      <point x="85" y="917" type="line"/>
      <point x="235" y="917" type="line"/>
      <point x="161" y="388" type="line" smooth="yes"/>
      <point x="146" y="280"/>
      <point x="127" y="160"/>
      <point x="127" y="110" type="curve"/>
      <point x="127" y="14"/>
      <point x="177" y="-20"/>
      <point x="277" y="-20" type="curve"/>
      <point x="330" y="-20"/>
      <point x="449" y="8"/>
      <point x="532" y="108" type="curve"/>
      <point x="518" y="143" type="line"/>
      <point x="457" y="88"/>
      <point x="374" y="59"/>
      <point x="330" y="59" type="curve"/>
      <point x="294" y="59"/>
      <point x="263" y="78"/>
      <point x="263" y="124" type="curve"/>
      <point x="263" y="175"/>
      <point x="272" y="218"/>
    </contour>
    <contour>
      <point x="220" y="0" type="move" name="bottom"/>
    </contour>
    <contour>
      <point x="448" y="1110" type="move" name="car"/>
    </contour>
    <contour>
      <point x="373" y="1271" type="move" name="top"/>
    </contour>
  </outline>
</glyph>
<glyph name="u" format="1">
  <advance width="1005"/>
  <unicode hex="0075"/>
  <outline>
    <contour>
      <point x="291" y="540" type="curve"/>
      <point x="363" y="1005" type="line"/>
      <point x="332" y="1025" type="line"/>
      <point x="88" y="979" type="line"/>
      <point x="84" y="954" type="line"/>
      <point x="211" y="923" type="line"/>
      <point x="154" y="558" type="line" smooth="yes"/>
      <point x="148" y="522"/>
      <point x="101" y="227"/>
      <point x="101" y="172" type="curve"/>
      <point x="101" y="50"/>
      <point x="160" y="-21"/>
      <point x="270" y="-21" type="curve"/>
      <point x="454" y="-21"/>
      <point x="596" y="160"/>
      <point x="702" y="403" type="curve"/>
      <point x="704" y="403" type="line"/>
      <point x="691" y="318"/>
      <point x="658" y="108"/>
      <point x="658" y="88" type="curve"/>
      <point x="658" y="42"/>
      <point x="674" y="-21"/>
      <point x="762" y="-21" type="curve"/>
      <point x="849" y="-21"/>
      <point x="916" y="38"/>
      <point x="949" y="94" type="curve"/>
      <point x="932" y="124" type="line"/>
      <point x="896" y="78"/>
      <point x="858" y="58"/>
      <point x="832" y="58" type="curve"/>
      <point x="797" y="58"/>
      <point x="799" y="94"/>
      <point x="804" y="141" type="curve"/>
      <point x="932" y="1005" type="line"/>
      <point x="792" y="1005" type="line"/>
      <point x="720" y="527" type="line"/>
      <point x="617" y="248"/>
      <point x="454" y="67"/>
      <point x="335" y="67" type="curve"/>
      <point x="271" y="67"/>
      <point x="245" y="106"/>
      <point x="245" y="187" type="curve"/>
      <point x="245" y="244"/>
      <point x="279" y="464"/>
    </contour>
    <contour>
      <point x="400" y="0" type="move" name="bottom"/>
    </contour>
    <contour>
      <point x="836" y="20" type="move" name="ogonek"/>
    </contour>
    <contour>
      <point x="548" y="1110" type="move" name="top"/>
    </contour>
    <contour>
      <point x="1044" y="1110" type="move" name="topright"/>
    </contour>
  </outline>
</glyph>
<glyph name="v" format="1">
  <advance width="893"/>
  <unicode hex="0076"/>
  <outline>
    <contour>
      <point x="149" y="868" type="curve"/>
      <point x="230" y="284" type="line"/>
      <point x="273" y="-20" type="line"/>
      <point x="379" y="-9" type="line"/>
      <point x="561" y="237" type="line" smooth="yes"/>
      <point x="797" y="556"/>
      <point x="870" y="740"/>
      <point x="870" y="884" type="curve"/>
      <point x="870" y="975"/>
      <point x="837" y="1038"/>
      <point x="775" y="1038" type="curve"/>
      <point x="742" y="1038"/>
      <point x="703" y="1012"/>
      <point x="703" y="961" type="curve"/>
      <point x="703" y="892"/>
      <point x="765" y="871"/>
      <point x="765" y="776" type="curve"/>
      <point x="765" y="688"/>
      <point x="729" y="563"/>
      <point x="505" y="246" type="curve"/>
      <point x="353" y="31" type="line"/>
      <point x="396" y="39" type="line"/>
      <point x="363" y="312" type="line"/>
      <point x="291" y="905" type="line" smooth="yes"/>
      <point x="282" y="983"/>
      <point x="262" y="1038"/>
      <point x="180" y="1038" type="curve"/>
      <point x="121" y="1038"/>
      <point x="47" y="986"/>
      <point x="14" y="943" type="curve"/>
      <point x="29" y="914" type="line"/>
      <point x="50" y="934"/>
      <point x="73" y="949"/>
      <point x="100" y="949" type="curve"/>
      <point x="129" y="949"/>
      <point x="140" y="929"/>
    </contour>
    <contour>
      <point x="533" y="1110" type="move" name="top"/>
    </contour>
  </outline>
</glyph>
<glyph name="w" format="1">
  <advance width="1438"/>
  <unicode hex="0077"/>
  <outline>
    <contour>
      <point x="231" y="308" type="line"/>
      <point x="274" y="-20" type="line"/>
      <point x="399" y="-9" type="line"/>
      <point x="524" y="270" type="line"/>
      <point x="737" y="753" type="line"/>
      <point x="773" y="852" type="line"/>
      <point x="772" y="755" type="line"/>
      <point x="808" y="298" type="line"/>
      <point x="831" y="-18" type="line"/>
      <point x="934" y="-9" type="line"/>
      <point x="1119" y="237" type="line" smooth="yes"/>
      <point x="1358" y="554"/>
      <point x="1414" y="740"/>
      <point x="1414" y="884" type="curve"/>
      <point x="1414" y="975"/>
      <point x="1381" y="1038"/>
      <point x="1319" y="1038" type="curve"/>
      <point x="1286" y="1038"/>
      <point x="1247" y="1012"/>
      <point x="1247" y="961" type="curve"/>
      <point x="1247" y="892"/>
      <point x="1309" y="871"/>
      <point x="1309" y="776" type="curve"/>
      <point x="1309" y="688"/>
      <point x="1285" y="565"/>
      <point x="1063" y="246" type="curve"/>
      <point x="927" y="51" type="line"/>
      <point x="951" y="66" type="line"/>
      <point x="934" y="305" type="line"/>
      <point x="884" y="1028" type="line"/>
      <point x="796" y="1028" type="line"/>
      <point x="481" y="292" type="line"/>
      <point x="377" y="46" type="line"/>
      <point x="394" y="39" type="line"/>
      <point x="361" y="337" type="line"/>
      <point x="299" y="904" type="line" smooth="yes"/>
      <point x="290" y="982"/>
      <point x="272" y="1037"/>
      <point x="190" y="1037" type="curve"/>
      <point x="131" y="1037"/>
      <point x="57" y="985"/>
      <point x="24" y="942" type="curve"/>
      <point x="39" y="913" type="line"/>
      <point x="60" y="933"/>
      <point x="83" y="948"/>
      <point x="110" y="948" type="curve"/>
      <point x="139" y="948"/>
      <point x="151" y="928"/>
      <point x="159" y="866" type="curve"/>
    </contour>
    <contour>
      <point x="843" y="1110" type="move" name="top"/>
    </contour>
  </outline>
</glyph>
<glyph name="y" format="1">
  <advance width="961"/>
  <unicode hex="0079"/>
  <outline>
    <contour>
      <point x="195" y="868" type="curve"/>
      <point x="352" y="-50" type="line"/>
      <point x="448" y="-50" type="line"/>
      <point x="325" y="-272"/>
      <point x="221" y="-380"/>
      <point x="73" y="-380" type="curve"/>
      <point x="6" y="-380"/>
      <point x="-61" y="-357"/>
      <point x="-97" y="-325" type="curve"/>
      <point x="-134" y="-450" type="line"/>
      <point x="-87" y="-482"/>
      <point x="-36" y="-495"/>
      <point x="37" y="-495" type="curve"/>
      <point x="185" y="-495"/>
      <point x="294" y="-411"/>
      <point x="402" y="-243" type="curve"/>
      <point x="524" y="-54"/>
      <point x="707" y="297"/>
      <point x="795" y="473" type="curve"/>
      <point x="886" y="656"/>
      <point x="918" y="795"/>
      <point x="918" y="880" type="curve"/>
      <point x="918" y="977"/>
      <point x="880" y="1037"/>
      <point x="821" y="1037" type="curve"/>
      <point x="780" y="1037"/>
      <point x="749" y="1004"/>
      <point x="749" y="960" type="curve"/>
      <point x="749" y="892"/>
      <point x="812" y="866"/>
      <point x="812" y="772" type="curve"/>
      <point x="812" y="679"/>
      <point x="772" y="554"/>
      <point x="566" y="168" type="curve"/>
      <point x="473" y="-6" type="line"/>
      <point x="437" y="228" type="line" smooth="yes"/>
      <point x="402" y="454"/>
      <point x="370" y="679"/>
      <point x="337" y="905" type="curve"/>
      <point x="325" y="983"/>
      <point x="308" y="1038"/>
      <point x="226" y="1038" type="curve"/>
      <point x="160" y="1038"/>
      <point x="81" y="975"/>
      <point x="47" y="931" type="curve"/>
      <point x="62" y="902" type="line"/>
      <point x="91" y="930"/>
      <point x="118" y="949"/>
      <point x="146" y="949" type="curve"/>
      <point x="175" y="949"/>
      <point x="185" y="926"/>
    </contour>
    <contour>
      <point x="860" y="0" type="move" name="bottom"/>
    </contour>
    <contour>
      <point x="607" y="1110" type="move" name="top"/>
    </contour>
  </outline>
</glyph>
<glyph name="yen" format="1">
  <advance width="1427"/>
  <unicode hex="00A5"/>
  <outline>
    <contour>
      <point x="658" y="748" type="line"/>
      <point x="265" y="748" type="line"/>
      <point x="257" y="692" type="line"/>
      <point x="678" y="692" type="line"/>
      <point x="643" y="436" type="line"/>
      <point x="222" y="436" type="line"/>
      <point x="214" y="380" type="line"/>
      <point x="635" y="380" type="line"/>
      <point x="593" y="70" type="line"/>
      <point x="397" y="36" type="line"/>
      <point x="392" y="0" type="line"/>
      <point x="928" y="0" type="line"/>
      <point x="933" y="36" type="line"/>
      <point x="742" y="70" type="line"/>
      <point x="784" y="380" type="line"/>
      <point x="1207" y="380" type="line"/>
      <point x="1215" y="436" type="line"/>
      <point x="792" y="436" type="line"/>
      <point x="827" y="692" type="line"/>
      <point x="1250" y="692" type="line"/>
      <point x="1258" y="748" type="line"/>
      <point x="849" y="748" type="line"/>
      <point x="1319" y="1430" type="line"/>
      <point x="1447" y="1451" type="line"/>
      <point x="1452" y="1486" type="line"/>
      <point x="1064" y="1486" type="line"/>
      <point x="1059" y="1451" type="line"/>
      <point x="1218" y="1434" type="line"/>
      <point x="901" y="962" type="line"/>
      <point x="785" y="783" type="line"/>
      <point x="723" y="962" type="line"/>
      <point x="523" y="1434" type="line"/>
      <point x="690" y="1451" type="line"/>
      <point x="696" y="1487" type="line"/>
      <point x="254" y="1486" type="line"/>
      <point x="249" y="1451" type="line"/>
      <point x="352" y="1430" type="line"/>
    </contour>
  </outline>
</glyph>
<glyph name="ordmasculine" format="1">
  <advance width="836"/>
  <unicode hex="00BA"/>
  <outline>
    <contour>
      <point x="572" y="1602" type="curve"/>
      <point x="370" y="1606"/>
      <point x="120" y="1420"/>
      <point x="120" y="1090" type="curve"/>
      <point x="120" y="874"/>
      <point x="249" y="721"/>
      <point x="440" y="719" type="curve"/>
      <point x="656" y="717"/>
      <point x="892" y="893"/>
      <point x="892" y="1242" type="curve"/>
      <point x="892" y="1450"/>
      <point x="781" y="1598"/>
    </contour>
    <contour>
      <point x="554" y="1520" type="curve"/>
      <point x="673" y="1520"/>
      <point x="739" y="1395"/>
      <point x="739" y="1228" type="curve"/>
      <point x="739" y="999"/>
      <point x="646" y="803"/>
      <point x="450" y="807" type="curve"/>
      <point x="350" y="809"/>
      <point x="270" y="932"/>
      <point x="270" y="1107" type="curve"/>
      <point x="270" y="1301"/>
      <point x="372" y="1520"/>
    </contour>
  </outline>
</glyph>
<glyph name="Ccedilla" format="1">
  <advance width="1227"/>
  <unicode hex="00C7"/>
  <outline>
    <component base="C"/>
    <component base="cedillacomb.case" xOffset="693"/>
    <contour>
      <point x="610" y="-164" type="move" name="_btm"/>
    </contour>
    <contour>
      <point x="821" y="1486" type="move" name="top"/>
    </contour>
  </outline>
</glyph>
<glyph name="Eth" format="1">
  <advance width="1373"/>
  <unicode hex="00D0"/>
  <outline>
    <contour>
      <point x="104" y="802" type="line"/>
      <point x="95" y="732" type="line"/>
      <point x="894" y="732" type="line"/>
      <point x="903" y="802" type="line"/>
    </contour>
    <component base="D" xOffset="28"/>
    <contour>
      <point x="550" y="0" type="move" name="bottom"/>
    </contour>
    <contour>
      <point x="740" y="1484" type="move" name="top"/>
    </contour>
  </outline>
</glyph>
<glyph name="Oslash" format="1">
  <advance width="1326"/>
  <unicode hex="00D8"/>
  <outline>
    <contour>
      <point x="133" y="-129" type="line"/>
      <point x="206" y="-164" type="line"/>
      <point x="1238" y="1614" type="line"/>
      <point x="1165" y="1649" type="line"/>
    </contour>
    <component base="O" xOffset="10"/>
    <contour>
      <point x="785" y="1484" type="move" name="top"/>
    </contour>
  </outline>
</glyph>
<glyph name="Thorn" format="1">
  <advance width="1131"/>
  <unicode hex="00DE"/>
  <outline>
    <contour>
      <point x="-1" y="36" type="line"/>
      <point x="-6" y="0" type="line"/>
      <point x="446" y="0" type="line"/>
      <point x="451" y="36" type="line"/>
      <point x="303" y="67" type="line"/>
      <point x="341" y="344" type="line"/>
      <point x="391" y="338"/>
      <point x="451" y="333"/>
      <point x="520" y="333" type="curve"/>
      <point x="839" y="333"/>
      <point x="1090" y="509"/>
      <point x="1090" y="799" type="curve"/>
      <point x="1090" y="1044"/>
      <point x="947" y="1153"/>
      <point x="644" y="1153" type="curve"/>
      <point x="565" y="1153"/>
      <point x="525" y="1150"/>
      <point x="451" y="1140" type="curve"/>
      <point x="489" y="1420" type="line"/>
      <point x="625" y="1450" type="line"/>
      <point x="630" y="1486" type="line"/>
      <point x="200" y="1486" type="line"/>
      <point x="195" y="1450" type="line"/>
      <point x="331" y="1420" type="line"/>
      <point x="145" y="67" type="line"/>
    </contour>
    <contour>
      <point x="349" y="403" type="curve"/>
      <point x="443" y="1089" type="line"/>
      <point x="496" y="1097"/>
      <point x="557" y="1103"/>
      <point x="615" y="1103" type="curve"/>
      <point x="835" y="1103"/>
      <point x="920" y="995"/>
      <point x="920" y="829" type="curve"/>
      <point x="920" y="568"/>
      <point x="791" y="387"/>
      <point x="521" y="387" type="curve"/>
      <point x="476" y="387"/>
      <point x="402" y="394"/>
    </contour>
  </outline>
</glyph>
<glyph name="ae" format="1">
  <advance width="1490"/>
  <unicode hex="00E6"/>
  <outline>
    <contour>
      <point x="898" y="903" type="curve"/>
      <point x="918" y="1031" type="line"/>
      <point x="821" y="989" type="line"/>
      <point x="778" y="1009"/>
      <point x="717" y="1031"/>
      <point x="629" y="1031" type="curve"/>
      <point x="293" y="1031"/>
      <point x="59" y="689"/>
      <point x="59" y="316" type="curve"/>
      <point x="59" y="131"/>
      <point x="150" y="-21"/>
      <point x="341" y="-21" type="curve"/>
      <point x="423" y="-21"/>
      <point x="580" y="40"/>
      <point x="684" y="280" type="curve"/>
      <point x="713" y="98"/>
      <point x="831" y="-19"/>
      <point x="1035" y="-19" type="curve"/>
      <point x="1181" y="-19"/>
      <point x="1316" y="66"/>
      <point x="1384" y="157" type="curve"/>
      <point x="1365" y="195" type="line"/>
      <point x="1277" y="102"/>
      <point x="1180" y="51"/>
      <point x="1065" y="51" type="curve"/>
      <point x="882" y="51"/>
      <point x="826" y="246"/>
      <point x="837" y="441" type="curve"/>
      <point x="1203" y="449"/>
      <point x="1451" y="591"/>
      <point x="1451" y="834" type="curve"/>
      <point x="1451" y="955"/>
      <point x="1365" y="1031"/>
      <point x="1219" y="1031" type="curve"/>
      <point x="1095" y="1031"/>
      <point x="986" y="982"/>
    </contour>
    <contour>
      <point x="758" y="910" type="curve"/>
      <point x="665" y="374" type="line"/>
      <point x="620" y="171"/>
      <point x="458" y="43"/>
      <point x="364" y="43" type="curve"/>
      <point x="261" y="43"/>
      <point x="210" y="161"/>
      <point x="210" y="311" type="curve"/>
      <point x="210" y="641"/>
      <point x="379" y="989"/>
      <point x="627" y="989" type="curve"/>
      <point x="693" y="989"/>
      <point x="738" y="959"/>
    </contour>
    <contour>
      <point x="1208" y="990" type="curve"/>
      <point x="1280" y="990"/>
      <point x="1308" y="943"/>
      <point x="1308" y="876" type="curve"/>
      <point x="1308" y="698"/>
      <point x="1169" y="501"/>
      <point x="840" y="483" type="curve"/>
      <point x="871" y="771"/>
      <point x="1030" y="990"/>
    </contour>
    <contour>
      <point x="997" y="1110" type="move" name="top"/>
    </contour>
  </outline>
</glyph>
<glyph name="thorn" format="1">
  <advance width="997"/>
  <unicode hex="00FE"/>
  <outline>
    <contour>
      <point x="321" y="796" type="curve"/>
      <point x="444" y="1618" type="line"/>
      <point x="425" y="1634" type="line"/>
      <point x="170" y="1597" type="line"/>
      <point x="165" y="1571" type="line"/>
      <point x="292" y="1547" type="line"/>
      <point x="66" y="33" type="line"/>
      <point x="-14" y="-506" type="line"/>
      <point x="127" y="-506" type="line"/>
      <point x="179" y="-151" type="line"/>
      <point x="193" y="8" type="line"/>
      <point x="248" y="-10"/>
      <point x="303" y="-19"/>
      <point x="359" y="-19" type="curve"/>
      <point x="726" y="-19"/>
      <point x="953" y="338"/>
      <point x="953" y="668" type="curve"/>
      <point x="953" y="888"/>
      <point x="867" y="1037"/>
      <point x="657" y="1037" type="curve"/>
      <point x="526" y="1037"/>
      <point x="402" y="950"/>
    </contour>
    <contour>
      <point x="218" y="108" type="curve"/>
      <point x="297" y="646" type="line"/>
      <point x="348" y="845"/>
      <point x="511" y="973"/>
      <point x="629" y="973" type="curve"/>
      <point x="741" y="973"/>
      <point x="802" y="868"/>
      <point x="802" y="687" type="curve"/>
      <point x="802" y="394"/>
      <point x="639" y="23"/>
      <point x="361" y="23" type="curve"/>
      <point x="283" y="23"/>
      <point x="238" y="60"/>
    </contour>
  </outline>
</glyph>
<glyph name="Hbar" format="1">
  <advance width="1342"/>
  <unicode hex="0126"/>
  <outline>
    <contour>
      <point x="804" y="36" type="line"/>
      <point x="799" y="0" type="line"/>
      <point x="1251" y="0" type="line"/>
      <point x="1256" y="36" type="line"/>
      <point x="1108" y="67" type="line"/>
      <point x="1294" y="1420" type="line"/>
      <point x="1430" y="1450" type="line"/>
      <point x="1435" y="1486" type="line"/>
      <point x="1005" y="1486" type="line"/>
      <point x="1000" y="1450" type="line"/>
      <point x="1136" y="1420" type="line"/>
      <point x="950" y="67" type="line"/>
    </contour>
    <contour>
      <point x="-52" y="36" type="line"/>
      <point x="-57" y="0" type="line"/>
      <point x="395" y="0" type="line"/>
      <point x="400" y="36" type="line"/>
      <point x="252" y="67" type="line"/>
      <point x="438" y="1420" type="line"/>
      <point x="574" y="1450" type="line"/>
      <point x="579" y="1486" type="line"/>
      <point x="149" y="1486" type="line"/>
      <point x="144" y="1450" type="line"/>
      <point x="280" y="1420" type="line"/>
      <point x="94" y="67" type="line"/>
    </contour>
    <contour>
      <point x="308" y="742" type="line"/>
      <point x="308" y="676" type="line"/>
      <point x="1107" y="676" type="line"/>
      <point x="1107" y="742" type="line"/>
    </contour>
    <contour>
      <point x="92" y="1087" type="line"/>
      <point x="84" y="1017" type="line"/>
      <point x="1380" y="1017" type="line"/>
      <point x="1388" y="1087" type="line"/>
    </contour>
    <contour>
      <point x="599" y="0" type="move" name="bottom"/>
    </contour>
    <contour>
      <point x="804" y="1486" type="move" name="top"/>
    </contour>
  </outline>
</glyph>
<glyph name="Lslash" format="1">
  <advance width="1141"/>
  <unicode hex="0141"/>
  <outline>
    <contour>
      <point x="34" y="698" type="line"/>
      <point x="58" y="636" type="line"/>
      <point x="846" y="969" type="line"/>
      <point x="822" y="1034" type="line"/>
    </contour>
    <component base="L" xOffset="40"/>
  </outline>
</glyph>
<glyph name="Eng" format="1">
  <advance width="1408"/>
  <unicode hex="014A"/>
  <outline>
    <contour>
      <point x="585" y="-399" type="curve"/>
      <point x="607" y="-443" type="line"/>
      <point x="809" y="-410"/>
      <point x="1067" y="-269"/>
      <point x="1109" y="36" type="curve"/>
      <point x="1301" y="1419" type="line"/>
      <point x="1445" y="1450" type="line"/>
      <point x="1450" y="1486" type="line"/>
      <point x="1061" y="1486" type="line"/>
      <point x="1057" y="1450" type="line"/>
      <point x="1204" y="1419" type="line"/>
      <point x="1057" y="153" type="line"/>
      <point x="980" y="377" type="line"/>
      <point x="485" y="1486" type="line"/>
      <point x="213" y="1486" type="line"/>
      <point x="208" y="1450" type="line"/>
      <point x="344" y="1420" type="line"/>
      <point x="156" y="67" type="line"/>
      <point x="13" y="36" type="line"/>
      <point x="7" y="0" type="line"/>
      <point x="396" y="0" type="line"/>
      <point x="401" y="36" type="line"/>
      <point x="253" y="67" type="line"/>
      <point x="401" y="1357" type="line"/>
      <point x="487" y="1109" type="line"/>
      <point x="980" y="0" type="line"/>
      <point x="950" y="-184"/>
      <point x="804" y="-344"/>
    </contour>
  </outline>
</glyph>
<glyph name="eng" format="1">
  <advance width="993"/>
  <unicode hex="014B"/>
  <outline>
    <contour>
      <point x="301" y="598" type="curve"/>
      <point x="359" y="1005" type="line"/>
      <point x="328" y="1025" type="line"/>
      <point x="83" y="979" type="line"/>
      <point x="79" y="954" type="line"/>
      <point x="206" y="923" type="line"/>
      <point x="69" y="0" type="line"/>
      <point x="211" y="0" type="line"/>
      <point x="283" y="488" type="line"/>
      <point x="390" y="769"/>
      <point x="553" y="943"/>
      <point x="679" y="943" type="curve"/>
      <point x="750" y="943"/>
      <point x="776" y="904"/>
      <point x="776" y="823" type="curve"/>
      <point x="776" y="751"/>
      <point x="702" y="235"/>
      <point x="666" y="-11" type="curve"/>
      <point x="625" y="-290"/>
      <point x="560" y="-457"/>
      <point x="402" y="-457" type="curve"/>
      <point x="364" y="-457"/>
      <point x="329" y="-448"/>
      <point x="309" y="-440" type="curve"/>
      <point x="294" y="-474" type="line"/>
      <point x="324" y="-490"/>
      <point x="373" y="-506"/>
      <point x="428" y="-506" type="curve"/>
      <point x="650" y="-506"/>
      <point x="756" y="-364"/>
      <point x="801" y="-64" type="curve"/>
      <point x="838" y="180"/>
      <point x="922" y="741"/>
      <point x="922" y="828" type="curve"/>
      <point x="922" y="960"/>
      <point x="859" y="1031"/>
      <point x="741" y="1031" type="curve"/>
      <point x="576" y="1031"/>
      <point x="409" y="842"/>
    </contour>
  </outline>
</glyph>
<glyph name="OE" format="1">
  <advance width="2060"/>
  <unicode hex="0152"/>
  <outline>
    <contour>
      <point x="598" y="-22" type="curve"/>
      <point x="792" y="-22"/>
      <point x="962" y="82"/>
      <point x="1080" y="251" type="curve"/>
      <point x="1046" y="0" type="line"/>
      <point x="1896" y="0" type="line"/>
      <point x="1980" y="316" type="line"/>
      <point x="1916" y="333" type="line"/>
      <point x="1803" y="94" type="line"/>
      <point x="1213" y="67" type="line"/>
      <point x="1305" y="733" type="line"/>
      <point x="1732" y="719" type="line"/>
      <point x="1745" y="809" type="line"/>
      <point x="1314" y="798" type="line"/>
      <point x="1399" y="1421" type="line"/>
      <point x="1873" y="1400" type="line"/>
      <point x="1916" y="1180" type="line"/>
      <point x="1968" y="1180" type="line"/>
      <point x="1976" y="1486" type="line"/>
      <point x="1250" y="1486" type="line"/>
      <point x="1209" y="1188" type="line"/>
      <point x="1141" y="1386"/>
      <point x="1000" y="1503"/>
      <point x="785" y="1503" type="curve"/>
      <point x="391" y="1503"/>
      <point x="97" y="1121"/>
      <point x="104" y="605" type="curve"/>
      <point x="109" y="216"/>
      <point x="275" y="-22"/>
    </contour>
    <contour>
      <point x="622" y="29" type="curve"/>
      <point x="399" y="29"/>
      <point x="272" y="246"/>
      <point x="268" y="613" type="curve"/>
      <point x="263" y="1091"/>
      <point x="478" y="1452"/>
      <point x="763" y="1452" type="curve"/>
      <point x="991" y="1452"/>
      <point x="1106" y="1252"/>
      <point x="1112" y="874" type="curve"/>
      <point x="1119" y="420"/>
      <point x="906" y="29"/>
    </contour>
    <contour>
      <point x="988" y="0" type="move" name="bottom"/>
    </contour>
    <contour>
      <point x="1192" y="1486" type="move" name="top"/>
    </contour>
  </outline>
</glyph>
<glyph name="Scedilla" format="1">
  <advance width="1005"/>
  <unicode hex="015E"/>
  <outline>
    <component base="S"/>
    <component base="cedillacomb.case" xOffset="498"/>
    <contour>
      <point x="471" y="0" type="move" name="bottom"/>
    </contour>
    <contour>
      <point x="671" y="1486" type="move" name="top"/>
    </contour>
  </outline>
</glyph>
<glyph name="Tbar" format="1">
  <advance width="1209"/>
  <unicode hex="0166"/>
  <outline>
    <contour>
      <point x="989" y="622" type="line"/>
      <point x="999" y="693" type="line"/>
      <point x="294" y="693" type="line"/>
      <point x="284" y="622" type="line"/>
    </contour>
    <component base="T"/>
    <contour>
      <point x="536" y="-166" type="move" name="btm"/>
    </contour>
    <contour>
      <point x="742" y="1660" type="move" name="top"/>
    </contour>
  </outline>
</glyph>
<glyph name="Schwa" format="1">
  <advance width="1277"/>
  <unicode hex="018F"/>
  <outline>
    <contour>
      <point x="525" y="-21" type="curve"/>
      <point x="913" y="-21"/>
      <point x="1203" y="349"/>
      <point x="1203" y="885" type="curve"/>
      <point x="1203" y="1259"/>
      <point x="1037" y="1504"/>
      <point x="721" y="1504" type="curve"/>
      <point x="447" y="1504"/>
      <point x="334" y="1431"/>
      <point x="224" y="1425" type="curve"/>
      <point x="178" y="1141" type="line"/>
      <point x="264" y="1141" type="line"/>
      <point x="335" y="1351" type="line"/>
      <point x="390" y="1396"/>
      <point x="512" y="1452"/>
      <point x="690" y="1452" type="curve"/>
      <point x="911" y="1452"/>
      <point x="1039" y="1251"/>
      <point x="1039" y="892" type="curve"/>
      <point x="1039" y="844"/>
      <point x="1037" y="798"/>
      <point x="1033" y="754" type="curve"/>
      <point x="110" y="753" type="line"/>
      <point x="88" y="697"/>
      <point x="72" y="584"/>
      <point x="72" y="470" type="curve"/>
      <point x="72" y="158"/>
      <point x="262" y="-21"/>
    </contour>
    <contour>
      <point x="534" y="29" type="curve"/>
      <point x="328" y="29"/>
      <point x="229" y="253"/>
      <point x="229" y="444" type="curve"/>
      <point x="229" y="523"/>
      <point x="243" y="618"/>
      <point x="259" y="687" type="curve"/>
      <point x="1030" y="688" type="line"/>
      <point x="973" y="294"/>
      <point x="796" y="29"/>
    </contour>
  </outline>
</glyph>
<glyph name="Ohorn" format="1">
  <advance width="1330"/>
  <unicode hex="01A0"/>
  <outline>
    <contour>
      <point x="1039" y="1406" type="curve"/>
      <point x="1079" y="1332" type="line"/>
      <point x="1372" y="1345"/>
      <point x="1459" y="1450"/>
      <point x="1459" y="1636" type="curve"/>
      <point x="1459" y="1687"/>
      <point x="1449" y="1714"/>
      <point x="1442" y="1730" type="curve"/>
      <point x="1306" y="1730" type="line"/>
      <point x="1307" y="1722"/>
      <point x="1308" y="1710"/>
      <point x="1308" y="1696" type="curve"/>
      <point x="1308" y="1516"/>
      <point x="1279" y="1406"/>
    </contour>
    <component base="O" xOffset="10"/>
    <contour>
      <point x="602" y="0" type="move" name="bottom"/>
    </contour>
    <contour>
      <point x="786" y="1486" type="move" name="top"/>
    </contour>
  </outline>
</glyph>
<glyph name="ohorn" format="1">
  <advance width="968"/>
  <unicode hex="01A1"/>
  <outline>
    <contour>
      <point x="410" y="-20" type="curve"/>
      <point x="729" y="-20"/>
      <point x="937" y="304"/>
      <point x="937" y="622" type="curve"/>
      <point x="937" y="786"/>
      <point x="877" y="912"/>
      <point x="773" y="978" type="curve"/>
      <point x="947" y="970"/>
      <point x="1037" y="1043"/>
      <point x="1054" y="1150" type="curve"/>
      <point x="1056" y="1163"/>
      <point x="1057" y="1177"/>
      <point x="1057" y="1192" type="curve"/>
      <point x="910" y="1192" type="line"/>
      <point x="910" y="1177" type="line" smooth="yes"/>
      <point x="910" y="1070"/>
      <point x="818" y="1018"/>
      <point x="698" y="1012" type="curve"/>
      <point x="659" y="1025"/>
      <point x="615" y="1031"/>
      <point x="568" y="1031" type="curve"/>
      <point x="262" y="1031"/>
      <point x="42" y="714"/>
      <point x="42" y="393" type="curve"/>
      <point x="42" y="142"/>
      <point x="171" y="-20"/>
    </contour>
    <contour>
      <point x="202" y="358" type="curve"/>
      <point x="202" y="648"/>
      <point x="343" y="987"/>
      <point x="571" y="987" type="curve"/>
      <point x="726" y="987"/>
      <point x="777" y="818"/>
      <point x="777" y="643" type="curve"/>
      <point x="777" y="361"/>
      <point x="635" y="24"/>
      <point x="410" y="24" type="curve"/>
      <point x="296" y="24"/>
      <point x="202" y="122"/>
    </contour>
    <contour>
      <point x="416" y="0" type="move" name="bottom"/>
    </contour>
    <contour>
      <point x="600" y="1111" type="move" name="top"/>
    </contour>
  </outline>
</glyph>
<glyph name="Uhorn" format="1">
  <advance width="1421"/>
  <unicode hex="01AF"/>
  <outline>
    <contour>
      <point x="1170" y="612" type="curve"/>
      <point x="1271" y="1421" type="line"/>
      <point x="1407" y="1450" type="line"/>
      <point x="1412" y="1486" type="line"/>
      <point x="1043" y="1486" type="line"/>
      <point x="1038" y="1450" type="line"/>
      <point x="1184" y="1420" type="line"/>
      <point x="1098" y="612" type="line" smooth="yes"/>
      <point x="1056" y="218"/>
      <point x="873" y="55"/>
      <point x="634" y="55" type="curve"/>
      <point x="396" y="55"/>
      <point x="312" y="213"/>
      <point x="312" y="438" type="curve"/>
      <point x="312" y="487"/>
      <point x="316" y="539"/>
      <point x="323" y="593" type="curve"/>
      <point x="435" y="1420" type="line"/>
      <point x="582" y="1450" type="line"/>
      <point x="587" y="1486" type="line"/>
      <point x="149" y="1486" type="line"/>
      <point x="144" y="1450" type="line"/>
      <point x="275" y="1421" type="line"/>
      <point x="161" y="580" type="line" smooth="yes"/>
      <point x="155" y="536"/>
      <point x="153" y="493"/>
      <point x="153" y="452" type="curve"/>
      <point x="153" y="163"/>
      <point x="293" y="-20"/>
      <point x="609" y="-20" type="curve"/>
      <point x="925" y="-20"/>
      <point x="1115" y="173"/>
    </contour>
    <contour>
      <point x="1214" y="1486" type="curve"/>
      <point x="1254" y="1412" type="line"/>
      <point x="1487" y="1425"/>
      <point x="1574" y="1538"/>
      <point x="1574" y="1656" type="curve"/>
      <point x="1574" y="1687"/>
      <point x="1564" y="1714"/>
      <point x="1557" y="1730" type="curve"/>
      <point x="1421" y="1730" type="line"/>
      <point x="1422" y="1722"/>
      <point x="1423" y="1710"/>
      <point x="1423" y="1696" type="curve"/>
      <point x="1423" y="1596"/>
      <point x="1394" y="1486"/>
    </contour>
    <contour>
      <point x="613" y="0" type="move" name="bottom"/>
    </contour>
    <contour>
      <point x="801" y="1486" type="move" name="top"/>
    </contour>
  </outline>
</glyph>
<glyph name="Gstroke" format="1">
  <advance width="1318"/>
  <unicode hex="01E4"/>
  <outline>
    <contour>
      <point x="781" y="443" type="line"/>
      <point x="772" y="373" type="line"/>
      <point x="1330" y="373" type="line"/>
      <point x="1339" y="443" type="line"/>
    </contour>
    <component base="G"/>
  </outline>
</glyph>
<glyph name="ezh" format="1">
  <advance width="812"/>
  <unicode hex="0292"/>
  <outline>
    <contour>
      <point x="154" y="-503" type="curve"/>
      <point x="532" y="-503"/>
      <point x="721" y="-177"/>
      <point x="721" y="65" type="curve"/>
      <point x="721" y="278"/>
      <point x="594" y="398"/>
      <point x="373" y="398" type="curve"/>
      <point x="357" y="398"/>
      <point x="342" y="397"/>
      <point x="326" y="396" type="curve"/>
      <point x="804" y="1003" type="line"/>
      <point x="781" y="1025" type="line"/>
      <point x="759" y="1005"/>
      <point x="737" y="1002"/>
      <point x="702" y="1002" type="curve"/>
      <point x="594" y="1002"/>
      <point x="380" y="1029"/>
      <point x="214" y="1029" type="curve"/>
      <point x="101" y="1029"/>
      <point x="88" y="965"/>
      <point x="73" y="822" type="curve"/>
      <point x="69" y="785"/>
      <point x="68" y="747"/>
      <point x="69" y="716" type="curve"/>
      <point x="102" y="716" type="line"/>
      <point x="116" y="813"/>
      <point x="144" y="895"/>
      <point x="250" y="897" type="curve"/>
      <point x="305" y="898"/>
      <point x="571" y="890"/>
      <point x="644" y="887" type="curve"/>
      <point x="548" y="783" type="line"/>
      <point x="224" y="372" type="line"/>
      <point x="249" y="336" type="line"/>
      <point x="274" y="341"/>
      <point x="297" y="343"/>
      <point x="319" y="343" type="curve"/>
      <point x="475" y="343"/>
      <point x="560" y="232"/>
      <point x="560" y="86" type="curve"/>
      <point x="560" y="-189"/>
      <point x="380" y="-450"/>
      <point x="119" y="-450" type="curve"/>
      <point x="61" y="-450"/>
      <point x="-1" y="-441"/>
      <point x="-67" y="-421" type="curve"/>
      <point x="-80" y="-459" type="line"/>
      <point x="-17" y="-485"/>
      <point x="56" y="-503"/>
    </contour>
    <contour>
      <point x="481" y="1110" type="move" name="top"/>
    </contour>
  </outline>
</glyph>
<glyph name="gravecomb" format="1">
  <advance width="0"/>
  <unicode hex="0300"/>
  <outline>
    <contour>
      <point x="214" y="1117" type="curve"/>
      <point x="268" y="1167" type="line"/>
      <point x="-6" y="1561" type="line"/>
      <point x="-128" y="1455" type="line"/>
      <point x="-76" y="1365"/>
      <point x="124" y="1173"/>
    </contour>
    <contour>
      <point x="80" y="1108" type="move" name="_top"/>
    </contour>
    <contour>
      <point x="162" y="1657" type="move" name="top"/>
    </contour>
  </outline>
</glyph>
<glyph name="acutecomb" format="1">
  <advance width="0"/>
  <unicode hex="0301"/>
  <outline>
    <contour>
      <point x="232" y="1567" type="line"/>
      <point x="-50" y="1173" type="line"/>
      <point x="8" y="1123" type="line"/>
      <point x="128" y="1187"/>
      <point x="312" y="1409"/>
      <point x="350" y="1473" type="curve"/>
    </contour>
    <contour>
      <point x="78" y="1110" type="move" name="_top"/>
    </contour>
    <contour>
      <point x="162" y="1657" type="move" name="top"/>
    </contour>
  </outline>
</glyph>
<glyph name="circumflexcomb" format="1">
  <advance width="0"/>
  <unicode hex="0302"/>
  <outline>
    <contour>
      <point x="-246" y="1176" type="line"/>
      <point x="-188" y="1130" type="line"/>
      <point x="-83" y="1219"/>
      <point x="21" y="1307"/>
      <point x="126" y="1396" type="curve"/>
      <point x="197" y="1307"/>
      <point x="269" y="1219"/>
      <point x="340" y="1130" type="curve"/>
      <point x="404" y="1176" type="line"/>
      <point x="204" y="1514" type="line"/>
      <point x="70" y="1514" type="line"/>
    </contour>
    <contour>
      <point x="78" y="1110" type="move" name="_top"/>
    </contour>
    <contour>
      <point x="150" y="1612" type="move" name="top"/>
    </contour>
  </outline>
</glyph>
<glyph name="dotaccentcomb" format="1">
  <advance width="0"/>
  <unicode hex="0307"/>
  <outline>
    <contour>
      <point x="85" y="1157" type="curve"/>
      <point x="154" y="1157"/>
      <point x="201" y="1209"/>
      <point x="201" y="1299" type="curve"/>
      <point x="201" y="1350"/>
      <point x="171" y="1391"/>
      <point x="114" y="1391" type="curve"/>
      <point x="47" y="1391"/>
      <point x="1" y="1331"/>
      <point x="1" y="1264" type="curve"/>
      <point x="1" y="1193"/>
      <point x="36" y="1157"/>
    </contour>
    <contour>
      <point x="81" y="1110" type="move" name="_top"/>
    </contour>
    <contour>
      <point x="122" y="1406" type="move" name="top"/>
    </contour>
  </outline>
</glyph>
<glyph name="dieresiscomb" format="1">
  <advance width="0"/>
  <unicode hex="0308"/>
  <outline>
    <contour>
      <point x="-120" y="1149" type="curve"/>
      <point x="-54" y="1149"/>
      <point x="-1" y="1205"/>
      <point x="0" y="1278" type="curve"/>
      <point x="1" y="1331"/>
      <point x="-35" y="1372"/>
      <point x="-93" y="1372" type="curve"/>
      <point x="-153" y="1372"/>
      <point x="-204" y="1318"/>
      <point x="-207" y="1247" type="curve"/>
      <point x="-209" y="1192"/>
      <point x="-168" y="1149"/>
    </contour>
    <contour>
      <point x="292" y="1149" type="curve"/>
      <point x="358" y="1149"/>
      <point x="411" y="1205"/>
      <point x="412" y="1278" type="curve"/>
      <point x="413" y="1331"/>
      <point x="377" y="1372"/>
      <point x="318" y="1372" type="curve"/>
      <point x="257" y="1372"/>
      <point x="208" y="1318"/>
      <point x="205" y="1247" type="curve"/>
      <point x="203" y="1192"/>
      <point x="244" y="1149"/>
    </contour>
    <contour>
      <point x="80" y="1110" type="move" name="_top"/>
    </contour>
    <contour>
      <point x="122" y="1406" type="move" name="top"/>
    </contour>
  </outline>
</glyph>
<glyph name="hookabovecomb" format="1">
  <advance width="0"/>
  <unicode hex="0309"/>
  <outline>
    <contour>
      <point x="61" y="1135" type="curve"/>
      <point x="113" y="1135" type="line"/>
      <point x="81" y="1299"/>
      <point x="330" y="1252"/>
      <point x="330" y="1437" type="curve"/>
      <point x="330" y="1514"/>
      <point x="265" y="1588"/>
      <point x="163" y="1588" type="curve"/>
      <point x="121" y="1588"/>
      <point x="68" y="1572"/>
      <point x="49" y="1550" type="curve"/>
      <point x="40" y="1477" type="line"/>
      <point x="53" y="1483"/>
      <point x="94" y="1485"/>
      <point x="113" y="1485" type="curve"/>
      <point x="167" y="1485"/>
      <point x="194" y="1448"/>
      <point x="194" y="1415" type="curve"/>
      <point x="194" y="1332"/>
      <point x="47" y="1319"/>
      <point x="47" y="1196" type="curve"/>
      <point x="47" y="1179"/>
      <point x="49" y="1164"/>
    </contour>
    <contour>
      <point x="98" y="1125" type="move" name="_top"/>
    </contour>
    <contour>
      <point x="121" y="1588" type="move" name="top"/>
    </contour>
  </outline>
</glyph>
<glyph name="hungarumlautcomb" format="1">
  <advance width="0"/>
  <unicode hex="030B"/>
  <outline>
    <contour>
      <point x="560" y="1584" type="line"/>
      <point x="248" y="1182" type="line"/>
      <point x="300" y="1130" type="line"/>
      <point x="388" y="1186"/>
      <point x="632" y="1394"/>
      <point x="678" y="1500" type="curve"/>
    </contour>
    <contour>
      <point x="134" y="1584" type="line"/>
      <point x="-162" y="1182" type="line"/>
      <point x="-112" y="1130" type="line"/>
      <point x="-2" y="1196"/>
      <point x="206" y="1406"/>
      <point x="248" y="1506" type="curve"/>
    </contour>
    <contour>
      <point x="78" y="1110" type="move" name="_top"/>
    </contour>
  </outline>
</glyph>
<glyph name="caroncomb" format="1">
  <advance width="0"/>
  <unicode hex="030C"/>
  <outline>
    <contour>
      <point x="-186" y="1488" type="line"/>
      <point x="14" y="1151" type="line"/>
      <point x="149" y="1151" type="line"/>
      <point x="464" y="1488" type="line"/>
      <point x="407" y="1534" type="line"/>
      <point x="302" y="1445"/>
      <point x="198" y="1357"/>
      <point x="93" y="1268" type="curve"/>
      <point x="21" y="1357"/>
      <point x="-50" y="1445"/>
      <point x="-122" y="1534" type="curve"/>
    </contour>
    <contour>
      <point x="78" y="1113" type="move" name="_top"/>
    </contour>
    <contour>
      <point x="134" y="1499" type="move" name="top"/>
    </contour>
  </outline>
</glyph>
<glyph name="breveinvertedcomb" format="1">
  <advance width="0"/>
  <unicode hex="0311"/>
  <outline>
    <contour>
      <point x="144" y="1499" type="curve"/>
      <point x="-58" y="1499"/>
      <point x="-175" y="1353"/>
      <point x="-190" y="1205" type="curve"/>
      <point x="-192" y="1197"/>
      <point x="-192" y="1185"/>
      <point x="-192" y="1175" type="curve"/>
      <point x="-110" y="1175" type="line"/>
      <point x="-94" y="1253"/>
      <point x="-48" y="1379"/>
      <point x="130" y="1379" type="curve"/>
      <point x="264" y="1379"/>
      <point x="310" y="1293"/>
      <point x="326" y="1206" type="curve"/>
      <point x="328" y="1195"/>
      <point x="328" y="1185"/>
      <point x="328" y="1175" type="curve"/>
      <point x="412" y="1175" type="line"/>
      <point x="412" y="1182"/>
      <point x="414" y="1200"/>
      <point x="414" y="1207" type="curve"/>
      <point x="414" y="1363"/>
      <point x="316" y="1499"/>
    </contour>
    <contour>
      <point x="79" y="1114" type="move" name="_top"/>
    </contour>
    <contour>
      <point x="151" y="1616" type="move" name="top"/>
    </contour>
  </outline>
</glyph>
<glyph name="Delta" format="1">
  <advance width="1194"/>
  <unicode hex="0394"/>
  <outline>
    <contour>
      <point x="-23" y="40" type="line"/>
      <point x="-4" y="0" type="line"/>
      <point x="1059" y="0" type="line"/>
      <point x="1091" y="45" type="line"/>
      <point x="740" y="1500" type="line"/>
      <point x="695" y="1500" type="line"/>
    </contour>
    <contour>
      <point x="628" y="1214" type="line"/>
      <point x="679" y="1333" type="line"/>
      <point x="699" y="1209" type="line"/>
      <point x="974" y="29" type="line"/>
      <point x="990" y="105" type="line"/>
      <point x="61" y="105" type="line"/>
      <point x="52" y="20" type="line"/>
    </contour>
  </outline>
</glyph>
<glyph name="Omega" format="1">
  <advance width="1432"/>
  <unicode hex="03A9"/>
  <outline>
    <contour>
      <point x="15" y="394" type="line"/>
      <point x="9" y="0" type="line"/>
      <point x="550" y="0" type="line"/>
      <point x="566" y="113" type="line"/>
      <point x="389" y="190"/>
      <point x="270" y="471"/>
      <point x="270" y="732" type="curve"/>
      <point x="270" y="1087"/>
      <point x="508" y="1453"/>
      <point x="838" y="1453" type="curve"/>
      <point x="1076" y="1453"/>
      <point x="1244" y="1263"/>
      <point x="1244" y="934" type="curve"/>
      <point x="1244" y="595"/>
      <point x="1054" y="222"/>
      <point x="762" y="113" type="curve"/>
      <point x="746" y="0" type="line"/>
      <point x="1293" y="0" type="line"/>
      <point x="1387" y="394" type="line"/>
      <point x="1337" y="394" type="line"/>
      <point x="1226" y="111" type="line"/>
      <point x="852" y="101" type="line"/>
      <point x="1152" y="219"/>
      <point x="1369" y="606"/>
      <point x="1369" y="949" type="curve"/>
      <point x="1369" y="1334"/>
      <point x="1119" y="1503"/>
      <point x="844" y="1503" type="curve"/>
      <point x="427" y="1503"/>
      <point x="146" y="1143"/>
      <point x="146" y="717" type="curve"/>
      <point x="146" y="446"/>
      <point x="280" y="187"/>
      <point x="473" y="102" type="curve"/>
      <point x="106" y="111" type="line"/>
      <point x="66" y="394" type="line"/>
    </contour>
  </outline>
</glyph>
<glyph name="Dje-cy" format="1">
  <advance width="1521"/>
  <unicode hex="0402"/>
  <outline>
    <contour>
      <point x="226" y="36" type="line"/>
      <point x="221" y="0" type="line"/>
      <point x="825" y="0" type="line"/>
      <point x="830" y="36" type="line"/>
      <point x="622" y="67" type="line"/>
      <point x="705" y="669" type="line"/>
      <point x="812" y="734"/>
      <point x="907" y="757"/>
      <point x="1025" y="757" type="curve"/>
      <point x="1197" y="757"/>
      <point x="1276" y="634"/>
      <point x="1276" y="459" type="curve"/>
      <point x="1276" y="252"/>
      <point x="1197" y="58"/>
      <point x="1026" y="58" type="curve"/>
      <point x="1010" y="58"/>
      <point x="993" y="60"/>
      <point x="978" y="62" type="curve"/>
      <point x="972" y="8" type="line"/>
      <point x="990" y="1"/>
      <point x="1026" y="0"/>
      <point x="1031" y="0" type="curve"/>
      <point x="1312" y="0"/>
      <point x="1442" y="263"/>
      <point x="1442" y="472" type="curve"/>
      <point x="1442" y="697"/>
      <point x="1289" y="839"/>
      <point x="1050" y="839" type="curve"/>
      <point x="919" y="839"/>
      <point x="824" y="807"/>
      <point x="715" y="740" type="curve"/>
      <point x="808" y="1421" type="line"/>
      <point x="1151" y="1405" type="line"/>
      <point x="1179" y="1060" type="line"/>
      <point x="1239" y="1062" type="line"/>
      <point x="1274" y="1486" type="line"/>
      <point x="212" y="1486" type="line"/>
      <point x="121" y="1062" type="line"/>
      <point x="183" y="1064" type="line"/>
      <point x="319" y="1405" type="line"/>
      <point x="651" y="1421" type="line"/>
      <point x="466" y="67" type="line"/>
    </contour>
  </outline>
</glyph>
<glyph name="E-cy" format="1">
  <advance width="1171"/>
  <unicode hex="0404"/>
  <outline>
    <contour>
      <point x="630" y="-16" type="curve"/>
      <point x="816" y="-16"/>
      <point x="956" y="46"/>
      <point x="1032" y="72" type="curve"/>
      <point x="1072" y="393" type="line"/>
      <point x="1004" y="393" type="line"/>
      <point x="984" y="321"/>
      <point x="968" y="228"/>
      <point x="947" y="158" type="curve"/>
      <point x="906" y="90"/>
      <point x="748" y="42"/>
      <point x="660" y="42" type="curve"/>
      <point x="341" y="42"/>
      <point x="252" y="321"/>
      <point x="246" y="629" type="curve"/>
      <point x="245" y="658"/>
      <point x="246" y="688"/>
      <point x="248" y="717" type="curve"/>
      <point x="443" y="705"/>
      <point x="751" y="703"/>
      <point x="884" y="699" type="curve"/>
      <point x="907" y="818" type="line"/>
      <point x="252" y="774" type="line"/>
      <point x="285" y="1111"/>
      <point x="456" y="1446"/>
      <point x="785" y="1446" type="curve"/>
      <point x="931" y="1446"/>
      <point x="1000" y="1404"/>
      <point x="1044" y="1376" type="curve"/>
      <point x="1052" y="1086" type="line"/>
      <point x="1119" y="1086" type="line"/>
      <point x="1179" y="1442" type="line"/>
      <point x="1115" y="1452"/>
      <point x="988" y="1502"/>
      <point x="804" y="1502" type="curve"/>
      <point x="407" y="1502"/>
      <point x="81" y="1166"/>
      <point x="81" y="613" type="curve"/>
      <point x="81" y="308"/>
      <point x="208" y="-16"/>
    </contour>
    <contour>
      <point x="777" y="0" type="move" name="btm"/>
    </contour>
    <contour>
      <point x="645" y="1660" type="move" name="top"/>
    </contour>
  </outline>
</glyph>
<glyph name="Lje-cy" format="1">
  <advance width="1891"/>
  <unicode hex="0409"/>
  <outline>
    <contour>
      <point x="60" y="-16" type="curve"/>
      <point x="217" y="-16"/>
      <point x="302" y="92"/>
      <point x="378" y="278" type="curve"/>
      <point x="480" y="528"/>
      <point x="562" y="899"/>
      <point x="617" y="1232" type="curve"/>
      <point x="648" y="1420" type="line"/>
      <point x="1055" y="1420" type="line"/>
      <point x="869" y="67" type="line"/>
      <point x="723" y="36" type="line"/>
      <point x="718" y="0" type="line"/>
      <point x="947" y="0" type="line" smooth="yes"/>
      <point x="1023" y="0"/>
      <point x="1115" y="-14"/>
      <point x="1225" y="-14" type="curve"/>
      <point x="1590" y="-14"/>
      <point x="1853" y="155"/>
      <point x="1853" y="479" type="curve"/>
      <point x="1853" y="746"/>
      <point x="1690" y="880"/>
      <point x="1427" y="880" type="curve"/>
      <point x="1332" y="880"/>
      <point x="1216" y="870"/>
      <point x="1135" y="858" type="curve"/>
      <point x="1213" y="1420" type="line"/>
      <point x="1349" y="1450" type="line"/>
      <point x="1354" y="1486" type="line"/>
      <point x="428" y="1486" type="line"/>
      <point x="423" y="1450" type="line"/>
      <point x="559" y="1420" type="line"/>
      <point x="531" y="1240" type="line" smooth="yes"/>
      <point x="470" y="845"/>
      <point x="379" y="494"/>
      <point x="279" y="300" type="curve"/>
      <point x="229" y="203"/>
      <point x="181" y="150"/>
      <point x="91" y="150" type="curve"/>
      <point x="47" y="150"/>
      <point x="16" y="162"/>
      <point x="-22" y="171" type="curve"/>
      <point x="-63" y="6" type="line"/>
      <point x="-18" y="-12"/>
      <point x="33" y="-16"/>
    </contour>
    <contour>
      <point x="1250" y="37" type="curve"/>
      <point x="1160" y="37"/>
      <point x="1078" y="53"/>
      <point x="1027" y="67" type="curve"/>
      <point x="1127" y="794" type="line"/>
      <point x="1181" y="803"/>
      <point x="1240" y="813"/>
      <point x="1320" y="813" type="curve"/>
      <point x="1583" y="813"/>
      <point x="1689" y="720"/>
      <point x="1689" y="465" type="curve"/>
      <point x="1689" y="194"/>
      <point x="1523" y="37"/>
    </contour>
  </outline>
</glyph>
<glyph name="Nje-cy" format="1">
  <advance width="1883"/>
  <unicode hex="040A"/>
  <outline>
    <contour>
      <point x="-34" y="36" type="line"/>
      <point x="-39" y="0" type="line"/>
      <point x="411" y="0" type="line"/>
      <point x="416" y="36" type="line"/>
      <point x="268" y="67" type="line"/>
      <point x="454" y="1420" type="line"/>
      <point x="590" y="1450" type="line"/>
      <point x="595" y="1486" type="line"/>
      <point x="167" y="1486" type="line"/>
      <point x="162" y="1450" type="line"/>
      <point x="298" y="1420" type="line"/>
      <point x="112" y="67" type="line"/>
    </contour>
    <contour>
      <point x="324" y="798" type="line"/>
      <point x="324" y="732" type="line"/>
      <point x="1092" y="732" type="line"/>
      <point x="1092" y="798" type="line"/>
    </contour>
    <contour>
      <point x="1244" y="-14" type="curve"/>
      <point x="1583" y="-14"/>
      <point x="1825" y="155"/>
      <point x="1825" y="492" type="curve"/>
      <point x="1825" y="774"/>
      <point x="1657" y="903"/>
      <point x="1407" y="903" type="curve"/>
      <point x="1300" y="903"/>
      <point x="1164" y="880"/>
      <point x="1095" y="866" type="curve"/>
      <point x="1095" y="803" type="line"/>
      <point x="1162" y="815"/>
      <point x="1237" y="836"/>
      <point x="1341" y="836" type="curve"/>
      <point x="1548" y="836"/>
      <point x="1661" y="743"/>
      <point x="1661" y="483" type="curve"/>
      <point x="1661" y="189"/>
      <point x="1514" y="37"/>
      <point x="1268" y="37" type="curve"/>
      <point x="1184" y="37"/>
      <point x="1101" y="53"/>
      <point x="1050" y="67" type="curve"/>
      <point x="1236" y="1420" type="line"/>
      <point x="1372" y="1450" type="line"/>
      <point x="1377" y="1486" type="line"/>
      <point x="949" y="1486" type="line"/>
      <point x="944" y="1450" type="line"/>
      <point x="1080" y="1420" type="line"/>
      <point x="894" y="67" type="line"/>
      <point x="748" y="36" type="line"/>
      <point x="743" y="0" type="line"/>
      <point x="970" y="0" type="line" smooth="yes"/>
      <point x="1044" y="0"/>
      <point x="1143" y="-14"/>
    </contour>
  </outline>
</glyph>
<glyph name="Tshe-cy" format="1">
  <advance width="1607"/>
  <unicode hex="040B"/>
  <outline>
    <contour>
      <point x="259" y="36" type="line"/>
      <point x="254" y="0" type="line"/>
      <point x="776" y="0" type="line"/>
      <point x="781" y="36" type="line"/>
      <point x="621" y="67" type="line"/>
      <point x="716" y="761" type="line"/>
      <point x="803" y="804"/>
      <point x="942" y="821"/>
      <point x="998" y="821" type="curve"/>
      <point x="1203" y="821"/>
      <point x="1262" y="729"/>
      <point x="1262" y="559" type="curve"/>
      <point x="1262" y="501"/>
      <point x="1253" y="434"/>
      <point x="1242" y="360" type="curve"/>
      <point x="1197" y="66" type="line"/>
      <point x="1061" y="36" type="line"/>
      <point x="1056" y="0" type="line"/>
      <point x="1485" y="0" type="line"/>
      <point x="1490" y="36" type="line"/>
      <point x="1354" y="66" type="line"/>
      <point x="1414" y="474" type="line" smooth="yes"/>
      <point x="1418" y="502"/>
      <point x="1420" y="530"/>
      <point x="1420" y="555" type="curve"/>
      <point x="1420" y="785"/>
      <point x="1291" y="900"/>
      <point x="1043" y="900" type="curve"/>
      <point x="968" y="900"/>
      <point x="828" y="876"/>
      <point x="725" y="827" type="curve"/>
      <point x="807" y="1421" type="line"/>
      <point x="1151" y="1405" type="line"/>
      <point x="1179" y="1060" type="line"/>
      <point x="1239" y="1062" type="line"/>
      <point x="1274" y="1486" type="line"/>
      <point x="212" y="1486" type="line"/>
      <point x="121" y="1062" type="line"/>
      <point x="183" y="1064" type="line"/>
      <point x="319" y="1405" type="line"/>
      <point x="651" y="1421" type="line"/>
      <point x="465" y="67" type="line"/>
    </contour>
    <contour>
      <point x="530" y="-166" type="move" name="btm"/>
    </contour>
    <contour>
      <point x="740" y="1660" type="move" name="top"/>
    </contour>
  </outline>
</glyph>
<glyph name="Dzhe-cy" format="1">
  <advance width="1319"/>
  <unicode hex="040F"/>
  <outline>
    <contour>
      <point x="492" y="-360" type="curve"/>
      <point x="577" y="-360" type="line"/>
      <point x="602" y="-265"/>
      <point x="652" y="-106"/>
      <point x="684" y="0" type="curve"/>
      <point x="1193" y="0" type="line"/>
      <point x="1198" y="36" type="line"/>
      <point x="1062" y="66" type="line"/>
      <point x="1248" y="1419" type="line"/>
      <point x="1394" y="1450" type="line"/>
      <point x="1399" y="1486" type="line"/>
      <point x="949" y="1486" type="line"/>
      <point x="944" y="1450" type="line"/>
      <point x="1092" y="1419" type="line"/>
      <point x="906" y="66" type="line"/>
      <point x="278" y="66" type="line"/>
      <point x="464" y="1419" type="line"/>
      <point x="610" y="1450" type="line"/>
      <point x="615" y="1486" type="line"/>
      <point x="165" y="1486" type="line"/>
      <point x="160" y="1450" type="line"/>
      <point x="308" y="1419" type="line"/>
      <point x="122" y="66" type="line"/>
      <point x="-14" y="36" type="line"/>
      <point x="-19" y="0" type="line"/>
      <point x="508" y="0" type="line"/>
      <point x="512" y="-82"/>
      <point x="503" y="-249"/>
    </contour>
    <contour>
      <point x="798" y="-166" type="move" name="btm"/>
    </contour>
    <contour>
      <point x="724" y="1660" type="move" name="top"/>
    </contour>
  </outline>
</glyph>
<glyph name="Be-cy" format="1">
  <advance width="1152"/>
  <unicode hex="0411"/>
  <outline>
    <contour>
      <point x="466" y="-14" type="curve"/>
      <point x="818" y="-14"/>
      <point x="1094" y="155"/>
      <point x="1094" y="482" type="curve"/>
      <point x="1094" y="781"/>
      <point x="893" y="904"/>
      <point x="619" y="904" type="curve"/>
      <point x="551" y="904"/>
      <point x="457" y="891"/>
      <point x="376" y="879" type="curve"/>
      <point x="454" y="1420" type="line"/>
      <point x="973" y="1404" type="line"/>
      <point x="999" y="1062" type="line"/>
      <point x="1059" y="1062" type="line"/>
      <point x="1095" y="1486" type="line"/>
      <point x="167" y="1486" type="line"/>
      <point x="162" y="1450" type="line"/>
      <point x="298" y="1420" type="line"/>
      <point x="112" y="67" type="line"/>
      <point x="-34" y="36" type="line"/>
      <point x="-39" y="0" type="line"/>
      <point x="188" y="0" type="line" smooth="yes"/>
      <point x="264" y="0"/>
      <point x="356" y="-14"/>
    </contour>
    <contour>
      <point x="491" y="37" type="curve"/>
      <point x="401" y="37"/>
      <point x="319" y="53"/>
      <point x="268" y="67" type="curve"/>
      <point x="368" y="817" type="line"/>
      <point x="422" y="826"/>
      <point x="484" y="836"/>
      <point x="564" y="836" type="curve"/>
      <point x="805" y="836"/>
      <point x="930" y="735"/>
      <point x="930" y="463" type="curve"/>
      <point x="930" y="207"/>
      <point x="764" y="37"/>
    </contour>
    <contour>
      <point x="427" y="-166" type="move" name="btm"/>
    </contour>
    <contour>
      <point x="585" y="1486" type="move" name="top"/>
    </contour>
  </outline>
</glyph>
<glyph name="Ge-cy" format="1">
  <advance width="923"/>
  <unicode hex="0413"/>
  <outline>
    <contour>
      <point x="-26" y="36" type="line"/>
      <point x="-30" y="0" type="line"/>
      <point x="469" y="0" type="line"/>
      <point x="474" y="36" type="line"/>
      <point x="266" y="67" type="line"/>
      <point x="455" y="1428" type="line"/>
      <point x="868" y="1405" type="line"/>
      <point x="896" y="1061" type="line"/>
      <point x="956" y="1061" type="line"/>
      <point x="992" y="1486" type="line"/>
      <point x="165" y="1486" type="line"/>
      <point x="160" y="1450" type="line"/>
      <point x="296" y="1421" type="line"/>
      <point x="110" y="67" type="line"/>
    </contour>
    <contour>
      <point x="434" y="-166" type="move" name="btm"/>
    </contour>
    <contour>
      <point x="619" y="1486" type="move" name="top"/>
    </contour>
  </outline>
</glyph>
<glyph name="De-cy" format="1">
  <advance width="1333"/>
  <unicode hex="0414"/>
  <outline>
    <contour>
      <point x="-98" y="-360" type="curve"/>
      <point x="0" y="-360" type="line"/>
      <point x="29" y="-279"/>
      <point x="91" y="-99"/>
      <point x="123" y="0" type="curve"/>
      <point x="1080" y="0" type="line"/>
      <point x="1070" y="-95"/>
      <point x="1046" y="-246"/>
      <point x="1034" y="-360" type="curve"/>
      <point x="1132" y="-360" type="line"/>
      <point x="1148" y="-316"/>
      <point x="1209" y="-79"/>
      <point x="1241" y="67" type="curve"/>
      <point x="1060" y="67" type="line"/>
      <point x="1246" y="1420" type="line"/>
      <point x="1382" y="1450" type="line"/>
      <point x="1387" y="1486" type="line"/>
      <point x="443" y="1486" type="line"/>
      <point x="438" y="1450" type="line"/>
      <point x="574" y="1420" type="line"/>
      <point x="546" y="1240" type="line" smooth="yes"/>
      <point x="486" y="848"/>
      <point x="301" y="255"/>
      <point x="145" y="67" type="curve"/>
      <point x="-14" y="67" type="line"/>
      <point x="-38" y="-32"/>
      <point x="-81" y="-265"/>
    </contour>
    <contour>
      <point x="904" y="67" type="line"/>
      <point x="259" y="67" type="line"/>
      <point x="437" y="323"/>
      <point x="579" y="909"/>
      <point x="632" y="1232" type="curve"/>
      <point x="663" y="1420" type="line"/>
      <point x="1090" y="1420" type="line"/>
    </contour>
    <contour>
      <point x="519" y="-166" type="move" name="btm"/>
    </contour>
  </outline>
</glyph>
<glyph name="Zhe-cy" format="1">
  <advance width="1952"/>
  <unicode hex="0416"/>
  <outline>
    <contour>
      <point x="-79" y="36" type="line"/>
      <point x="-84" y="0" type="line"/>
      <point x="131" y="0" type="line" smooth="yes"/>
      <point x="237" y="0"/>
      <point x="560" y="723"/>
      <point x="713" y="723" type="curve"/>
      <point x="874" y="723" type="line"/>
      <point x="882" y="794" type="line"/>
      <point x="718" y="794" type="line"/>
      <point x="360" y="1422" type="line"/>
      <point x="515" y="1450" type="line"/>
      <point x="519" y="1486" type="line"/>
      <point x="115" y="1486" type="line"/>
      <point x="111" y="1450" type="line"/>
      <point x="252" y="1420" type="line"/>
      <point x="666" y="731" type="line"/>
      <point x="644" y="783" type="line"/>
      <point x="517" y="795"/>
      <point x="364" y="552"/>
      <point x="215" y="327" type="curve"/>
      <point x="125" y="191"/>
      <point x="45" y="71"/>
      <point x="5" y="60" type="curve"/>
    </contour>
    <contour>
      <point x="613" y="36" type="line"/>
      <point x="607" y="0" type="line"/>
      <point x="1064" y="0" type="line"/>
      <point x="1069" y="36" type="line"/>
      <point x="919" y="67" type="line"/>
      <point x="1100" y="1420" type="line"/>
      <point x="1242" y="1450" type="line"/>
      <point x="1246" y="1486" type="line"/>
      <point x="817" y="1486" type="line"/>
      <point x="813" y="1450" type="line"/>
      <point x="946" y="1420" type="line"/>
      <point x="763" y="67" type="line"/>
    </contour>
    <contour>
      <point x="1584" y="0" type="curve"/>
      <point x="1811" y="0" type="line"/>
      <point x="1812" y="36" type="line"/>
      <point x="1725" y="59" type="line"/>
      <point x="1673" y="76"/>
      <point x="1599" y="235"/>
      <point x="1526" y="415" type="curve"/>
      <point x="1432" y="646"/>
      <point x="1323" y="811"/>
      <point x="1198" y="793" type="curve"/>
      <point x="1214" y="743" type="line"/>
      <point x="1814" y="1426" type="line"/>
      <point x="1945" y="1451" type="line"/>
      <point x="1951" y="1486" type="line"/>
      <point x="1560" y="1486" type="line"/>
      <point x="1554" y="1450" type="line"/>
      <point x="1709" y="1425" type="line"/>
      <point x="1178" y="795" type="line"/>
      <point x="953" y="795" type="line"/>
      <point x="944" y="723" type="line"/>
      <point x="1125" y="723" type="line" smooth="yes"/>
      <point x="1302" y="723"/>
      <point x="1477" y="0"/>
    </contour>
    <contour>
      <point x="1771.166" y="0" type="move" name="bottomright"/>
    </contour>
    <contour>
      <point x="1038" y="1486" type="move" name="top"/>
    </contour>
  </outline>
</glyph>
<glyph name="Ii-cy" format="1">
  <advance width="1379"/>
  <unicode hex="0418"/>
  <outline>
    <contour>
      <point x="-34" y="36" type="line"/>
      <point x="-39" y="0" type="line"/>
      <point x="411" y="0" type="line"/>
      <point x="416" y="36" type="line"/>
      <point x="268" y="67" type="line"/>
      <point x="286" y="199" type="line"/>
      <point x="229" y="69" type="line"/>
      <point x="998" y="1003" type="line"/>
      <point x="1162" y="1206" type="line"/>
      <point x="1125" y="1222" type="line"/>
      <point x="966" y="67" type="line"/>
      <point x="820" y="36" type="line"/>
      <point x="815" y="0" type="line"/>
      <point x="1265" y="0" type="line"/>
      <point x="1270" y="36" type="line"/>
      <point x="1122" y="67" type="line"/>
      <point x="1308" y="1420" type="line"/>
      <point x="1444" y="1450" type="line"/>
      <point x="1449" y="1486" type="line"/>
      <point x="1021" y="1486" type="line"/>
      <point x="1016" y="1450" type="line"/>
      <point x="1152" y="1420" type="line"/>
      <point x="1120" y="1184" type="line"/>
      <point x="1177" y="1314" type="line"/>
      <point x="456" y="438" type="line"/>
      <point x="244" y="177" type="line"/>
      <point x="281" y="161" type="line"/>
      <point x="454" y="1420" type="line"/>
      <point x="590" y="1450" type="line"/>
      <point x="595" y="1486" type="line"/>
      <point x="167" y="1486" type="line"/>
      <point x="162" y="1450" type="line"/>
      <point x="298" y="1420" type="line"/>
      <point x="112" y="67" type="line"/>
    </contour>
    <contour>
      <point x="1421" y="0" type="move" name="bottomright"/>
    </contour>
    <contour>
      <point x="881" y="1486" type="move" name="top"/>
    </contour>
  </outline>
</glyph>
<glyph name="Ka-cy" format="1">
  <advance width="1213"/>
  <unicode hex="041A"/>
  <outline>
    <contour>
      <point x="929" y="0" type="curve"/>
      <point x="1156" y="0" type="line"/>
      <point x="1160" y="36" type="line"/>
      <point x="1073" y="59" type="line"/>
      <point x="1021" y="76"/>
      <point x="948" y="235"/>
      <point x="917" y="310" type="curve"/>
      <point x="773" y="662"/>
      <point x="678" y="811"/>
      <point x="553" y="793" type="curve"/>
      <point x="569" y="743" type="line"/>
      <point x="1169" y="1428" type="line"/>
      <point x="1300" y="1450" type="line"/>
      <point x="1306" y="1486" type="line"/>
      <point x="912" y="1486" type="line"/>
      <point x="906" y="1450" type="line"/>
      <point x="1060" y="1428" type="line"/>
      <point x="531" y="795" type="line"/>
      <point x="308" y="795" type="line"/>
      <point x="299" y="723" type="line"/>
      <point x="480" y="723" type="line" smooth="yes"/>
      <point x="657" y="723"/>
      <point x="822" y="0"/>
    </contour>
    <contour>
      <point x="-34" y="36" type="line"/>
      <point x="-39" y="0" type="line"/>
      <point x="411" y="0" type="line"/>
      <point x="416" y="36" type="line"/>
      <point x="268" y="67" type="line"/>
      <point x="454" y="1420" type="line"/>
      <point x="590" y="1450" type="line"/>
      <point x="595" y="1486" type="line"/>
      <point x="167" y="1486" type="line"/>
      <point x="162" y="1450" type="line"/>
      <point x="298" y="1420" type="line"/>
      <point x="112" y="67" type="line"/>
    </contour>
    <contour>
      <point x="1167" y="0" type="move" name="bottomright"/>
    </contour>
    <contour>
      <point x="759" y="1486" type="move" name="top"/>
    </contour>
  </outline>
</glyph>
<glyph name="El-cy" format="1">
  <advance width="1295"/>
  <unicode hex="041B"/>
  <outline>
    <contour>
      <point x="91" y="-16" type="curve"/>
      <point x="234" y="-16"/>
      <point x="323" y="78"/>
      <point x="389" y="270" type="curve"/>
      <point x="467" y="498"/>
      <point x="538" y="899"/>
      <point x="593" y="1232" type="curve"/>
      <point x="624" y="1420" type="line"/>
      <point x="1049" y="1420" type="line"/>
      <point x="863" y="67" type="line"/>
      <point x="717" y="36" type="line"/>
      <point x="712" y="0" type="line"/>
      <point x="1162" y="0" type="line"/>
      <point x="1167" y="36" type="line"/>
      <point x="1019" y="67" type="line"/>
      <point x="1205" y="1420" type="line"/>
      <point x="1341" y="1450" type="line"/>
      <point x="1346" y="1486" type="line"/>
      <point x="402" y="1486" type="line"/>
      <point x="397" y="1450" type="line"/>
      <point x="538" y="1420" type="line"/>
      <point x="507" y="1240" type="line" smooth="yes"/>
      <point x="439" y="845"/>
      <point x="378" y="513"/>
      <point x="296" y="319" type="curve"/>
      <point x="255" y="222"/>
      <point x="210" y="150"/>
      <point x="120" y="150" type="curve"/>
      <point x="88" y="150"/>
      <point x="45" y="159"/>
      <point x="8" y="173" type="curve"/>
      <point x="-33" y="11" type="line"/>
      <point x="-5" y="-5"/>
      <point x="50" y="-16"/>
    </contour>
    <contour>
      <point x="435" y="-166" type="move" name="btm"/>
    </contour>
    <contour>
      <point x="507" y="1660" type="move" name="top"/>
    </contour>
  </outline>
</glyph>
<glyph name="Pe-cy" format="1">
  <advance width="1339"/>
  <unicode hex="041F"/>
  <outline>
    <contour>
      <point x="-34" y="36" type="line"/>
      <point x="-39" y="0" type="line"/>
      <point x="411" y="0" type="line"/>
      <point x="416" y="36" type="line"/>
      <point x="268" y="67" type="line"/>
      <point x="454" y="1420" type="line"/>
      <point x="1102" y="1420" type="line"/>
      <point x="916" y="67" type="line"/>
      <point x="770" y="36" type="line"/>
      <point x="765" y="0" type="line"/>
      <point x="1215" y="0" type="line"/>
      <point x="1220" y="36" type="line"/>
      <point x="1072" y="67" type="line"/>
      <point x="1258" y="1420" type="line"/>
      <point x="1394" y="1450" type="line"/>
      <point x="1399" y="1486" type="line"/>
      <point x="167" y="1486" type="line"/>
      <point x="162" y="1450" type="line"/>
      <point x="298" y="1420" type="line"/>
      <point x="112" y="67" type="line"/>
    </contour>
    <contour>
      <point x="705" y="-166" type="move" name="btm"/>
    </contour>
    <contour>
      <point x="685" y="1660" type="move" name="top"/>
    </contour>
  </outline>
</glyph>
<glyph name="U-cy" format="1">
  <advance width="1175"/>
  <unicode hex="0423"/>
  <outline>
    <contour>
      <point x="296" y="-22" type="curve"/>
      <point x="491" y="-22"/>
      <point x="612" y="195"/>
      <point x="675" y="326" type="curve"/>
      <point x="1206" y="1432" type="line"/>
      <point x="1320" y="1450" type="line"/>
      <point x="1324" y="1486" type="line"/>
      <point x="951" y="1486" type="line"/>
      <point x="946" y="1450" type="line"/>
      <point x="1096" y="1430" type="line"/>
      <point x="752" y="651" type="line"/>
      <point x="634" y="382" type="line"/>
      <point x="671" y="365" type="line"/>
      <point x="594" y="649" type="line"/>
      <point x="352" y="1430" type="line"/>
      <point x="526" y="1450" type="line"/>
      <point x="531" y="1486" type="line"/>
      <point x="86" y="1486" type="line"/>
      <point x="80" y="1450" type="line"/>
      <point x="189" y="1430" type="line"/>
      <point x="585" y="244" type="line"/>
      <point x="631" y="387" type="line"/>
      <point x="500" y="129"/>
      <point x="384" y="115"/>
      <point x="310" y="115" type="curve"/>
      <point x="243" y="115"/>
      <point x="186" y="129"/>
      <point x="146" y="144" type="curve"/>
      <point x="129" y="11" type="line"/>
      <point x="170" y="-7"/>
      <point x="211" y="-22"/>
    </contour>
    <contour>
      <point x="719" y="1486" type="move" name="top"/>
    </contour>
  </outline>
</glyph>
<glyph name="Ef-cy" format="1">
  <advance width="1573"/>
  <unicode hex="0424"/>
  <outline>
    <contour>
      <point x="502" y="18" type="line"/>
      <point x="497" y="-18" type="line"/>
      <point x="947" y="-18" type="line"/>
      <point x="952" y="18" type="line"/>
      <point x="804" y="49" type="line"/>
      <point x="992" y="1435" type="line"/>
      <point x="1128" y="1465" type="line"/>
      <point x="1133" y="1501" type="line"/>
      <point x="705" y="1501" type="line"/>
      <point x="700" y="1465" type="line"/>
      <point x="836" y="1435" type="line"/>
      <point x="648" y="49" type="line"/>
    </contour>
    <contour>
      <point x="687" y="212" type="curve"/>
      <point x="697" y="268" type="line"/>
      <point x="362" y="289"/>
      <point x="246" y="465"/>
      <point x="246" y="710" type="curve"/>
      <point x="246" y="1049"/>
      <point x="468" y="1215"/>
      <point x="824" y="1232" type="curve"/>
      <point x="833" y="1287" type="line"/>
      <point x="372" y="1270"/>
      <point x="86" y="1061"/>
      <point x="86" y="703" type="curve"/>
      <point x="86" y="381"/>
      <point x="316" y="224"/>
    </contour>
    <contour>
      <point x="819" y="267" type="curve"/>
      <point x="807" y="213" type="line"/>
      <point x="1326" y="237"/>
      <point x="1559" y="525"/>
      <point x="1559" y="828" type="curve"/>
      <point x="1559" y="1115"/>
      <point x="1351" y="1273"/>
      <point x="953" y="1287" type="curve"/>
      <point x="947" y="1232" type="line"/>
      <point x="1259" y="1217"/>
      <point x="1399" y="1088"/>
      <point x="1399" y="808" type="curve"/>
      <point x="1399" y="456"/>
      <point x="1177" y="282"/>
    </contour>
    <contour>
      <point x="651" y="-166" type="move" name="btm"/>
    </contour>
    <contour>
      <point x="645" y="1660" type="move" name="top"/>
    </contour>
  </outline>
</glyph>
<glyph name="Tse-cy" format="1">
  <advance width="1352"/>
  <unicode hex="0426"/>
  <outline>
    <contour>
      <point x="1052" y="-360" type="curve"/>
      <point x="1152" y="-360" type="line"/>
      <point x="1181" y="-277"/>
      <point x="1230" y="-66"/>
      <point x="1260" y="67" type="curve"/>
      <point x="1082" y="67" type="line"/>
      <point x="1269" y="1419" type="line"/>
      <point x="1415" y="1450" type="line"/>
      <point x="1420" y="1486" type="line"/>
      <point x="969" y="1486" type="line"/>
      <point x="964" y="1450" type="line"/>
      <point x="1112" y="1419" type="line"/>
      <point x="926" y="66" type="line"/>
      <point x="278" y="66" type="line"/>
      <point x="464" y="1419" type="line"/>
      <point x="610" y="1450" type="line"/>
      <point x="615" y="1486" type="line"/>
      <point x="165" y="1486" type="line"/>
      <point x="160" y="1450" type="line"/>
      <point x="308" y="1419" type="line"/>
      <point x="122" y="66" type="line"/>
      <point x="-14" y="36" type="line"/>
      <point x="-19" y="0" type="line"/>
      <point x="1100" y="0" type="line"/>
      <point x="1088" y="-108"/>
      <point x="1062" y="-296"/>
    </contour>
    <contour>
      <point x="819" y="1486" type="move" name="top"/>
    </contour>
  </outline>
</glyph>
<glyph name="Sha-cy" format="1">
  <advance width="1995"/>
  <unicode hex="0428"/>
  <outline>
    <contour>
      <point x="-14" y="36" type="line"/>
      <point x="-19" y="0" type="line"/>
      <point x="1855" y="0" type="line"/>
      <point x="1860" y="36" type="line"/>
      <point x="1724" y="66" type="line"/>
      <point x="1910" y="1419" type="line"/>
      <point x="2056" y="1450" type="line"/>
      <point x="2061" y="1486" type="line"/>
      <point x="1611" y="1486" type="line"/>
      <point x="1606" y="1450" type="line"/>
      <point x="1754" y="1419" type="line"/>
      <point x="1568" y="66" type="line"/>
      <point x="1001" y="66" type="line"/>
      <point x="1188" y="1419" type="line"/>
      <point x="1334" y="1450" type="line"/>
      <point x="1339" y="1486" type="line"/>
      <point x="889" y="1486" type="line"/>
      <point x="884" y="1450" type="line"/>
      <point x="1032" y="1419" type="line"/>
      <point x="845" y="66" type="line"/>
      <point x="278" y="66" type="line"/>
      <point x="464" y="1419" type="line"/>
      <point x="610" y="1450" type="line"/>
      <point x="615" y="1486" type="line"/>
      <point x="165" y="1486" type="line"/>
      <point x="160" y="1450" type="line"/>
      <point x="308" y="1419" type="line"/>
      <point x="122" y="66" type="line"/>
    </contour>
    <contour>
      <point x="886" y="1660" type="move" name="top"/>
    </contour>
  </outline>
</glyph>
<glyph name="Shcha-cy" format="1">
  <advance width="1994"/>
  <unicode hex="0429"/>
  <outline>
    <contour>
      <point x="1694" y="-361" type="curve"/>
      <point x="1794" y="-361" type="line"/>
      <point x="1823" y="-278"/>
      <point x="1872" y="-67"/>
      <point x="1902" y="66" type="curve"/>
      <point x="1724" y="66" type="line"/>
      <point x="1910" y="1419" type="line"/>
      <point x="2056" y="1450" type="line"/>
      <point x="2061" y="1486" type="line"/>
      <point x="1611" y="1486" type="line"/>
      <point x="1606" y="1450" type="line"/>
      <point x="1754" y="1419" type="line"/>
      <point x="1568" y="66" type="line"/>
      <point x="1001" y="66" type="line"/>
      <point x="1188" y="1419" type="line"/>
      <point x="1334" y="1450" type="line"/>
      <point x="1339" y="1486" type="line"/>
      <point x="889" y="1486" type="line"/>
      <point x="884" y="1450" type="line"/>
      <point x="1032" y="1419" type="line"/>
      <point x="845" y="66" type="line"/>
      <point x="278" y="66" type="line"/>
      <point x="464" y="1419" type="line"/>
      <point x="610" y="1450" type="line"/>
      <point x="615" y="1486" type="line"/>
      <point x="165" y="1486" type="line"/>
      <point x="160" y="1450" type="line"/>
      <point x="308" y="1419" type="line"/>
      <point x="122" y="66" type="line"/>
      <point x="-14" y="36" type="line"/>
      <point x="-19" y="0" type="line"/>
      <point x="1742" y="-1" type="line"/>
      <point x="1730" y="-109"/>
      <point x="1704" y="-297"/>
    </contour>
    <component base="Sha-cy"/>
    <contour>
      <point x="886" y="1660" type="move" name="top"/>
    </contour>
  </outline>
</glyph>
<glyph name="Hardsign-cy" format="1">
  <advance width="1482"/>
  <unicode hex="042A"/>
  <outline>
    <contour>
      <point x="795" y="-14" type="curve"/>
      <point x="1162" y="-14"/>
      <point x="1425" y="156"/>
      <point x="1425" y="491" type="curve"/>
      <point x="1425" y="774"/>
      <point x="1238" y="903"/>
      <point x="963" y="903" type="curve"/>
      <point x="880" y="903"/>
      <point x="783" y="890"/>
      <point x="708" y="879" type="curve"/>
      <point x="785" y="1420" type="line"/>
      <point x="921" y="1450" type="line"/>
      <point x="926" y="1486" type="line"/>
      <point x="187" y="1486" type="line"/>
      <point x="121" y="1062" type="line"/>
      <point x="183" y="1062" type="line"/>
      <point x="294" y="1410" type="line"/>
      <point x="629" y="1420" type="line"/>
      <point x="443" y="67" type="line"/>
      <point x="297" y="36" type="line"/>
      <point x="292" y="0" type="line"/>
      <point x="519" y="0" type="line" smooth="yes"/>
      <point x="594" y="0"/>
      <point x="690" y="-14"/>
    </contour>
    <contour>
      <point x="820" y="37" type="curve"/>
      <point x="732" y="37"/>
      <point x="650" y="53"/>
      <point x="599" y="67" type="curve"/>
      <point x="699" y="815" type="line"/>
      <point x="753" y="825"/>
      <point x="813" y="836"/>
      <point x="894" y="836" type="curve"/>
      <point x="1129" y="836"/>
      <point x="1261" y="743"/>
      <point x="1261" y="482" type="curve"/>
      <point x="1261" y="190"/>
      <point x="1095" y="37"/>
    </contour>
  </outline>
</glyph>
<glyph name="Softsign-cy" format="1">
  <advance width="1152"/>
  <unicode hex="042C"/>
  <outline>
    <contour>
      <point x="464" y="-14" type="curve"/>
      <point x="831" y="-14"/>
      <point x="1094" y="159"/>
      <point x="1094" y="485" type="curve"/>
      <point x="1094" y="774"/>
      <point x="915" y="903"/>
      <point x="613" y="903" type="curve"/>
      <point x="524" y="903"/>
      <point x="382" y="880"/>
      <point x="313" y="866" type="curve"/>
      <point x="313" y="803" type="line"/>
      <point x="380" y="815"/>
      <point x="455" y="836"/>
      <point x="559" y="836" type="curve"/>
      <point x="802" y="836"/>
      <point x="930" y="743"/>
      <point x="930" y="475" type="curve"/>
      <point x="930" y="193"/>
      <point x="764" y="37"/>
      <point x="489" y="37" type="curve"/>
      <point x="401" y="37"/>
      <point x="319" y="53"/>
      <point x="268" y="67" type="curve"/>
      <point x="454" y="1420" type="line"/>
      <point x="590" y="1450" type="line"/>
      <point x="595" y="1486" type="line"/>
      <point x="167" y="1486" type="line"/>
      <point x="162" y="1450" type="line"/>
      <point x="298" y="1420" type="line"/>
      <point x="112" y="67" type="line"/>
      <point x="-34" y="36" type="line"/>
      <point x="-39" y="0" type="line"/>
      <point x="188" y="0" type="line" smooth="yes"/>
      <point x="263" y="0"/>
      <point x="359" y="-14"/>
    </contour>
  </outline>
</glyph>
<glyph name="Ereversed-cy" format="1">
  <advance width="1223"/>
  <unicode hex="042D"/>
  <outline>
    <contour>
      <point x="386" y="-15" type="curve"/>
      <point x="845" y="-15"/>
      <point x="1149" y="341"/>
      <point x="1149" y="891" type="curve"/>
      <point x="1149" y="1230"/>
      <point x="976" y="1502"/>
      <point x="590" y="1502" type="curve"/>
      <point x="445" y="1502"/>
      <point x="268" y="1465"/>
      <point x="197" y="1440" type="curve"/>
      <point x="149" y="1086" type="line"/>
      <point x="216" y="1086" type="line"/>
      <point x="236" y="1159"/>
      <point x="287" y="1299"/>
      <point x="309" y="1369" type="curve"/>
      <point x="366" y="1413"/>
      <point x="486" y="1449"/>
      <point x="601" y="1445" type="curve"/>
      <point x="897" y="1434"/>
      <point x="984" y="1165"/>
      <point x="984" y="906" type="curve"/>
      <point x="984" y="867"/>
      <point x="982" y="819"/>
      <point x="978" y="773" type="curve"/>
      <point x="771" y="788"/>
      <point x="564" y="803"/>
      <point x="357" y="818" type="curve"/>
      <point x="329" y="690" type="line"/>
      <point x="971" y="709" type="line"/>
      <point x="919" y="349"/>
      <point x="766" y="41"/>
      <point x="422" y="41" type="curve"/>
      <point x="317" y="41"/>
      <point x="218" y="70"/>
      <point x="185" y="92" type="curve"/>
      <point x="168" y="394" type="line"/>
      <point x="101" y="394" type="line"/>
      <point x="39" y="45" type="line"/>
      <point x="167" y="7"/>
      <point x="272" y="-15"/>
    </contour>
    <contour>
      <point x="707" y="1486" type="move" name="top"/>
    </contour>
  </outline>
</glyph>
<glyph name="Iu-cy" format="1">
  <advance width="1821"/>
  <unicode hex="042E"/>
  <outline>
    <contour>
      <point x="1150" y="-22" type="curve"/>
      <point x="1534" y="-22"/>
      <point x="1805" y="363"/>
      <point x="1805" y="866" type="curve"/>
      <point x="1805" y="1251"/>
      <point x="1656" y="1503"/>
      <point x="1344" y="1503" type="curve"/>
      <point x="1004" y="1503"/>
      <point x="755" y="1217"/>
      <point x="697" y="798" type="curve"/>
      <point x="368" y="798" type="line"/>
      <point x="454" y="1420" type="line"/>
      <point x="590" y="1450" type="line"/>
      <point x="595" y="1486" type="line"/>
      <point x="167" y="1486" type="line"/>
      <point x="162" y="1450" type="line"/>
      <point x="298" y="1420" type="line"/>
      <point x="112" y="67" type="line"/>
      <point x="-34" y="36" type="line"/>
      <point x="-39" y="0" type="line"/>
      <point x="411" y="0" type="line"/>
      <point x="416" y="36" type="line"/>
      <point x="268" y="67" type="line"/>
      <point x="359" y="732" type="line"/>
      <point x="690" y="732" type="line"/>
      <point x="686" y="691"/>
      <point x="684" y="648"/>
      <point x="684" y="605" type="curve"/>
      <point x="684" y="217"/>
      <point x="848" y="-22"/>
    </contour>
    <contour>
      <point x="1177" y="29" type="curve"/>
      <point x="970" y="29"/>
      <point x="848" y="249"/>
      <point x="848" y="633" type="curve"/>
      <point x="848" y="1095"/>
      <point x="1048" y="1452"/>
      <point x="1320" y="1452" type="curve"/>
      <point x="1529" y="1452"/>
      <point x="1641" y="1237"/>
      <point x="1641" y="876" type="curve"/>
      <point x="1641" y="401"/>
      <point x="1446" y="29"/>
    </contour>
    <contour>
      <point x="908" y="1660" type="move" name="top"/>
    </contour>
  </outline>
</glyph>
<glyph name="Ia-cy" format="1">
  <advance width="1227"/>
  <unicode hex="042F"/>
  <outline>
    <contour>
      <point x="-47" y="36" type="line"/>
      <point x="-53" y="0" type="line"/>
      <point x="122" y="0" type="line" smooth="yes"/>
      <point x="243" y="0"/>
      <point x="541" y="603"/>
      <point x="745" y="681" type="curve"/>
      <point x="812" y="681"/>
      <point x="857" y="682"/>
      <point x="912" y="682" type="curve"/>
      <point x="829" y="67" type="line"/>
      <point x="638" y="36" type="line"/>
      <point x="633" y="0" type="line"/>
      <point x="1123" y="0" type="line"/>
      <point x="1128" y="36" type="line"/>
      <point x="985" y="67" type="line"/>
      <point x="1166" y="1422" type="line"/>
      <point x="1304" y="1450" type="line"/>
      <point x="1308" y="1486" type="line"/>
      <point x="1112" y="1486" type="line" smooth="yes"/>
      <point x="1004" y="1486"/>
      <point x="922" y="1502"/>
      <point x="821" y="1502" type="curve"/>
      <point x="465" y="1502"/>
      <point x="258" y="1303"/>
      <point x="258" y="1048" type="curve"/>
      <point x="258" y="823"/>
      <point x="418" y="693"/>
      <point x="649" y="684" type="curve"/>
      <point x="665" y="699" type="line"/>
      <point x="418" y="699"/>
      <point x="113" y="64"/>
      <point x="-1" y="44" type="curve"/>
    </contour>
    <contour>
      <point x="727" y="737" type="curve"/>
      <point x="573" y="737"/>
      <point x="419" y="849"/>
      <point x="419" y="1062" type="curve"/>
      <point x="419" y="1287"/>
      <point x="591" y="1444"/>
      <point x="807" y="1444" type="curve"/>
      <point x="928" y="1444"/>
      <point x="976" y="1442"/>
      <point x="1014" y="1438" type="curve"/>
      <point x="919" y="741" type="line"/>
      <point x="879" y="737"/>
      <point x="783" y="737"/>
    </contour>
    <contour>
      <point x="515" y="1660" type="move" name="top"/>
    </contour>
  </outline>
</glyph>
<glyph name="ve-cy" format="1">
  <advance width="976"/>
  <unicode hex="0432"/>
  <outline>
    <contour>
      <point x="422" y="-18" type="curve"/>
      <point x="644" y="-18"/>
      <point x="878" y="125"/>
      <point x="878" y="336" type="curve"/>
      <point x="878" y="455"/>
      <point x="793" y="541"/>
      <point x="631" y="538" type="curve"/>
      <point x="777" y="583"/>
      <point x="881" y="689"/>
      <point x="881" y="827" type="curve"/>
      <point x="881" y="938"/>
      <point x="813" y="1024"/>
      <point x="616" y="1024" type="curve"/>
      <point x="364" y="1024"/>
      <point x="88" y="777"/>
      <point x="88" y="377" type="curve"/>
      <point x="88" y="98"/>
      <point x="219" y="-18"/>
    </contour>
    <contour>
      <point x="453" y="33" type="curve"/>
      <point x="319" y="33"/>
      <point x="233" y="145"/>
      <point x="233" y="374" type="curve"/>
      <point x="233" y="693"/>
      <point x="372" y="968"/>
      <point x="570" y="968" type="curve"/>
      <point x="676" y="968"/>
      <point x="722" y="916"/>
      <point x="722" y="808" type="curve"/>
      <point x="722" y="641"/>
      <point x="582" y="571"/>
      <point x="453" y="546" type="curve"/>
      <point x="214" y="500" type="line"/>
      <point x="201" y="441" type="line"/>
      <point x="346" y="471" type="line" smooth="yes"/>
      <point x="473" y="497"/>
      <point x="496" y="493"/>
      <point x="521" y="493" type="curve"/>
      <point x="655" y="493"/>
      <point x="720" y="419"/>
      <point x="720" y="309" type="curve"/>
      <point x="720" y="148"/>
      <point x="607" y="33"/>
    </contour>
  </outline>
</glyph>
<glyph name="zhe-cy" format="1">
  <advance width="1637"/>
  <unicode hex="0436"/>
  <outline>
    <contour>
      <point x="1094" y="547" type="curve"/>
      <point x="885" y="547" type="line"/>
      <point x="940" y="1004" type="line"/>
      <point x="797" y="1004" type="line"/>
      <point x="744" y="547" type="line"/>
      <point x="541" y="547" type="line"/>
      <point x="543" y="570"/>
      <point x="545" y="596"/>
      <point x="545" y="621" type="curve"/>
      <point x="545" y="919"/>
      <point x="436" y="1015"/>
      <point x="288" y="1015" type="curve"/>
      <point x="157" y="1015"/>
      <point x="62" y="896"/>
      <point x="22" y="837" type="curve"/>
      <point x="43" y="813" type="line"/>
      <point x="104" y="876"/>
      <point x="158" y="931"/>
      <point x="240" y="931" type="curve"/>
      <point x="297" y="931"/>
      <point x="392" y="883"/>
      <point x="392" y="626" type="curve"/>
      <point x="392" y="251"/>
      <point x="233" y="39"/>
      <point x="125" y="39" type="curve"/>
      <point x="108" y="39"/>
      <point x="21" y="156"/>
      <point x="11" y="168" type="curve"/>
      <point x="-41" y="16" type="line"/>
      <point x="-16" y="-5"/>
      <point x="24" y="-20"/>
      <point x="84" y="-20" type="curve"/>
      <point x="292" y="-20"/>
      <point x="470" y="178"/>
      <point x="534" y="492" type="curve"/>
      <point x="737" y="492" type="line"/>
      <point x="677" y="0" type="line"/>
      <point x="818" y="0" type="line"/>
      <point x="878" y="492" type="line"/>
      <point x="1082" y="492" type="line"/>
      <point x="1074" y="421"/>
      <point x="1072" y="380"/>
      <point x="1072" y="339" type="curve"/>
      <point x="1072" y="81"/>
      <point x="1188" y="-20"/>
      <point x="1326" y="-20" type="curve"/>
      <point x="1468" y="-20"/>
      <point x="1558" y="105"/>
      <point x="1595" y="158" type="curve"/>
      <point x="1574" y="182" type="line"/>
      <point x="1498" y="101"/>
      <point x="1449" y="64"/>
      <point x="1379" y="64" type="curve"/>
      <point x="1305" y="64"/>
      <point x="1225" y="141"/>
      <point x="1225" y="364" type="curve"/>
      <point x="1225" y="734"/>
      <point x="1378" y="956"/>
      <point x="1492" y="956" type="curve"/>
      <point x="1507" y="956"/>
      <point x="1596" y="839"/>
      <point x="1606" y="827" type="curve"/>
      <point x="1658" y="979" type="line"/>
      <point x="1630" y="1003"/>
      <point x="1589" y="1015"/>
      <point x="1529" y="1015" type="curve"/>
      <point x="1327" y="1015"/>
      <point x="1156" y="816"/>
    </contour>
    <contour>
      <point x="1604" y="0" type="move" name="bottomright"/>
    </contour>
    <contour>
      <point x="885" y="1110" type="move" name="top"/>
    </contour>
  </outline>
</glyph>
<glyph name="ka-cy" format="1">
  <advance width="976"/>
  <unicode hex="043A"/>
  <outline>
    <contour>
      <point x="737" y="-21" type="curve"/>
      <point x="830" y="-21"/>
      <point x="901" y="46"/>
      <point x="934" y="101" type="curve"/>
      <point x="918" y="128" type="line"/>
      <point x="881" y="85"/>
      <point x="845" y="62"/>
      <point x="816" y="62" type="curve"/>
      <point x="795" y="62"/>
      <point x="784" y="72"/>
      <point x="747" y="130" type="curve"/>
      <point x="471" y="568" type="line"/>
      <point x="459" y="533" type="line"/>
      <point x="581" y="604"/>
      <point x="784" y="752"/>
      <point x="862" y="834" type="curve"/>
      <point x="899" y="872"/>
      <point x="918" y="912"/>
      <point x="918" y="949" type="curve"/>
      <point x="918" y="995"/>
      <point x="886" y="1027"/>
      <point x="847" y="1027" type="curve"/>
      <point x="803" y="1027"/>
      <point x="753" y="999"/>
      <point x="745" y="941" type="curve"/>
      <point x="739" y="899"/>
      <point x="746" y="847"/>
      <point x="700" y="793" type="curve"/>
      <point x="639" y="721"/>
      <point x="537" y="632"/>
      <point x="354" y="513" type="curve"/>
      <point x="592" y="101" type="line" smooth="yes"/>
      <point x="651" y="-1"/>
      <point x="677" y="-21"/>
    </contour>
    <contour>
      <point x="258" y="0" type="line"/>
      <point x="399" y="1005" type="line"/>
      <point x="380" y="1021" type="line"/>
      <point x="114" y="984" type="line"/>
      <point x="109" y="958" type="line"/>
      <point x="249" y="934" type="line"/>
      <point x="116" y="0" type="line"/>
    </contour>
    <contour>
      <point x="771" y="-166" type="move" name="btm"/>
    </contour>
    <contour>
      <point x="627" y="1110" type="move" name="top"/>
    </contour>
  </outline>
</glyph>
<glyph name="el-cy" format="1">
  <advance width="978"/>
  <unicode hex="043B"/>
  <outline>
    <contour>
      <point x="699" y="-21" type="curve"/>
      <point x="785" y="-21"/>
      <point x="850" y="27"/>
      <point x="893" y="94" type="curve"/>
      <point x="875" y="124" type="line"/>
      <point x="835" y="75"/>
      <point x="800" y="58"/>
      <point x="774" y="58" type="curve"/>
      <point x="753" y="58"/>
      <point x="739" y="74"/>
      <point x="745" y="123" type="curve"/>
      <point x="860" y="1004" type="line"/>
      <point x="267" y="1004" type="line"/>
      <point x="263" y="976" type="line"/>
      <point x="431" y="923" type="line"/>
      <point x="404" y="784"/>
      <point x="374" y="663"/>
      <point x="330" y="535" type="curve"/>
      <point x="262" y="337"/>
      <point x="182" y="143"/>
      <point x="101" y="143" type="curve"/>
      <point x="73" y="143"/>
      <point x="-15" y="165"/>
      <point x="-25" y="173" type="curve"/>
      <point x="-56" y="8" type="line"/>
      <point x="-52" y="0"/>
      <point x="4" y="-16"/>
      <point x="34" y="-16" type="curve"/>
      <point x="129" y="-16"/>
      <point x="177" y="42"/>
      <point x="232" y="140" type="curve"/>
      <point x="313" y="284"/>
      <point x="409" y="548"/>
      <point x="505" y="940" type="curve"/>
      <point x="715" y="940" type="line"/>
      <point x="602" y="125" type="line" smooth="yes"/>
      <point x="588" y="22"/>
      <point x="637" y="-21"/>
    </contour>
    <contour>
      <point x="674" y="1110" type="move" name="top"/>
    </contour>
  </outline>
</glyph>
<glyph name="em-cy" format="1">
  <advance width="1432"/>
  <unicode hex="043C"/>
  <outline>
    <contour>
      <point x="1153" y="-21" type="curve"/>
      <point x="1239" y="-21"/>
      <point x="1304" y="27"/>
      <point x="1347" y="94" type="curve"/>
      <point x="1329" y="124" type="line"/>
      <point x="1289" y="75"/>
      <point x="1254" y="58"/>
      <point x="1228" y="58" type="curve"/>
      <point x="1207" y="58"/>
      <point x="1192" y="74"/>
      <point x="1199" y="123" type="curve"/>
      <point x="1329" y="1004" type="line"/>
      <point x="1168" y="1004" type="line"/>
      <point x="795" y="323" type="line"/>
      <point x="700" y="146" type="line"/>
      <point x="692" y="323" type="line"/>
      <point x="627" y="1004" type="line"/>
      <point x="300" y="1004" type="line"/>
      <point x="296" y="975" type="line"/>
      <point x="436" y="928" type="line"/>
      <point x="333" y="521"/>
      <point x="287" y="403"/>
      <point x="226" y="274" type="curve"/>
      <point x="181" y="179"/>
      <point x="152" y="143"/>
      <point x="124" y="143" type="curve"/>
      <point x="98" y="143"/>
      <point x="-8" y="169"/>
      <point x="-18" y="177" type="curve"/>
      <point x="-56" y="8" type="line"/>
      <point x="-51" y="-2"/>
      <point x="13" y="-16"/>
      <point x="57" y="-16" type="curve"/>
      <point x="134" y="-16"/>
      <point x="192" y="17"/>
      <point x="272" y="206" type="curve"/>
      <point x="327" y="336"/>
      <point x="391" y="520"/>
      <point x="491" y="924" type="curve"/>
      <point x="521" y="633" type="line"/>
      <point x="592" y="-14" type="line"/>
      <point x="669" y="-14" type="line"/>
      <point x="1046" y="663" type="line"/>
      <point x="1198" y="947" type="line"/>
      <point x="1136" y="623" type="line"/>
      <point x="1056" y="125" type="line" smooth="yes"/>
      <point x="1042" y="22"/>
      <point x="1091" y="-21"/>
    </contour>
    <contour>
      <point x="810" y="1110" type="move" name="top"/>
    </contour>
  </outline>
</glyph>
<glyph name="tse-cy" format="1">
  <advance width="1005"/>
  <unicode hex="0446"/>
  <outline>
    <contour>
      <point x="601" y="-442" type="curve"/>
      <point x="614" y="-467" type="line"/>
      <point x="703" y="-454"/>
      <point x="747" y="-434"/>
      <point x="790" y="-403" type="curve"/>
      <point x="874" y="-343"/>
      <point x="899" y="-268"/>
      <point x="894" y="-145" type="curve"/>
      <point x="892" y="-98"/>
      <point x="884" y="-57"/>
      <point x="887" y="-34" type="curve"/>
      <point x="893" y="14"/>
      <point x="916" y="45"/>
      <point x="949" y="94" type="curve"/>
      <point x="848" y="28" type="line"/>
      <point x="824" y="2"/>
      <point x="784" y="-50"/>
      <point x="772" y="-106" type="curve"/>
      <point x="755" y="-187"/>
      <point x="770" y="-292"/>
      <point x="736" y="-350" type="curve"/>
      <point x="710" y="-394"/>
      <point x="661" y="-417"/>
    </contour>
    <component base="u"/>
    <contour>
      <point x="760" y="-166" type="move" name="btm"/>
    </contour>
    <contour>
      <point x="624" y="1110" type="move" name="top"/>
    </contour>
  </outline>
</glyph>
<glyph name="yeru-cy" format="1">
  <advance width="1433"/>
  <unicode hex="044B"/>
  <outline>
    <contour>
      <point x="320" y="553" type="curve"/>
      <point x="419" y="1116" type="line"/>
      <point x="377" y="1136" type="line"/>
      <point x="167" y="1093" type="line"/>
      <point x="155" y="1022" type="line"/>
      <point x="249" y="978" type="line"/>
      <point x="149" y="476" type="line"/>
      <point x="81" y="139"/>
      <point x="216" y="-22"/>
      <point x="443" y="-22" type="curve"/>
      <point x="724" y="-22"/>
      <point x="934" y="236"/>
      <point x="934" y="439" type="curve"/>
      <point x="934" y="630"/>
      <point x="856" y="734"/>
      <point x="681" y="734" type="curve"/>
      <point x="503" y="734"/>
      <point x="361" y="609"/>
    </contour>
    <contour>
      <point x="607" y="621" type="curve"/>
      <point x="751" y="621"/>
      <point x="774" y="524"/>
      <point x="774" y="413" type="curve"/>
      <point x="774" y="254"/>
      <point x="646" y="68"/>
      <point x="457" y="68" type="curve"/>
      <point x="335" y="68"/>
      <point x="269" y="171"/>
      <point x="284" y="333" type="curve"/>
      <point x="286" y="355"/>
      <point x="291" y="380"/>
      <point x="295" y="404" type="curve"/>
      <point x="337" y="509"/>
      <point x="483" y="621"/>
    </contour>
    <contour>
      <point x="1221" y="160" type="curve"/>
      <point x="1347" y="1124" type="line"/>
      <point x="1192" y="1124" type="line"/>
      <point x="1064" y="119" type="line"/>
      <point x="1054" y="35"/>
      <point x="1084" y="-18"/>
      <point x="1159" y="-18" type="curve"/>
      <point x="1269" y="-18"/>
      <point x="1362" y="83"/>
      <point x="1379" y="111" type="curve"/>
      <point x="1355" y="156" type="line"/>
      <point x="1305" y="107"/>
      <point x="1273" y="88"/>
      <point x="1246" y="88" type="curve"/>
      <point x="1225" y="88"/>
      <point x="1213" y="110"/>
    </contour>
    <contour>
      <point x="823" y="1110" type="move" name="top"/>
    </contour>
  </outline>
</glyph>
<glyph name="softsign-cy" format="1">
  <advance width="986"/>
  <unicode hex="044C"/>
  <outline>
    <contour>
      <point x="436" y="-22" type="curve"/>
      <point x="679" y="-22"/>
      <point x="903" y="182"/>
      <point x="903" y="438" type="curve"/>
      <point x="903" y="592"/>
      <point x="811" y="704"/>
      <point x="638" y="704" type="curve"/>
      <point x="502" y="704"/>
      <point x="371" y="608"/>
      <point x="303" y="547" type="curve"/>
      <point x="394" y="1005" type="line"/>
      <point x="362" y="1025" type="line"/>
      <point x="118" y="979" type="line"/>
      <point x="114" y="954" type="line"/>
      <point x="234" y="924" type="line"/>
      <point x="141" y="476" type="line" smooth="yes"/>
      <point x="70" y="136"/>
      <point x="224" y="-22"/>
    </contour>
    <contour>
      <point x="451" y="25" type="curve"/>
      <point x="341" y="25"/>
      <point x="278" y="124"/>
      <point x="270" y="280" type="curve"/>
      <point x="267" y="343"/>
      <point x="274" y="423"/>
      <point x="289" y="483" type="curve"/>
      <point x="359" y="549"/>
      <point x="469" y="619"/>
      <point x="580" y="619" type="curve"/>
      <point x="683" y="619"/>
      <point x="743" y="524"/>
      <point x="743" y="400" type="curve"/>
      <point x="743" y="177"/>
      <point x="597" y="25"/>
    </contour>
  </outline>
</glyph>
<glyph name="e-cy" format="1">
  <advance width="818"/>
  <unicode hex="0454"/>
  <outline>
    <contour>
      <point x="385" y="-20" type="curve"/>
      <point x="560" y="-20"/>
      <point x="680" y="84"/>
      <point x="728" y="159" type="curve"/>
      <point x="708" y="190" type="line"/>
      <point x="620" y="101"/>
      <point x="534" y="50"/>
      <point x="443" y="50" type="curve"/>
      <point x="315" y="50"/>
      <point x="230" y="140"/>
      <point x="230" y="394" type="curve"/>
      <point x="230" y="747"/>
      <point x="379" y="969"/>
      <point x="565" y="969" type="curve"/>
      <point x="621" y="969"/>
      <point x="695" y="912"/>
      <point x="749" y="865" type="curve"/>
      <point x="772" y="845" type="line"/>
      <point x="817" y="967" type="line"/>
      <point x="757" y="1004"/>
      <point x="669" y="1025"/>
      <point x="592" y="1025" type="curve"/>
      <point x="271" y="1025"/>
      <point x="68" y="689"/>
      <point x="68" y="381" type="curve"/>
      <point x="68" y="113"/>
      <point x="183" y="-20"/>
    </contour>
    <contour>
      <point x="613" y="452" type="curve"/>
      <point x="625" y="566" type="line"/>
      <point x="467" y="557"/>
      <point x="345" y="553"/>
      <point x="200" y="548" type="curve"/>
      <point x="193" y="483" type="line"/>
      <point x="331" y="473"/>
      <point x="454" y="463"/>
    </contour>
    <contour>
      <point x="632" y="1110" type="move" name="top"/>
    </contour>
  </outline>
</glyph>
<glyph name="nje-cy" format="1">
  <advance width="1550"/>
  <unicode hex="045A"/>
  <outline>
    <contour>
      <point x="860" y="535" type="curve"/>
      <point x="925" y="1005" type="line"/>
      <point x="787" y="1005" type="line"/>
      <point x="723" y="547" type="line"/>
      <point x="290" y="547" type="line"/>
      <point x="356" y="1005" type="line"/>
      <point x="324" y="1025" type="line"/>
      <point x="80" y="979" type="line"/>
      <point x="76" y="954" type="line"/>
      <point x="204" y="923" type="line"/>
      <point x="72" y="0" type="line"/>
      <point x="216" y="0" type="line"/>
      <point x="283" y="486" type="line"/>
      <point x="716" y="486" type="line"/>
      <point x="704" y="400" type="line" smooth="yes"/>
      <point x="667" y="136"/>
      <point x="782" y="-22"/>
      <point x="1000" y="-22" type="curve"/>
      <point x="1243" y="-22"/>
      <point x="1467" y="182"/>
      <point x="1467" y="438" type="curve"/>
      <point x="1467" y="592"/>
      <point x="1375" y="704"/>
      <point x="1202" y="704" type="curve"/>
      <point x="1075" y="704"/>
      <point x="935" y="607"/>
    </contour>
    <contour>
      <point x="1143" y="619" type="curve"/>
      <point x="1247" y="619"/>
      <point x="1307" y="524"/>
      <point x="1307" y="400" type="curve"/>
      <point x="1307" y="177"/>
      <point x="1161" y="23"/>
      <point x="1015" y="23" type="curve"/>
      <point x="905" y="23"/>
      <point x="840" y="124"/>
      <point x="834" y="270" type="curve"/>
      <point x="831" y="343"/>
      <point x="840" y="426"/>
      <point x="852" y="477" type="curve"/>
      <point x="923" y="545"/>
      <point x="1039" y="619"/>
    </contour>
    <contour>
      <point x="1062" y="1110" type="move" name="top"/>
    </contour>
  </outline>
</glyph>
<glyph name="Yat-cy" format="1">
  <advance width="1480"/>
  <unicode hex="0462"/>
  <outline>
    <contour>
      <point x="789" y="-14" type="curve"/>
      <point x="1156" y="-14"/>
      <point x="1419" y="159"/>
      <point x="1419" y="457" type="curve"/>
      <point x="1419" y="697"/>
      <point x="1240" y="826"/>
      <point x="947" y="826" type="curve"/>
      <point x="874" y="826"/>
      <point x="749" y="816"/>
      <point x="673" y="802" type="curve"/>
      <point x="666" y="737" type="line"/>
      <point x="722" y="748"/>
      <point x="802" y="759"/>
      <point x="884" y="759" type="curve"/>
      <point x="1127" y="759"/>
      <point x="1255" y="666"/>
      <point x="1255" y="440" type="curve"/>
      <point x="1255" y="193"/>
      <point x="1089" y="37"/>
      <point x="814" y="37" type="curve"/>
      <point x="726" y="37"/>
      <point x="644" y="53"/>
      <point x="593" y="67" type="curve"/>
      <point x="742" y="1147" type="line"/>
      <point x="1190" y="1127" type="line"/>
      <point x="1173" y="922" type="line"/>
      <point x="1257" y="920" type="line"/>
      <point x="1313" y="1208" type="line"/>
      <point x="750" y="1207" type="line"/>
      <point x="779" y="1418" type="line"/>
      <point x="915" y="1448" type="line"/>
      <point x="920" y="1486" type="line"/>
      <point x="492" y="1486" type="line"/>
      <point x="487" y="1448" type="line"/>
      <point x="623" y="1418" type="line"/>
      <point x="594" y="1207" type="line"/>
      <point x="137" y="1206" type="line"/>
      <point x="85" y="920" type="line"/>
      <point x="173" y="920" type="line"/>
      <point x="234" y="1129" type="line"/>
      <point x="586" y="1147" type="line"/>
      <point x="437" y="67" type="line"/>
      <point x="291" y="36" type="line"/>
      <point x="286" y="0" type="line"/>
      <point x="513" y="0" type="line" smooth="yes"/>
      <point x="588" y="0"/>
      <point x="684" y="-14"/>
    </contour>
  </outline>
</glyph>
<glyph name="yat-cy" format="1">
  <advance width="1633"/>
  <unicode hex="0463"/>
  <outline>
    <contour>
      <point x="382" y="635" type="curve"/>
      <point x="436" y="1005" type="line"/>
      <point x="405" y="1025" type="line"/>
      <point x="161" y="979" type="line"/>
      <point x="157" y="954" type="line"/>
      <point x="284" y="923" type="line"/>
      <point x="147" y="0" type="line"/>
      <point x="288" y="0" type="line"/>
      <point x="360" y="488" type="line"/>
      <point x="467" y="769"/>
      <point x="631" y="943"/>
      <point x="757" y="943" type="curve"/>
      <point x="827" y="943"/>
      <point x="853" y="904"/>
      <point x="853" y="823" type="curve"/>
      <point x="853" y="754"/>
      <point x="831" y="612"/>
      <point x="809" y="476" type="curve"/>
      <point x="755" y="136"/>
      <point x="881" y="-22"/>
      <point x="1093" y="-22" type="curve"/>
      <point x="1336" y="-22"/>
      <point x="1566" y="182"/>
      <point x="1566" y="438" type="curve"/>
      <point x="1566" y="592"/>
      <point x="1478" y="704"/>
      <point x="1305" y="704" type="curve"/>
      <point x="1169" y="704"/>
      <point x="1038" y="608"/>
      <point x="962" y="529" type="curve"/>
      <point x="976" y="609"/>
      <point x="1000" y="766"/>
      <point x="1000" y="828" type="curve"/>
      <point x="1000" y="960"/>
      <point x="937" y="1031"/>
      <point x="819" y="1031" type="curve"/>
      <point x="654" y="1031"/>
      <point x="490" y="879"/>
    </contour>
    <contour>
      <point x="941" y="404" type="curve"/>
      <point x="950" y="468" type="line"/>
      <point x="1028" y="549"/>
      <point x="1136" y="619"/>
      <point x="1247" y="619" type="curve"/>
      <point x="1350" y="619"/>
      <point x="1406" y="524"/>
      <point x="1406" y="400" type="curve"/>
      <point x="1406" y="177"/>
      <point x="1254" y="25"/>
      <point x="1108" y="25" type="curve"/>
      <point x="998" y="25"/>
      <point x="915" y="133"/>
    </contour>
    <contour>
      <point x="864" y="-166" type="move" name="btm"/>
    </contour>
    <contour>
      <point x="794" y="1660" type="move" name="top"/>
    </contour>
  </outline>
</glyph>
<glyph name="Yusbig-cy" format="1">
  <advance width="1990"/>
  <unicode hex="046A"/>
  <outline>
    <contour>
      <point x="-84" y="36" type="line"/>
      <point x="-89" y="0" type="line"/>
      <point x="126" y="0" type="line" smooth="yes"/>
      <point x="225" y="0"/>
      <point x="548" y="723"/>
      <point x="715" y="723" type="curve"/>
      <point x="868" y="723" type="line"/>
      <point x="848" y="746" type="line"/>
      <point x="760" y="67" type="line"/>
      <point x="610" y="36" type="line"/>
      <point x="604" y="0" type="line"/>
      <point x="1064" y="0" type="line"/>
      <point x="1069" y="36" type="line"/>
      <point x="919" y="67" type="line"/>
      <point x="1005" y="746" type="line"/>
      <point x="983" y="723" type="line"/>
      <point x="1119" y="723" type="line" smooth="yes"/>
      <point x="1275" y="723"/>
      <point x="1482" y="0"/>
      <point x="1577" y="0" type="curve"/>
      <point x="1797" y="0" type="line"/>
      <point x="1801" y="36" type="line"/>
      <point x="1714" y="59" type="line"/>
      <point x="1668" y="74"/>
      <point x="1598" y="236"/>
      <point x="1536" y="378" type="curve"/>
      <point x="1437" y="604"/>
      <point x="1373" y="795"/>
      <point x="1145" y="795" type="curve"/>
      <point x="992" y="795" type="line"/>
      <point x="1063" y="776" type="line"/>
      <point x="1630" y="1423" type="line"/>
      <point x="1634" y="1486" type="line"/>
      <point x="387" y="1486" type="line"/>
      <point x="372" y="1423" type="line"/>
      <point x="801" y="776" type="line"/>
      <point x="876" y="794" type="line"/>
      <point x="708" y="794" type="line" smooth="yes"/>
      <point x="515" y="794"/>
      <point x="382" y="591"/>
      <point x="226" y="353" type="curve"/>
      <point x="132" y="209"/>
      <point x="40" y="71"/>
      <point x="0" y="60" type="curve"/>
    </contour>
    <contour>
      <point x="1481" y="1385" type="line"/>
      <point x="930" y="738" type="line"/>
      <point x="510" y="1385" type="line"/>
    </contour>
  </outline>
</glyph>
<glyph name="yusbig-cy" format="1">
  <advance width="1498"/>
  <unicode hex="046B"/>
  <outline>
    <contour>
      <point x="1081" y="524" type="curve"/>
      <point x="903" y="524" type="line"/>
      <point x="1335" y="937" type="line"/>
      <point x="1341" y="1004" type="line"/>
      <point x="358" y="1004" type="line"/>
      <point x="343" y="935" type="line"/>
      <point x="687" y="524" type="line"/>
      <point x="522" y="524" type="line" smooth="yes"/>
      <point x="289" y="524"/>
      <point x="157" y="95"/>
      <point x="50" y="67" type="curve"/>
      <point x="-49" y="41" type="line"/>
      <point x="-59" y="0" type="line"/>
      <point x="95" y="0" type="line" smooth="yes"/>
      <point x="291" y="0"/>
      <point x="372" y="476"/>
      <point x="574" y="476" type="curve"/>
      <point x="709" y="476" type="line"/>
      <point x="648" y="0" type="line"/>
      <point x="803" y="0" type="line"/>
      <point x="865" y="476" type="line"/>
      <point x="1010" y="476" type="line" smooth="yes"/>
      <point x="1184" y="476"/>
      <point x="1170" y="0"/>
      <point x="1350" y="0" type="curve"/>
      <point x="1477" y="0" type="line"/>
      <point x="1484" y="36" type="line"/>
      <point x="1425" y="55" type="line" smooth="yes"/>
      <point x="1330" y="86"/>
      <point x="1292" y="524"/>
    </contour>
    <contour>
      <point x="780" y="512" type="line"/>
      <point x="427" y="947" type="line"/>
      <point x="430" y="893" type="line"/>
      <point x="1252" y="893" type="line"/>
      <point x="1250" y="941" type="line"/>
      <point x="807" y="512" type="line"/>
    </contour>
  </outline>
</glyph>
<glyph name="Fita-cy" format="1">
  <advance width="1267"/>
  <unicode hex="0472"/>
  <outline>
    <contour>
      <point x="573" y="-15" type="curve"/>
      <point x="973" y="-15"/>
      <point x="1251" y="381"/>
      <point x="1251" y="850" type="curve"/>
      <point x="1251" y="1254"/>
      <point x="1089" y="1502"/>
      <point x="760" y="1502" type="curve"/>
      <point x="366" y="1502"/>
      <point x="79" y="1110"/>
      <point x="79" y="604" type="curve"/>
      <point x="79" y="223"/>
      <point x="250" y="-15"/>
    </contour>
    <contour>
      <point x="597" y="36" type="curve"/>
      <point x="403" y="36"/>
      <point x="282" y="200"/>
      <point x="251" y="480" type="curve"/>
      <point x="245" y="526"/>
      <point x="244" y="559"/>
      <point x="243" y="650" type="curve"/>
      <point x="275" y="701"/>
      <point x="328" y="761"/>
      <point x="432" y="761" type="curve"/>
      <point x="556" y="761"/>
      <point x="727" y="637"/>
      <point x="857" y="637" type="curve"/>
      <point x="958" y="637"/>
      <point x="1040" y="710"/>
      <point x="1086" y="807" type="curve"/>
      <point x="1073" y="389"/>
      <point x="867" y="36"/>
    </contour>
    <contour>
      <point x="246" y="733" type="curve"/>
      <point x="276" y="1149"/>
      <point x="478" y="1451"/>
      <point x="738" y="1451" type="curve"/>
      <point x="935" y="1451"/>
      <point x="1048" y="1301"/>
      <point x="1078" y="1017" type="curve"/>
      <point x="1082" y="979"/>
      <point x="1085" y="939"/>
      <point x="1086" y="896" type="curve"/>
      <point x="1061" y="832"/>
      <point x="1007" y="769"/>
      <point x="875" y="769" type="curve"/>
      <point x="732" y="769"/>
      <point x="615" y="884"/>
      <point x="486" y="884" type="curve"/>
      <point x="385" y="884"/>
      <point x="301" y="812"/>
    </contour>
  </outline>
</glyph>
<glyph name="Izhitsa-cy" format="1">
  <advance width="1236"/>
  <unicode hex="0474"/>
  <outline>
    <contour>
      <point x="210" y="1424" type="line"/>
      <point x="481" y="-19" type="line"/>
      <point x="606" y="-11" type="line"/>
      <point x="1058" y="1131" type="line" smooth="yes"/>
      <point x="1129" y="1310"/>
      <point x="1209" y="1371"/>
      <point x="1301" y="1371" type="curve"/>
      <point x="1328" y="1371"/>
      <point x="1336" y="1369"/>
      <point x="1350" y="1365" type="curve"/>
      <point x="1362" y="1476" type="line"/>
      <point x="1354" y="1482"/>
      <point x="1332" y="1489"/>
      <point x="1293" y="1489" type="curve"/>
      <point x="1180" y="1489"/>
      <point x="1066" y="1431"/>
      <point x="993" y="1242" type="curve"/>
      <point x="676" y="420" type="line"/>
      <point x="563" y="54" type="line"/>
      <point x="596" y="48" type="line"/>
      <point x="579" y="240" type="line"/>
      <point x="370" y="1420" type="line"/>
      <point x="560" y="1450" type="line"/>
      <point x="568" y="1486" type="line"/>
      <point x="105" y="1486" type="line"/>
      <point x="101" y="1450" type="line"/>
    </contour>
    <contour>
      <point x="645" y="-166" type="move" name="btm"/>
    </contour>
    <contour>
      <point x="615" y="1660" type="move" name="top"/>
    </contour>
  </outline>
</glyph>
<glyph name="Iishorttail-cy" format="1">
  <advance width="1422"/>
  <unicode hex="048A"/>
  <outline>
    <contour>
      <point x="1131" y="-360" type="curve"/>
      <point x="1229" y="-360" type="line"/>
      <point x="1253" y="-289"/>
      <point x="1310" y="-96"/>
      <point x="1336" y="106" type="curve"/>
      <point x="1043" y="106" type="line"/>
      <point x="1171" y="0" type="line"/>
      <point x="1178" y="-69"/>
      <point x="1147" y="-264"/>
    </contour>
    <component base="Iishort-cy"/>
  </outline>
</glyph>
<glyph name="Semisoftsign-cy" format="1">
  <advance width="1140"/>
  <unicode hex="048C"/>
  <outline>
    <contour>
      <point x="143" y="1143" type="line"/>
      <point x="133" y="1083" type="line"/>
      <point x="831" y="1083" type="line"/>
      <point x="839" y="1143" type="line"/>
    </contour>
    <component base="Softsign-cy"/>
    <contour>
      <point x="595" y="1660" type="move" name="top"/>
    </contour>
  </outline>
</glyph>
<glyph name="semisoftsign-cy" format="1">
  <advance width="1013"/>
  <unicode hex="048D"/>
  <outline>
    <contour>
      <point x="325" y="546" type="curve"/>
      <point x="395" y="1027" type="line"/>
      <point x="748" y="1027" type="line"/>
      <point x="755" y="1071" type="line"/>
      <point x="401" y="1071" type="line"/>
      <point x="476" y="1588" type="line"/>
      <point x="457" y="1604" type="line"/>
      <point x="191" y="1567" type="line"/>
      <point x="186" y="1541" type="line"/>
      <point x="323" y="1518" type="line"/>
      <point x="256" y="1071" type="line"/>
      <point x="88" y="1071" type="line"/>
      <point x="82" y="1027" type="line"/>
      <point x="249" y="1027" type="line"/>
      <point x="157" y="421" type="line" smooth="yes"/>
      <point x="112" y="123"/>
      <point x="258" y="-22"/>
      <point x="465" y="-22" type="curve"/>
      <point x="711" y="-22"/>
      <point x="930" y="190"/>
      <point x="930" y="433" type="curve"/>
      <point x="930" y="598"/>
      <point x="833" y="704"/>
      <point x="667" y="704" type="curve"/>
      <point x="525" y="704"/>
      <point x="384" y="601"/>
    </contour>
    <contour>
      <point x="606" y="619" type="curve"/>
      <point x="714" y="619"/>
      <point x="770" y="522"/>
      <point x="770" y="393" type="curve"/>
      <point x="770" y="208"/>
      <point x="643" y="25"/>
      <point x="479" y="25" type="curve"/>
      <point x="350" y="25"/>
      <point x="296" y="159"/>
      <point x="296" y="299" type="curve"/>
      <point x="296" y="349"/>
      <point x="302" y="425"/>
      <point x="316" y="482" type="curve"/>
      <point x="381" y="546"/>
      <point x="492" y="619"/>
    </contour>
  </outline>
</glyph>
<glyph name="ertick-cy" format="1">
  <advance width="1049"/>
  <unicode hex="048F"/>
  <outline>
    <contour>
      <point x="327" y="796" type="curve"/>
      <point x="358" y="1005" type="line"/>
      <point x="327" y="1025" type="line"/>
      <point x="83" y="979" type="line"/>
      <point x="79" y="954" type="line"/>
      <point x="206" y="923" type="line"/>
      <point x="-6" y="-506" type="line"/>
      <point x="135" y="-506" type="line"/>
      <point x="210" y="5" type="line"/>
      <point x="257" y="-10"/>
      <point x="311" y="-19"/>
      <point x="367" y="-19" type="curve"/>
      <point x="485" y="-19"/>
      <point x="589" y="18"/>
      <point x="675" y="79" type="curve"/>
      <point x="835" y="-112" type="line"/>
      <point x="875" y="-78" type="line"/>
      <point x="717" y="112" type="line"/>
      <point x="873" y="245"/>
      <point x="961" y="462"/>
      <point x="961" y="668" type="curve"/>
      <point x="961" y="888"/>
      <point x="875" y="1037"/>
      <point x="665" y="1037" type="curve"/>
      <point x="534" y="1037"/>
      <point x="408" y="950"/>
    </contour>
    <contour>
      <point x="655" y="186" type="curve"/>
      <point x="508" y="362" type="line"/>
      <point x="468" y="328" type="line"/>
      <point x="621" y="145" type="line"/>
      <point x="553" y="70"/>
      <point x="468" y="23"/>
      <point x="369" y="23" type="curve"/>
      <point x="291" y="23"/>
      <point x="246" y="60"/>
      <point x="226" y="108" type="curve"/>
      <point x="305" y="646" type="line"/>
      <point x="356" y="845"/>
      <point x="519" y="973"/>
      <point x="637" y="973" type="curve"/>
      <point x="749" y="973"/>
      <point x="810" y="868"/>
      <point x="810" y="687" type="curve"/>
      <point x="810" y="517"/>
      <point x="755" y="321"/>
    </contour>
  </outline>
</glyph>
<glyph name="Gheupturn-cy" format="1">
  <advance width="955"/>
  <unicode hex="0490"/>
  <outline>
    <contour>
      <point x="-26" y="36" type="line"/>
      <point x="-31" y="0" type="line"/>
      <point x="469" y="0" type="line"/>
      <point x="474" y="36" type="line"/>
      <point x="266" y="67" type="line"/>
      <point x="452" y="1421" type="line"/>
      <point x="985" y="1392" type="line"/>
      <point x="1048" y="1836" type="line"/>
      <point x="973" y="1836" type="line"/>
      <point x="873" y="1486" type="line"/>
      <point x="165" y="1486" type="line"/>
      <point x="160" y="1450" type="line"/>
      <point x="296" y="1421" type="line"/>
      <point x="110" y="67" type="line"/>
    </contour>
    <contour>
      <point x="558" y="-166" type="move" name="btm"/>
    </contour>
    <contour>
      <point x="384" y="1660" type="move" name="top"/>
    </contour>
  </outline>
</glyph>
<glyph name="gheupturn-cy" format="1">
  <advance width="751"/>
  <unicode hex="0491"/>
  <outline>
    <contour>
      <point x="852" y="1323" type="line"/>
      <point x="792" y="1323" type="line"/>
      <point x="674" y="1004" type="line"/>
      <point x="96" y="1004" type="line"/>
      <point x="92" y="974" type="line"/>
      <point x="229" y="928" type="line"/>
      <point x="108" y="0" type="line"/>
      <point x="244" y="0" type="line"/>
      <point x="372" y="951" type="line"/>
      <point x="796" y="951" type="line"/>
    </contour>
    <contour>
      <point x="310" y="1110" type="move" name="top"/>
    </contour>
  </outline>
</glyph>
<glyph name="Ghestroke-cy" format="1">
  <advance width="923"/>
  <unicode hex="0492"/>
  <outline>
    <contour>
      <point x="95" y="773" type="line"/>
      <point x="85" y="699" type="line"/>
      <point x="753" y="699" type="line"/>
      <point x="761" y="773" type="line"/>
    </contour>
    <component base="Ge-cy"/>
  </outline>
</glyph>
<glyph name="Ghemiddlehook-cy" format="1">
  <advance width="1142"/>
  <unicode hex="0494"/>
  <outline>
    <contour>
      <point x="444" y="-332" type="curve"/>
      <point x="893" y="-332"/>
      <point x="1060" y="102"/>
      <point x="1060" y="447" type="curve"/>
      <point x="1060" y="722"/>
      <point x="926" y="838"/>
      <point x="694" y="838" type="curve"/>
      <point x="579" y="838"/>
      <point x="447" y="793"/>
      <point x="358" y="720" type="curve"/>
      <point x="454" y="1421" type="line"/>
      <point x="927" y="1404" type="line"/>
      <point x="952" y="1062" type="line"/>
      <point x="1012" y="1062" type="line"/>
      <point x="1049" y="1486" type="line"/>
      <point x="165" y="1486" type="line"/>
      <point x="160" y="1450" type="line"/>
      <point x="296" y="1421" type="line"/>
      <point x="110" y="67" type="line"/>
      <point x="-26" y="36" type="line"/>
      <point x="-29" y="0" type="line"/>
      <point x="471" y="0" type="line"/>
      <point x="476" y="36" type="line"/>
      <point x="268" y="67" type="line"/>
      <point x="347" y="644" type="line"/>
      <point x="436" y="712"/>
      <point x="539" y="759"/>
      <point x="641" y="759" type="curve"/>
      <point x="794" y="759"/>
      <point x="892" y="672"/>
      <point x="892" y="430" type="curve"/>
      <point x="892" y="67"/>
      <point x="760" y="-267"/>
      <point x="442" y="-267" type="curve"/>
      <point x="417" y="-267"/>
      <point x="383" y="-265"/>
      <point x="363" y="-257" type="curve"/>
      <point x="354" y="-319" type="line"/>
      <point x="374" y="-328"/>
      <point x="401" y="-332"/>
    </contour>
  </outline>
</glyph>
<glyph name="Zhedescender-cy" format="1">
  <advance width="2082"/>
  <unicode hex="0496"/>
  <outline>
    <contour>
      <point x="1782" y="-360" type="curve"/>
      <point x="1882" y="-360" type="line"/>
      <point x="1911" y="-277"/>
      <point x="1960" y="-66"/>
      <point x="1990" y="67" type="curve"/>
      <point x="1727" y="67" type="line"/>
      <point x="1726" y="0" type="line"/>
      <point x="1830" y="0" type="line"/>
      <point x="1818" y="-108"/>
      <point x="1792" y="-296"/>
    </contour>
    <component base="Zhe-cy"/>
    <contour>
      <point x="1020" y="1660" type="move" name="top"/>
    </contour>
  </outline>
</glyph>
<glyph name="zhedescender-cy" format="1">
  <advance width="1637"/>
  <unicode hex="0497"/>
  <outline>
    <contour>
      <point x="1138" y="-451" type="curve"/>
      <point x="1160" y="-478" type="line"/>
      <point x="1255" y="-464"/>
      <point x="1393" y="-394"/>
      <point x="1393" y="-269" type="curve"/>
      <point x="1393" y="-207"/>
      <point x="1351" y="-154"/>
      <point x="1351" y="-98" type="curve"/>
      <point x="1351" y="-51"/>
      <point x="1382" y="-22"/>
      <point x="1432" y="7" type="curve"/>
      <point x="1506" y="44"/>
      <point x="1565" y="119"/>
      <point x="1595" y="158" type="curve"/>
      <point x="1574" y="182" type="line"/>
      <point x="1494" y="101"/>
      <point x="1439" y="64"/>
      <point x="1379" y="64" type="curve"/>
      <point x="1305" y="64"/>
      <point x="1225" y="141"/>
      <point x="1225" y="364" type="curve"/>
      <point x="1225" y="734"/>
      <point x="1378" y="956"/>
      <point x="1492" y="956" type="curve"/>
      <point x="1606" y="827" type="line"/>
      <point x="1658" y="979" type="line"/>
      <point x="1630" y="1003"/>
      <point x="1589" y="1015"/>
      <point x="1529" y="1015" type="curve"/>
      <point x="1327" y="1015"/>
      <point x="1156" y="816"/>
      <point x="1094" y="547" type="curve"/>
      <point x="885" y="547" type="line"/>
      <point x="940" y="1004" type="line"/>
      <point x="797" y="1004" type="line"/>
      <point x="744" y="547" type="line"/>
      <point x="541" y="547" type="line"/>
      <point x="543" y="570"/>
      <point x="545" y="596"/>
      <point x="545" y="621" type="curve"/>
      <point x="545" y="919"/>
      <point x="436" y="1015"/>
      <point x="286" y="1015" type="curve"/>
      <point x="167" y="1015"/>
      <point x="65" y="897"/>
      <point x="22" y="837" type="curve"/>
      <point x="43" y="813" type="line"/>
      <point x="107" y="877"/>
      <point x="168" y="931"/>
      <point x="240" y="931" type="curve"/>
      <point x="297" y="931"/>
      <point x="392" y="883"/>
      <point x="392" y="626" type="curve"/>
      <point x="392" y="251"/>
      <point x="233" y="39"/>
      <point x="125" y="39" type="curve"/>
      <point x="11" y="168" type="line"/>
      <point x="-41" y="16" type="line"/>
      <point x="-16" y="-5"/>
      <point x="24" y="-20"/>
      <point x="84" y="-20" type="curve"/>
      <point x="292" y="-20"/>
      <point x="470" y="178"/>
      <point x="534" y="492" type="curve"/>
      <point x="737" y="492" type="line"/>
      <point x="677" y="0" type="line"/>
      <point x="818" y="0" type="line"/>
      <point x="878" y="492" type="line"/>
      <point x="1082" y="492" type="line"/>
      <point x="1074" y="421"/>
      <point x="1072" y="380"/>
      <point x="1072" y="339" type="curve"/>
      <point x="1072" y="81"/>
      <point x="1188" y="-20"/>
      <point x="1323" y="-20" type="curve"/>
      <point x="1253" y="-50"/>
      <point x="1221" y="-107"/>
      <point x="1221" y="-164" type="curve"/>
      <point x="1221" y="-231"/>
      <point x="1256" y="-267"/>
      <point x="1256" y="-315" type="curve"/>
      <point x="1256" y="-381"/>
      <point x="1196" y="-433"/>
    </contour>
    <contour>
      <point x="1676" y="0" type="move" name="bottomright"/>
    </contour>
    <contour>
      <point x="957" y="1110" type="move" name="top"/>
    </contour>
  </outline>
</glyph>
<glyph name="Kadescender-cy" format="1">
  <advance width="1282"/>
  <unicode hex="049A"/>
  <outline>
    <contour>
      <point x="982" y="-360" type="curve"/>
      <point x="1082" y="-360" type="line"/>
      <point x="1111" y="-277"/>
      <point x="1160" y="-66"/>
      <point x="1190" y="67" type="curve"/>
      <point x="960" y="67" type="line"/>
      <point x="935" y="0" type="line"/>
      <point x="1026" y="0" type="line"/>
      <point x="1014" y="-108"/>
      <point x="992" y="-296"/>
    </contour>
    <component base="Ka-cy"/>
  </outline>
</glyph>
